<svg xmlns="http://www.w3.org/2000/svg" width="64" height="64" viewBox="0 0 512 512"><path fill="#e5e4df" d="M233.998 189.523h63.403v94.396h-63.403z"/><path fill="#9c9c9c" d="M376.433 5H154.967C149.155 5 144 9.244 144 15.056v107.308c0 2.123.866 4.198 2.066 5.949l60.574 88.166c1.961 2.863 5.321 4.521 8.789 4.521h6.684l44.687-8.561L309.286 221h6.683c3.468 0 6.717-1.658 8.678-4.521l60.486-88.192c1.204-1.751 1.867-3.8 1.867-5.923V15.056C387 9.244 382.241 5 376.433 5"/><path fill="#c6c6c6" d="M222 5h87v216h-87z"/><circle cx="265.699" cy="373.176" r="131.521" fill="#c5927c"/><path fill="#cbb420" d="M111.631 300.161c24.747 6.268 44.227 25.748 50.496 50.494c.603 2.38 3.666 2.38 4.269 0c6.269-24.746 25.749-44.226 50.496-50.494c2.38-.603 2.38-3.666 0-4.269c-24.747-6.269-44.227-25.751-50.496-50.498c-.603-2.38-3.666-2.38-4.269 0c-6.269 24.747-25.749 44.229-50.496 50.498c-2.381.603-2.38 3.666 0 4.269"/></svg>