<svg xmlns="http://www.w3.org/2000/svg" width="64" height="64" viewBox="0 0 50 50"><g fill="none" stroke-linecap="round" stroke-linejoin="round" stroke-width="2"><path fill="darkgray" d="M25 27.083a6.25 6.25 0 1 0 0-12.5a6.25 6.25 0 0 0 0 12.5"/><path stroke="darkgray" d="M12.063 28.27L6.25 36.584l6.313 1.875l3.916 5.292l5.875-8.375m15.584-7.106l5.812 8.313l-6.312 1.875l-3.917 5.292l-5.875-8.375"/><path stroke="darkgray" d="M40.167 20.833c0 1.584-1.396 2.917-1.855 4.334c-.458 1.416-.145 3.354-1.041 4.583s-2.813 1.5-3.938 2.417s-2.083 2.625-3.541 3.104c-1.459.479-3.105-.438-4.688-.438s-3.27.896-4.687.438c-1.417-.459-2.313-2.23-3.542-3.104c-1.23-.875-3.146-1.188-4.042-2.417c-.896-1.23-.562-3.125-1.041-4.583c-.48-1.459-1.959-2.75-1.959-4.334s1.396-2.916 1.854-4.333s.146-3.354 1.042-4.583s2.813-1.5 4.042-2.417s1.979-2.625 3.541-3.104c1.563-.48 3.105.437 4.688.437s3.27-.896 4.688-.437C31.104 6.854 32 8.625 33.333 9.5s3.146 1.187 4.042 2.417s.563 3.125 1.042 4.583s1.75 2.75 1.75 4.333"/></g></svg>