<svg xmlns="http://www.w3.org/2000/svg" xml:space="preserve" id="clown" x="0" y="0" enable-background="new 0 0 64 64" version="1.1" viewBox="0 0 64 64">
  <path fill="#f4d3b0" d="M31.99,38.23c2.15,0,3.9,1.74,3.9,3.89c0,2.15-1.75,3.9-3.9,3.9c-2.15,0-3.89-1.75-3.89-3.9
		C28.11,39.97,29.85,38.23,31.99,38.23z M21.73,41.58l-3.29-4.56c-0.33-0.46-0.33-1.07,0-1.52l3.29-4.57c0.52-0.72,1.59-0.72,2.11,0
		l3.28,4.57c0.33,0.45,0.33,1.06,0,1.52l-3.28,4.56C23.32,42.3,22.25,42.3,21.73,41.58z M45.55,37.02l-3.29,4.56
		c-0.52,0.72-1.59,0.72-2.11,0l-3.28-4.56c-0.33-0.46-0.33-1.07,0-1.52l3.28-4.57c0.52-0.72,1.59-0.72,2.11,0l3.29,4.57
		C45.88,35.95,45.88,36.56,45.55,37.02z M51.38,39.14c0-0.24-0.02-0.49-0.04-0.74c-0.33-5.14-2.11-9.84-4.95-13.47
		c0-0.01,0-0.01,0-0.01c-0.19-0.26-0.39-0.51-0.61-0.74v-0.01c-9.05,4.29-17.95,4.38-26.99,0.37c-2.43,3.46-3.86,7.76-3.86,12.42
		c0,0.24,0,0.5,0.02,0.74c0.31,13.28,8.86,24.86,19.36,24.86c2.51,0,4.96-0.65,7.22-1.83C47.53,56.42,51.73,48.27,51.38,39.14z
		 M31.96,57.81c-5.12,0-9.44-3.99-9.82-9.1l0.6-0.04c0.36,4.79,4.41,8.54,9.22,8.54c1.5,0,2.93-0.37,4.2-1.01c0,0,0,0,0.01-0.01
		c0.63-0.32,1.22-0.72,1.76-1.17c0.01,0,0.01-0.01,0.01-0.01c1.83-1.55,3.06-3.8,3.25-6.34l0.3,0.02l0.3,0.02
		c-0.15,1.98-0.88,3.79-2.03,5.27c-0.46,0.58-0.97,1.11-1.54,1.58C36.51,56.96,34.32,57.81,31.96,57.81z"></path>
  <path fill="#e2c2a6" d="M41.53,60.73C38.65,62.81,35.37,64,31.96,64c-10.5,0-19.05-11.58-19.36-24.85c-0.02-0.25-0.02-0.5-0.02-0.75
		c0-5.3,1.85-10.13,4.91-13.8v-0.01c0.13-0.16,0.27-0.31,0.4-0.46c0.3,0.14,0.6,0.28,0.9,0.41c-2.43,3.46-3.86,7.76-3.86,12.42
		c0,0.24,0,0.5,0.02,0.74c0.31,13.28,8.86,24.86,19.36,24.86C36.82,62.56,39.27,61.91,41.53,60.73z"></path>
  <path fill="#838383" d="M27.12 35.5l-3.28-4.57c-.52-.72-1.59-.72-2.11 0l-3.29 4.57c-.33.45-.33 1.06 0 1.52l3.29 4.56c.52.72 1.59.72 2.11 0l3.28-4.56C27.45 36.56 27.45 35.95 27.12 35.5zM23.87 36.92c0 .59-.48 1.07-1.07 1.07h-.04c-.59 0-1.07-.48-1.07-1.07v-1.33c0-.59.48-1.07 1.07-1.07h.04c.59 0 1.07.48 1.07 1.07V36.92zM45.55 35.5l-3.29-4.57c-.52-.72-1.59-.72-2.11 0l-3.28 4.57c-.33.45-.33 1.06 0 1.52l3.28 4.56c.52.72 1.59.72 2.11 0l3.29-4.56C45.88 36.56 45.88 35.95 45.55 35.5zM42.29 36.92c0 .59-.47 1.07-1.06 1.07h-.04c-.59 0-1.07-.48-1.07-1.07v-1.33c0-.59.48-1.07 1.07-1.07h.04c.59 0 1.06.48 1.06 1.07V36.92z"></path>
  <path fill="#0094fd" d="M58.48 33.35c.1.18.21.36.29.56.92 2.42-.29 5.12-2.7 6.04-1.65.63-3.43.26-4.69-.81 0-.24-.02-.49-.04-.74-.33-5.14-2.11-9.84-4.95-13.47 0-.01 0-.01 0-.01.41-1.33 1.41-2.46 2.8-2.99 2.41-.93 5.11.28 6.04 2.69 0 .02 0 .03.01.05 2.27-.6 4.69.58 5.56 2.83C61.66 29.78 60.63 32.29 58.48 33.35zM17.49 24.6c-3.06 3.67-4.91 8.5-4.91 13.8 0 .25 0 .5.02.75-1.27 1.07-3.04 1.42-4.68.8-2.41-.92-3.62-3.62-2.7-6.04.08-.2.19-.38.29-.56-2.15-1.06-3.18-3.57-2.32-5.85.87-2.25 3.28-3.43 5.56-2.83 0-.02.01-.03.01-.05.93-2.41 3.62-3.62 6.04-2.69 1.29.49 2.23 1.47 2.69 2.66V24.6z"></path>
  <path fill="#bc2020" d="M35.89,42.12c0,2.15-1.75,3.9-3.9,3.9c-2.15,0-3.89-1.75-3.89-3.9c0-2.15,1.74-3.89,3.89-3.89
		C34.14,38.23,35.89,39.97,35.89,42.12z"></path>
  <path fill="#d8b009" d="M33.45,2.55l-13.21,22.6c-0.78-0.31-1.57-0.65-2.35-1.02L31.99,0L33.45,2.55z"></path>
  <path fill="#eabf0a" d="M45.78,24.17c-8.57,4.06-17,4.36-25.54,0.98l13.21-22.6L45.78,24.17z"></path>
  <path fill="#bc2020" d="M41.79,48.71c-0.38,5.11-4.7,9.1-9.83,9.1c-5.12,0-9.44-3.99-9.82-9.1l0.6-0.04
		c0.36,4.79,4.41,8.54,9.22,8.54c4.82,0,8.87-3.75,9.23-8.54l0.3,0.02L41.79,48.71z"></path>
  <path fill="#4c4b4b" d="M42.29 35.59v1.33c0 .59-.47 1.07-1.06 1.07h-.04c-.59 0-1.07-.48-1.07-1.07v-1.33c0-.59.48-1.07 1.07-1.07h.04C41.82 34.52 42.29 35 42.29 35.59zM23.87 35.59v1.33c0 .59-.48 1.07-1.07 1.07h-.04c-.59 0-1.07-.48-1.07-1.07v-1.33c0-.59.48-1.07 1.07-1.07h.04C23.39 34.52 23.87 35 23.87 35.59z"></path>
</svg>
