<?xml version="1.0" encoding="iso-8859-1"?>
<!-- Generator: Adobe Illustrator 19.0.0, SVG Export Plug-In . SVG Version: 6.00 Build 0)  -->
<svg version="1.1" id="Layer_1" xmlns="http://www.w3.org/2000/svg" xmlns:xlink="http://www.w3.org/1999/xlink" x="0px" y="0px"
	 viewBox="0 0 511.998 511.998" style="enable-background:new 0 0 511.998 511.998;" xml:space="preserve">
<circle style="fill:#006775;" cx="255.996" cy="255.999" r="255.996"/>
<path style="fill:#055661;" d="M226.301,119.636l-43.064-42.629l-8.225,14.71l-12.116,100.007l27.341,21.155l10.959,212.652
	l84.719,84.719C413.2,495.432,511.998,387.264,511.998,256c0-4.259-0.108-8.491-0.313-12.703L344.908,76.522l-7.894,27.492
	L318.6,102.83l-50.743-50.739L226.301,119.636z"/>
<path style="fill:#9D9E9E;" d="M350.699,361.761c0.029,0.794,0.05,1.597,0.05,2.398l0,0c0,42.212-39.597,81.129-87.995,81.129l0,0
	c-48.397,0-87.995-38.918-87.995-81.129l0,0c0-0.802,0.018-1.6,0.047-2.398c-0.029-0.482-0.047-0.964-0.047-1.45V219.895
	l25.992-6.905l13.505,6.905V360.06l0.083,1.288l-0.054,1.482c-0.018,0.442-0.029,0.889-0.029,1.327
	c0,23.197,21.902,42.302,48.499,42.302s48.499-19.101,48.499-42.302c0-0.442-0.014-0.889-0.029-1.327l-0.05-1.482l0.083-1.288
	V219.895l25.988-6.905l13.508,6.905v140.417c0,0.485-0.018,0.971-0.05,1.45H350.699z"/>
<path style="fill:#12B589;" d="M200.744,251.112v-38.126l13.505,6.905v36.547L200.744,251.112z M337.238,251.112v-38.126
	l13.508,6.905v36.547L337.238,251.112z"/>
<path style="fill:#C5C6C6;" d="M337.194,354.856c0.029,0.794,0.05,1.593,0.05,2.398l0,0c0,42.212-39.597,82.589-87.995,82.589l0,0
	c-48.397,0-87.995-40.378-87.995-82.589l0,0c0-0.802,0.018-1.6,0.047-2.398c-0.029-0.482-0.047-0.964-0.047-1.453V212.986h39.496
	v140.165l0.083,1.288l-0.054,1.482c-0.018,0.446-0.029,0.889-0.029,1.331c0,23.197,21.902,42.302,48.499,42.302
	s48.499-19.101,48.499-42.302c0-0.446-0.014-0.889-0.029-1.331l-0.05-1.482l0.083-1.288V212.986h39.496v140.417
	c0,0.489-0.018,0.971-0.05,1.453h-0.004V354.856z"/>
<path style="fill:#00CC96;" d="M161.247,251.112v-38.126h39.496v38.126H161.247z M297.744,251.112v-38.126h39.493v38.126H297.744z"
	/>
<path style="fill:#E84F4F;" d="M256.112,157.101h-1.205v57.342c0,3.686-3.201,6.758-7.038,6.758h-1.759
	c-3.841,0-8.7-3.043-8.7-6.758V157.87l-11.11,0.022V99.554c0-15.579,13.814-11.976,20.37-16.073c1.917-1.198,2.15-3.952,2.431-7.042
	c-4.002-3.072-6.7-8.43-6.7-13.199v-4.41c0-7.178,6.118-13.048,13.594-13.048l0,0l0.115,0.004l0.115-0.004l0,0
	c7.481,0,13.594,5.873,13.594,13.048v4.41c0,4.765-2.698,10.127-6.7,13.199c0.28,3.089,0.51,5.845,2.431,7.042
	c6.556,4.096,20.37,0.518,20.37,16.073v58.339l-11.11-0.022v56.572c0,3.69-4.862,6.758-8.7,6.758h-1.759
	c-3.841,0-7.038-3.043-7.038-6.758v-57.342L256.112,157.101L256.112,157.101z"/>
<path style="fill:#C94545;" d="M256.112,157.101h-0.144V45.786h0.029l0,0l0.115,0.004l0.115-0.004l0,0
	c7.481,0,13.594,5.873,13.594,13.048v4.41c0,4.765-2.698,10.127-6.7,13.199c0.28,3.089,0.51,5.845,2.431,7.042
	c6.556,4.096,20.37,0.518,20.37,16.073v58.339l-11.11-0.022v56.572c0,3.69-4.862,6.758-8.7,6.758h-1.759
	c-3.841,0-7.038-3.043-7.038-6.758v-57.342h-1.205L256.112,157.101L256.112,157.101z"/>
<path style="fill:#F7F7F8;" d="M266.722,240.672l-8.876,43.525l19.507-1.306l-32.081,59.654l8.876-43.525l-19.504,1.309
	L266.722,240.672z"/>
<path style="fill:#FFD630;" d="M337.115,149.868h-0.835v39.77c0,2.558-2.219,4.686-4.884,4.686h-1.219
	c-2.662,0-6.035-2.107-6.035-4.686v-39.234l-7.704,0.018v-40.461c0-10.804,9.581-8.304,14.127-11.146
	c1.331-0.835,1.493-2.741,1.683-4.884c-2.777-2.129-4.647-5.848-4.647-9.153v-3.057c0-4.977,4.241-9.053,9.427-9.053l0,0
	l0.083,0.004l0.083-0.004l0,0c5.186,0,9.427,4.071,9.427,9.053v3.057c0,3.305-1.87,7.024-4.647,9.153
	c0.194,2.143,0.352,4.053,1.683,4.884c4.546,2.838,14.127,0.359,14.127,11.146v40.461l-7.704-0.018v39.234
	c0,2.561-3.373,4.686-6.035,4.686h-1.219c-2.665,0-4.884-2.111-4.884-4.686v-39.77h-0.835L337.115,149.868L337.115,149.868z"/>
<path style="fill:#F5BE18;" d="M337.115,149.868h-0.101V72.666h0.018l0,0l0.083,0.004l0.083-0.004l0,0
	c5.186,0,9.427,4.071,9.427,9.053v3.057c0,3.305-1.87,7.024-4.647,9.153c0.194,2.143,0.352,4.053,1.683,4.884
	c4.546,2.838,14.127,0.359,14.127,11.146v40.461l-7.704-0.018v39.234c0,2.561-3.373,4.686-6.035,4.686h-1.219
	c-2.665,0-4.884-2.111-4.884-4.686v-39.77h-0.835L337.115,149.868z"/>
<path style="fill:#FFD630;" d="M175.112,149.868h-0.835v39.77c0,2.558-2.219,4.686-4.884,4.686h-1.219
	c-2.662,0-6.035-2.107-6.035-4.686v-39.234l-7.704,0.018v-40.461c0-10.804,9.581-8.304,14.127-11.146
	c1.331-0.835,1.493-2.741,1.683-4.884c-2.777-2.129-4.647-5.848-4.647-9.153v-3.057c0-4.977,4.241-9.053,9.427-9.053l0,0
	l0.083,0.004l0.083-0.004l0,0c5.186,0,9.427,4.071,9.427,9.053v3.057c0,3.305-1.87,7.024-4.647,9.153
	c0.194,2.143,0.352,4.053,1.683,4.884c4.546,2.838,14.127,0.359,14.127,11.146v40.461l-7.704-0.018v39.234
	c0,2.561-3.373,4.686-6.035,4.686h-1.219c-2.665,0-4.884-2.111-4.884-4.686v-39.77h-0.835L175.112,149.868L175.112,149.868z"/>
<path style="fill:#F5BE18;" d="M175.112,149.868h-0.101V72.666h0.018l0,0l0.083,0.004l0.083-0.004l0,0
	c5.186,0,9.427,4.071,9.427,9.053v3.057c0,3.305-1.87,7.024-4.647,9.153c0.194,2.143,0.352,4.053,1.683,4.884
	c4.546,2.838,14.127,0.359,14.127,11.146v40.461l-7.704-0.018v39.234c0,2.561-3.373,4.686-6.035,4.686h-1.219
	c-2.665,0-4.884-2.111-4.884-4.686v-39.77h-0.835L175.112,149.868z"/>
<g>
</g>
<g>
</g>
<g>
</g>
<g>
</g>
<g>
</g>
<g>
</g>
<g>
</g>
<g>
</g>
<g>
</g>
<g>
</g>
<g>
</g>
<g>
</g>
<g>
</g>
<g>
</g>
<g>
</g>
</svg>
