<?xml version="1.0" encoding="iso-8859-1"?>
<!-- Generator: Adobe Illustrator 19.0.0, SVG Export Plug-In . SVG Version: 6.00 Build 0)  -->
<svg version="1.1" id="Layer_1" xmlns="http://www.w3.org/2000/svg" xmlns:xlink="http://www.w3.org/1999/xlink" x="0px" y="0px"
	 viewBox="0 0 512 512" style="enable-background:new 0 0 512 512;" xml:space="preserve">
<path style="fill:#70E5CF;" d="M492.109,245.771c0,130.407-105.71,236.117-236.104,236.117c-8.769,0-17.423-0.477-25.934-1.419
	c-26.708-2.915-52.062-10.291-75.34-21.356l-83.452,43.215l14.431-93.021C44.958,366.88,19.901,309.26,19.901,245.771
	c0-130.394,105.698-236.104,236.104-236.104c32.395,0,63.256,6.525,91.344,18.326C432.387,63.702,492.109,147.76,492.109,245.771z"
	/>
<path style="fill:#35D8B9;" d="M107.738,483.449l11.502-74.14C78.488,366.88,53.431,309.26,53.431,245.771
	c0-124.758,96.763-226.907,219.344-235.505c-5.54-0.389-11.131-0.6-16.77-0.6c-130.407,0-236.104,105.71-236.104,236.104
	c0,63.488,25.057,121.109,65.81,163.537l-14.431,93.021L107.738,483.449z"/>
<path style="fill:#70E5CF;" d="M263.601,480.47c-26.708-2.915-52.062-10.291-75.34-21.356l-15.092,7.815
	c18.026,6.756,37.091,11.378,56.902,13.541c8.512,0.941,17.165,1.419,25.934,1.419c5.665,0,11.28-0.213,16.846-0.605
	C269.753,481.066,266.664,480.809,263.601,480.47z"/>
<g>
	<circle style="fill:#E6E6E6;" cx="256.004" cy="121.921" r="41.539"/>
	<polygon style="fill:#E6E6E6;" points="292.072,367.413 292.072,231.291 292.072,199.148 219.929,199.148 199.244,199.148 
		199.244,231.291 219.929,231.291 219.929,367.413 199.244,367.413 199.244,399.555 219.929,399.555 292.072,399.555 
		312.758,399.555 312.758,367.413 	"/>
</g>
<g>
	<path style="fill:#333333;" d="M75.429,412.503l-13.707,88.342c-0.558,3.601,0.953,7.208,3.91,9.336
		c1.677,1.207,3.657,1.82,5.647,1.82c1.52,0,3.046-0.357,4.447-1.083l79.241-41.036c31.825,14.386,65.788,21.675,101.032,21.675
		c135.521,0,245.778-110.255,245.778-245.778C501.778,110.255,391.523,0,256,0S10.223,110.255,10.223,245.778
		C10.223,307.949,33.344,366.964,75.429,412.503z M256,19.344c124.855,0,226.433,101.577,226.433,226.433
		S380.856,472.211,256,472.211c-33.973,0-66.646-7.347-97.114-21.835c-2.731-1.3-5.914-1.244-8.6,0.146l-66.524,34.45l11.51-74.177
		c0.463-2.982-0.493-6.007-2.582-8.184c-40.704-42.373-63.121-98.072-63.121-156.835C29.568,120.922,131.145,19.344,256,19.344z"/>
	<path style="fill:#333333;" d="M256,173.124c28.238,0,51.208-22.972,51.208-51.208c0-28.238-22.972-51.208-51.208-51.208
		s-51.208,22.972-51.208,51.208C204.792,150.152,227.764,173.124,256,173.124z M256,90.052c17.571,0,31.864,14.294,31.864,31.864
		S273.57,153.78,256,153.78c-17.57,0-31.864-14.294-31.864-31.864C224.136,104.346,238.43,90.052,256,90.052z"/>
	<path style="fill:#333333;" d="M199.244,409.227h113.514c5.342,0,9.672-4.331,9.672-9.672v-32.143c0-5.342-4.331-9.672-9.672-9.672
		h-11.013V199.148c0-5.342-4.331-9.672-9.672-9.672h-92.828c-5.342,0-9.672,4.331-9.672,9.672v32.143
		c0,5.342,4.331,9.672,9.672,9.672h11.013v116.777h-11.013c-5.342,0-9.672,4.331-9.672,9.672v32.143
		C189.571,404.897,193.902,409.227,199.244,409.227z M208.916,377.085h11.013c5.342,0,9.672-4.331,9.672-9.672V231.291
		c0-5.342-4.331-9.672-9.672-9.672h-11.013v-12.798H282.4v158.593c0,5.342,4.331,9.672,9.672,9.672h11.013v12.798h-94.17
		L208.916,377.085L208.916,377.085z"/>
</g>
<g>
</g>
<g>
</g>
<g>
</g>
<g>
</g>
<g>
</g>
<g>
</g>
<g>
</g>
<g>
</g>
<g>
</g>
<g>
</g>
<g>
</g>
<g>
</g>
<g>
</g>
<g>
</g>
<g>
</g>
</svg>
