<svg xmlns="http://www.w3.org/2000/svg" width="128" height="128" viewBox="0 0 32 32"><defs><path id="f2235id0" fill="#fff" d="M-6.627 16L16-6.627L38.627 16L16 38.627z"/></defs><g fill="none"><g clip-path="url(#f2235idn)"><g clip-path="url(#f2235ido)"><path fill="url(#f2235id1)" d="M25.897 25.899c6.6-6.6 5.467-14.33 0-19.798S12.7-.499 6.1 6.101S.633 20.431 6.1 25.9s13.197 6.6 19.797 0"/><path fill="url(#f2235id2)" d="M25.897 25.899c6.6-6.6 5.467-14.33 0-19.798S12.7-.499 6.1 6.101S.633 20.431 6.1 25.9s13.197 6.6 19.797 0"/><path fill="url(#f2235id3)" d="M25.897 25.899c6.6-6.6 5.467-14.33 0-19.798S12.7-.499 6.1 6.101S.633 20.431 6.1 25.9s13.197 6.6 19.797 0"/><path fill="url(#f2235id4)" fill-opacity="0.6" d="M25.897 25.899c6.6-6.6 5.467-14.33 0-19.798S12.7-.499 6.1 6.101S.633 20.431 6.1 25.9s13.197 6.6 19.797 0"/><path fill="url(#f2235id5)" d="M25.897 25.899c6.6-6.6 5.467-14.33 0-19.798S12.7-.499 6.1 6.101S.633 20.431 6.1 25.9s13.197 6.6 19.797 0"/><path fill="url(#f2235id6)" d="M25.897 25.899c6.6-6.6 5.467-14.33 0-19.798S12.7-.499 6.1 6.101S.633 20.431 6.1 25.9s13.197 6.6 19.797 0"/><path fill="url(#f2235id7)" d="M25.897 25.899c6.6-6.6 5.467-14.33 0-19.798S12.7-.499 6.1 6.101S.633 20.431 6.1 25.9s13.197 6.6 19.797 0"/><path fill="url(#f2235id8)" d="M25.897 25.899c6.6-6.6 5.467-14.33 0-19.798S12.7-.499 6.1 6.101S.633 20.431 6.1 25.9s13.197 6.6 19.797 0"/></g><g clip-path="url(#f2235idp)"><g filter="url(#f2235idr)"><path fill="url(#f2235id9)" fill-opacity="0.6" d="M10.184 19.45a1 1 0 0 1-1.897-.632l.78-2.34l2.291-2.292a1 1 0 0 1 .24 1.022z"/><path fill="url(#f2235ida)" fill-opacity="0.6" d="M6.094 15.36a1 1 0 0 0 .632 1.898l2.34-.78l2.292-2.292a1 1 0 0 0-1.021-.24z"/></g><path fill="url(#f2235idi)" d="M9.875 19.141a1 1 0 0 1-1.898-.632l.78-2.34l2.292-2.292a1 1 0 0 1 .24 1.022z"/><path fill="url(#f2235idj)" d="M5.784 15.051a1 1 0 0 0 .633 1.898l2.34-.78l2.292-2.292a1 1 0 0 0-1.022-.24z"/><g filter="url(#f2235ids)"><path fill="url(#f2235idb)" d="M19.03 10.604a1 1 0 0 0-.632-1.898l-2.34.78l-2.291 2.292a1 1 0 0 0 1.021.24z"/><path fill="url(#f2235idc)" d="M14.94 6.514a1 1 0 0 1 1.898.632l-.78 2.34l-2.291 2.292a1 1 0 0 1-.24-1.022z"/></g><path fill="url(#f2235idk)" d="M19.13 9.885a1 1 0 0 0-.632-1.897l-2.34.78l-2.292 2.292a1 1 0 0 0 1.022.24z"/><path fill="url(#f2235idl)" d="M15.04 5.795a1 1 0 0 1 1.898.633l-.78 2.34l-2.292 2.292a1 1 0 0 1-.24-1.022z"/></g><path fill="url(#f2235idd)" d="M23.071 23.071c-7.071 7.071-14.142 0-14.142 0L23.071 8.929s7.071 7.071 0 14.142"/><path fill="url(#f2235idm)" d="M22.364 11.757L11.757 22.364a1.5 1.5 0 0 1-2.121 0L22.364 9.636a1.5 1.5 0 0 1 0 2.121"/><g clip-path="url(#f2235idq)"><path fill="url(#f2235ide)" fill-rule="evenodd" d="M10.741 29.214a2.12 2.12 0 0 0 1.723-2.084v-4.766a2.121 2.121 0 1 0-4.242 0v4.766q.001.35.107.666q1.166.834 2.412 1.418" clip-rule="evenodd"/><path fill="url(#f2235idf)" fill-rule="evenodd" d="M27.314 7.692h-4.42a2.121 2.121 0 1 0 0 4.242h4.766c.701 0 1.318-.339 1.703-.857a15.4 15.4 0 0 0-2.049-3.385" clip-rule="evenodd"/><path fill="url(#f2235idg)" d="M11.05 22.364v4.766a2.121 2.121 0 1 1-4.242 0v-4.766a2.121 2.121 0 1 1 4.242 0"/><path fill="url(#f2235idh)" d="M22.54 10.874h4.766a2.121 2.121 0 0 0 0-4.243h-4.765a2.121 2.121 0 1 0 0 4.243"/></g></g><defs><radialGradient id="f2235id1" cx="0" cy="0" r="1" gradientTransform="rotate(87.839 6.634 11.392)scale(37.5033)" gradientUnits="userSpaceOnUse"><stop stop-color="#fff478"/><stop offset=".475" stop-color="#ffb02e"/><stop offset="1" stop-color="#f70a8d"/></radialGradient><radialGradient id="f2235id2" cx="0" cy="0" r="1" gradientTransform="rotate(86.878 6.596 11.548)scale(38.9487)" gradientUnits="userSpaceOnUse"><stop stop-color="#fff478"/><stop offset=".475" stop-color="#ffb02e"/><stop offset="1" stop-color="#f70a8d"/></radialGradient><radialGradient id="f2235id3" cx="0" cy="0" r="1" gradientTransform="matrix(9.89952 14.84926 -19.01908 12.6794 13.525 13.525)" gradientUnits="userSpaceOnUse"><stop offset=".788" stop-color="#f59639" stop-opacity="0"/><stop offset=".973" stop-color="#ff7dce"/></radialGradient><radialGradient id="f2235id4" cx="0" cy="0" r="1" gradientTransform="rotate(90 1.414 14.586)scale(41.0122)" gradientUnits="userSpaceOnUse"><stop offset=".315" stop-opacity="0"/><stop offset="1"/></radialGradient><radialGradient id="f2235id5" cx="0" cy="0" r="1" gradientTransform="rotate(32.692 -20.129 36.835)scale(28.1469)" gradientUnits="userSpaceOnUse"><stop offset=".508" stop-color="#7d6133" stop-opacity="0"/><stop offset="1" stop-color="#715b32"/></radialGradient><radialGradient id="f2235id6" cx="0" cy="0" r="1" gradientTransform="matrix(13.08145 2.47486 -1.79391 9.48212 16.707 16)" gradientUnits="userSpaceOnUse"><stop stop-color="#ffb849"/><stop offset="1" stop-color="#ffb847" stop-opacity="0"/></radialGradient><radialGradient id="f2235id7" cx="0" cy="0" r="1" gradientTransform="rotate(-35.134 32.776 -25.412)scale(11.6726)" gradientUnits="userSpaceOnUse"><stop stop-color="#ffa64b"/><stop offset=".9" stop-color="#ffae46" stop-opacity="0"/></radialGradient><radialGradient id="f2235id8" cx="0" cy="0" r="1" gradientTransform="rotate(-1.029 800.496 -903.298)scale(59.0529)" gradientUnits="userSpaceOnUse"><stop offset=".185" stop-opacity="0"/><stop offset="1" stop-opacity="0.4"/></radialGradient><radialGradient id="f2235id9" cx="0" cy="0" r="1" gradientTransform="matrix(3.18196 6.8943 -9.01085 4.15883 6.255 15.05)" gradientUnits="userSpaceOnUse"><stop stop-color="#9f5e0f"/><stop offset=".889" stop-color="#9f5e0f" stop-opacity="0"/></radialGradient><radialGradient id="f2235ida" cx="0" cy="0" r="1" gradientTransform="matrix(3.18196 6.8943 -9.01085 4.15883 6.255 15.05)" gradientUnits="userSpaceOnUse"><stop stop-color="#9f5e0f"/><stop offset=".889" stop-color="#9f5e0f" stop-opacity="0"/></radialGradient><radialGradient id="f2235idb" cx="0" cy="0" r="1" gradientTransform="matrix(-13.35769 .232 -.30321 -17.45847 23.259 7.946)" gradientUnits="userSpaceOnUse"><stop stop-color="#e9830a"/><stop offset=".802" stop-color="#f08b13" stop-opacity="0"/></radialGradient><radialGradient id="f2235idc" cx="0" cy="0" r="1" gradientTransform="matrix(-13.35769 .232 -.30321 -17.45847 23.259 7.946)" gradientUnits="userSpaceOnUse"><stop stop-color="#e9830a"/><stop offset=".802" stop-color="#f08b13" stop-opacity="0"/></radialGradient><radialGradient id="f2235idd" cx="0" cy="0" r="1" gradientTransform="rotate(-135 18.842 8.012)scale(16.9706 33.9411)" gradientUnits="userSpaceOnUse"><stop offset=".051" stop-color="#f70a8d"/><stop offset="1" stop-color="#89029c"/></radialGradient><radialGradient id="f2235ide" cx="0" cy="0" r="1" gradientTransform="matrix(1.06066 -4.5962 2.98353 .6885 9.99 26.96)" gradientUnits="userSpaceOnUse"><stop stop-color="#6d4534"/><stop offset="1" stop-color="#ff822d" stop-opacity="0"/></radialGradient><radialGradient id="f2235idf" cx="0" cy="0" r="1" gradientTransform="matrix(5.3033 -1.06067 .6885 3.44252 23.071 9.636)" gradientUnits="userSpaceOnUse"><stop stop-color="#6d4534"/><stop offset="1" stop-color="#ff822d" stop-opacity="0"/></radialGradient><radialGradient id="f2235idg" cx="0" cy="0" r="1" gradientTransform="rotate(102.529 -3.585 14.34)scale(6.5192 2.96814)" gradientUnits="userSpaceOnUse"><stop stop-color="#508fff"/><stop offset="1" stop-color="#3d5bf1"/></radialGradient><radialGradient id="f2235idh" cx="0" cy="0" r="1" gradientTransform="matrix(4.5962 .35355 -.16097 2.0926 23.778 7.515)" gradientUnits="userSpaceOnUse"><stop stop-color="#5092ff"/><stop offset="1" stop-color="#3f5fff"/></radialGradient><linearGradient id="f2235idi" x1="11.27" x2="5.668" y1="18.937" y2="16.982" gradientUnits="userSpaceOnUse"><stop offset=".25" stop-color="#482641"/><stop offset=".406" stop-color="#503a4a"/><stop offset=".511" stop-color="#482641"/></linearGradient><linearGradient id="f2235idj" x1="7.513" x2="5.889" y1="17.611" y2="12.607" gradientUnits="userSpaceOnUse"><stop offset=".25" stop-color="#482641"/><stop offset=".406" stop-color="#503a4a"/><stop offset=".511" stop-color="#482641"/></linearGradient><linearGradient id="f2235idk" x1="18.926" x2="16.971" y1="11.281" y2="5.679" gradientUnits="userSpaceOnUse"><stop offset=".25" stop-color="#482641"/><stop offset=".406" stop-color="#503a4a"/><stop offset=".511" stop-color="#482641"/></linearGradient><linearGradient id="f2235idl" x1="17.601" x2="12.596" y1="7.524" y2="5.9" gradientUnits="userSpaceOnUse"><stop offset=".25" stop-color="#482641"/><stop offset=".406" stop-color="#503a4a"/><stop offset=".511" stop-color="#482641"/></linearGradient><linearGradient id="f2235idm" x1="16" x2="17.061" y1="16" y2="17.061" gradientUnits="userSpaceOnUse"><stop stop-color="#eccdff"/><stop offset="1" stop-color="#fff"/></linearGradient><clipPath id="f2235idn"><path fill="#fff" d="M0 0h32v32H0z"/></clipPath><clipPath id="f2235ido"><use href="#f2235id0"/></clipPath><clipPath id="f2235idp"><use href="#f2235id0"/></clipPath><clipPath id="f2235idq"><use href="#f2235id0"/></clipPath><filter id="f2235idr" width="7.24" height="7.24" x="4.91" y="13.395" color-interpolation-filters="sRGB" filterUnits="userSpaceOnUse"><feFlood flood-opacity="0" result="BackgroundImageFix"/><feBlend in="SourceGraphic" in2="BackgroundImageFix" result="shape"/><feGaussianBlur result="effect1_foregroundBlur_23_372" stdDeviation=".25"/></filter><filter id="f2235ids" width="7.239" height="7.24" x="12.975" y="5.33" color-interpolation-filters="sRGB" filterUnits="userSpaceOnUse"><feFlood flood-opacity="0" result="BackgroundImageFix"/><feBlend in="SourceGraphic" in2="BackgroundImageFix" result="shape"/><feGaussianBlur result="effect1_foregroundBlur_23_372" stdDeviation=".25"/></filter></defs></g></svg>