<svg xmlns="http://www.w3.org/2000/svg" width="128" height="128" viewBox="0 0 24 24"><path fill="lightgray" d="M14.73 16.23v-2.057q0-.191.126-.317q.125-.125.316-.125t.317.125t.126.317v2.135q0 .343-.232.575t-.575.233h-2.135q-.192 0-.317-.126q-.125-.125-.125-.316t.125-.317t.317-.126zM9.27 7.77v2.057q0 .192-.126.317q-.125.125-.316.125t-.317-.125t-.126-.317V7.692q0-.343.232-.575t.575-.233h2.135q.192 0 .317.126q.125.125.125.316t-.125.317t-.317.126zM7.615 22q-.691 0-1.153-.462T6 20.385V3.615q0-.69.463-1.152T7.616 2h8.769q.69 0 1.152.463T18 3.616v16.769q0 .69-.462 1.153T16.384 22zM7 18.5h10v-13H7z"/></svg>