<?xml version="1.0" encoding="iso-8859-1"?>
<!-- Generator: Adobe Illustrator 19.0.0, SVG Export Plug-In . SVG Version: 6.00 Build 0)  -->
<svg version="1.1" id="Layer_1" xmlns="http://www.w3.org/2000/svg" xmlns:xlink="http://www.w3.org/1999/xlink" x="0px" y="0px"
	 viewBox="0 0 512 512" style="enable-background:new 0 0 512 512;" xml:space="preserve">
<path style="fill:#F2C500;" d="M491.784,419.452H20.216C9.051,419.452,0,410.401,0,399.237V321.95
	c0-11.164,9.051-20.216,20.216-20.216c25.218,0,45.734-20.516,45.734-45.734c0-25.218-20.516-45.733-45.734-45.733
	C9.051,210.267,0,201.216,0,190.051v-77.287C0,101.6,9.051,92.549,20.216,92.549h471.569c11.164,0,20.216,9.051,20.216,20.216
	v77.338c0,10.922-8.675,19.869-19.592,20.206c-58.608,1.81-58.746,89.57,0,91.385C503.325,302.031,512,310.978,512,321.9v77.338
	C512,410.401,502.949,419.452,491.784,419.452z"/>
<path style="fill:#F59D00;" d="M492.408,210.309c10.916-0.337,19.592-9.284,19.592-20.206v-77.338
	c0-11.164-9.051-20.216-20.216-20.216H203.176v326.903h288.608c11.164,0,20.216-9.051,20.216-20.216v-77.338
	c0-10.922-8.675-19.869-19.592-20.206C433.801,299.883,433.663,212.123,492.408,210.309z"/>
<rect x="162.749" y="92.548" style="fill:#E87E04;" width="40.431" height="326.899"/>
<g>
	<path style="fill:#808285;" d="M389.755,239.105H263.718c-11.164,0-20.216-9.051-20.216-20.216
		c0-11.164,9.051-20.216,20.216-20.216h126.037c11.164,0,20.216,9.051,20.216,20.216
		C409.971,230.054,400.919,239.105,389.755,239.105z"/>
	<path style="fill:#808285;" d="M389.755,313.327H263.718c-11.164,0-20.216-9.051-20.216-20.216s9.051-20.216,20.216-20.216h126.037
		c11.164,0,20.216,9.051,20.216,20.216S400.919,313.327,389.755,313.327z"/>
</g>
<g>
</g>
<g>
</g>
<g>
</g>
<g>
</g>
<g>
</g>
<g>
</g>
<g>
</g>
<g>
</g>
<g>
</g>
<g>
</g>
<g>
</g>
<g>
</g>
<g>
</g>
<g>
</g>
<g>
</g>
</svg>
