<?xml version="1.0" encoding="iso-8859-1"?>
<!-- Generator: Adobe Illustrator 19.0.0, SVG Export Plug-In . SVG Version: 6.00 Build 0)  -->
<svg version="1.1" id="Layer_1" xmlns="http://www.w3.org/2000/svg" xmlns:xlink="http://www.w3.org/1999/xlink" x="0px" y="0px"
	 viewBox="0 0 480 480" style="enable-background:new 0 0 480 480;" xml:space="preserve">
<path style="fill:#E07940;" d="M408,160c0-13.256-10.744-24-24-24H96c-13.256,0-24,10.744-24,24v160c0,13.256,10.744,24,24,24h288
	c13.256,0,24-10.744,24-24V160z M288,328H112v-16h176V328z M264,256v16h-28.328c-8.792,8-21.504,16-35.672,16s-26.88-8-35.68-16H136
	v-16h18.8c-1.776-8-2.8-8-2.8-16h-32v-16h34.8c6.608-16,24.352-32,45.2-32s38.592,16,45.2,32H280v16h-32c0,8-1.024,8-2.8,16H264z
	 M288,168H112v-16h176V168z M336,327.808h-16v-16h16V327.808z M336,295.808h-16v-16h16V295.808z M336,263.808h-16v-16h16V263.808z
	 M336,231.808h-16v-16h16V231.808z M336,199.808h-16v-16h16V199.808z M336,167.808h-16v-16h16V167.808z M392,312h-40v-16h40V312z
	 M392,280h-40v-16h40V280z M392,248h-40v-16h40V248z M392,216h-40v-16h40V216z M392,184h-40v-16h40V184z"/>
<circle style="fill:#DA544A;" cx="200" cy="239.808" r="32"/>
<path style="fill:#9CD9F1;" d="M464,120.824V104H16v16.824c16,3.552,24,16.104,24,30.984s-8,27.432-24,30.984v24.296
	c16,3.552,24,16.104,24,30.984c0,14.88-8,27.432-24,30.984v24.296c16,3.552,24,16.104,24,30.984s-8,27.432-24,30.984V376h448
	v-20.672c-16-3.552-24-16.104-24-30.984s8-27.432,24-30.984v-24.296c-16-3.552-24-16.104-24-30.984c0-14.88,8-27.432,24-30.984
	V182.8c-16-3.552-24-16.104-24-30.984S448,124.384,464,120.824z M424,320c0,22.088-17.912,40-40,40H96c-22.088,0-40-17.912-40-40
	V160c0-22.088,17.912-40,40-40h288c22.088,0,40,17.912,40,40V320z"/>
<g>
	<path style="fill:#334C5B;" d="M472,135.808c4.416,0,8-3.576,8-8v-32c0-4.416-3.584-7.808-8-7.808H8c-4.416,0-8,3.392-8,7.808v32
		c0,4.424,3.584,8,8,8c8.824,0,16,7.176,16,16c0,8.816-7.176,16-16,16c-4.416,0-8,3.576-8,8v38.264c0,4.424,3.584,8,8,8
		c8.824,0,16,7.176,16,16c0,8.816-7.176,16-16,16c-4.416,0-8,3.576-8,8v38.264c0,4.424,3.584,8,8,8c8.824,0,16,7.176,16,16
		c0,8.816-7.176,16-16,16c-4.416,0-8,3.576-8,8v35.472C0,388.232,3.584,392,8,392h464c4.416,0,8-3.768,8-8.192v-35.472
		c0-4.424-3.584-8-8-8c-8.824,0-16-7.184-16-16c0-8.824,7.176-16,16-16c4.416,0,8-3.576,8-8V262.08c0-4.424-3.584-8-8-8
		c-8.824,0-16-7.184-16-16c0-8.824,7.176-16,16-16c4.416,0,8-3.576,8-8v-38.264c0-4.424-3.584-8-8-8c-8.824,0-16-7.184-16-16
		C456,142.992,463.176,135.808,472,135.808z M464,182.792v24.296c-16,3.552-24,16.104-24,30.984s8,27.432,24,30.984v24.296
		c-16,3.552-24,16.104-24,30.984s8,27.432,24,30.984V376H16v-20.672c16-3.552,24-16.104,24-30.984s-8-27.432-24-30.984v-24.296
		c16-3.552,24-16.104,24-30.984c0-14.88-8-27.432-24-30.984V182.8c16-3.552,24-16.104,24-30.984s-8-27.432-24-30.984V104h448v16.824
		c-16,3.552-24,16.104-24,30.984S448,179.24,464,182.792z"/>
	<path style="fill:#334C5B;" d="M424,160c0-22.088-17.912-40-40-40H96c-22.088,0-40,17.912-40,40v160c0,22.088,17.912,40,40,40h288
		c22.088,0,40-17.912,40-40V160z M408,320c0,13.256-10.744,24-24,24H96c-13.256,0-24-10.744-24-24V160c0-13.256,10.744-24,24-24h288
		c13.256,0,24,10.744,24,24V320z"/>
	<rect x="320" y="151.808" style="fill:#334C5B;" width="16" height="16"/>
	<rect x="320" y="183.808" style="fill:#334C5B;" width="16" height="16"/>
	<rect x="320" y="215.808" style="fill:#334C5B;" width="16" height="16"/>
	<rect x="320" y="247.808" style="fill:#334C5B;" width="16" height="16"/>
	<rect x="320" y="279.808" style="fill:#334C5B;" width="16" height="16"/>
	<rect x="320" y="311.808" style="fill:#334C5B;" width="16" height="16"/>
	<rect x="352" y="168" style="fill:#334C5B;" width="40" height="16"/>
	<rect x="352" y="200" style="fill:#334C5B;" width="40" height="16"/>
	<rect x="352" y="232" style="fill:#334C5B;" width="40" height="16"/>
	<rect x="352" y="264" style="fill:#334C5B;" width="40" height="16"/>
	<rect x="352" y="296" style="fill:#334C5B;" width="40" height="16"/>
	<rect x="112" y="152" style="fill:#334C5B;" width="176" height="16"/>
	<rect x="112" y="312" style="fill:#334C5B;" width="176" height="16"/>
	<path style="fill:#334C5B;" d="M280,240v-16h-34.8c-6.608-16-24.352-32-45.2-32s-38.592,16-45.2,32H120v16h32c0,8,1.024,8,2.8,16
		H136v16h28.32c8.792,8,21.504,16,35.68,16s26.88-8,35.672-16H264v-16h-18.8c1.776-8,2.8-8,2.8-16H280z M200,271.808
		c-17.648,0-32-14.352-32-32s14.352-32,32-32s32,14.352,32,32S217.648,271.808,200,271.808z"/>
</g>
<g>
</g>
<g>
</g>
<g>
</g>
<g>
</g>
<g>
</g>
<g>
</g>
<g>
</g>
<g>
</g>
<g>
</g>
<g>
</g>
<g>
</g>
<g>
</g>
<g>
</g>
<g>
</g>
<g>
</g>
</svg>
