<?xml version="1.0" encoding="iso-8859-1"?>
<!-- Generator: Adobe Illustrator 19.0.0, SVG Export Plug-In . SVG Version: 6.00 Build 0)  -->
<svg version="1.1" id="Layer_1" xmlns="http://www.w3.org/2000/svg" xmlns:xlink="http://www.w3.org/1999/xlink" x="0px" y="0px"
	 viewBox="0 0 512 512" style="enable-background:new 0 0 512 512;" xml:space="preserve">
<path style="fill:#FFED84;" d="M80.334,269.386c0-5.264,3.68-9.812,8.828-10.908c10.719-2.284,18.498-11.916,18.498-22.902
	c0-6.16,4.994-11.154,11.153-11.154h312.853v-92.641c0-5.263-3.68-9.812-8.828-10.908c-10.719-2.285-18.498-11.916-18.498-22.902
	c0-6.161-4.994-11.153-11.153-11.153H46.316c-6.16,0-11.153,4.993-11.153,11.153c0,10.986-7.779,20.618-18.498,22.902
	c-5.148,1.097-8.828,5.645-8.828,10.908v110.833c0,5.263,3.679,9.812,8.828,10.908c10.718,2.284,18.498,11.916,18.498,22.902
	c0,6.161,4.994,11.154,11.153,11.154h34.018V269.386z"/>
<path style="fill:#F9EEB7;" d="M89.162,258.478c10.719-2.284,18.498-11.916,18.498-22.902c0-6.16,4.994-11.154,11.153-11.154
	h259.874V118.605c0-3.067-2.51-5.577-5.578-5.577H66.392c-3.067,0-5.577,2.509-5.577,5.577v137.187c0,3.068,2.51,5.577,5.577,5.577
	h17.356C85.209,259.956,87.06,258.927,89.162,258.478z"/>
<path style="opacity:0.1;enable-background:new    ;" d="M84.945,260.358c-1.444-1.01-2.398-2.68-2.398-4.566V118.605
	c0-3.067,2.51-5.577,5.577-5.577H66.392c-3.067,0-5.577,2.509-5.577,5.577v137.187c0,3.068,2.51,5.577,5.577,5.577h17.356
	C84.123,261.006,84.521,260.667,84.945,260.358z"/>
<path style="fill:#FFED84;" d="M118.813,425.184c-6.161,0-11.153-4.993-11.153-11.153c0-10.986-7.779-20.617-18.498-22.902
	c-5.148-1.097-8.828-5.645-8.828-10.908V269.386c0-5.264,3.68-9.812,8.828-10.908c10.719-2.284,18.498-11.916,18.498-22.902
	c0-6.16,4.994-11.154,11.153-11.154h346.871c6.16,0,11.154,4.994,11.154,11.154c0,10.986,7.778,20.618,18.497,22.902
	c5.148,1.097,8.828,5.643,8.828,10.908V380.22c0,5.263-3.68,9.812-8.828,10.908c-10.719,2.285-18.497,11.916-18.497,22.902
	c0,6.161-4.995,11.153-11.154,11.153H118.813V425.184z"/>
<path style="fill:#FF8163;" d="M127.954,224.422h14.445l32.941-32.955c5.148-5.147,7.986-11.992,7.986-19.271
	c0-7.281-2.838-14.126-7.986-19.272c-5.15-5.148-11.998-7.984-19.283-7.984c-7.285,0-14.13,2.836-19.283,7.984l-1.6,1.599
	l-1.601-1.599c-5.149-5.148-11.998-7.984-19.282-7.984c-7.285,0-14.131,2.836-19.283,7.984c-5.15,5.147-7.986,11.992-7.986,19.272
	c0,7.28,2.836,14.125,7.986,19.27L127.954,224.422z"/>
<path style="fill:#F9EEB7;" d="M451.185,393.397c0,3.068-2.509,5.577-5.577,5.577H138.889c-3.068,0-5.577-2.509-5.577-5.577V256.21
	c0-3.068,2.51-5.577,5.577-5.577h306.719c3.068,0,5.577,2.509,5.577,5.577V393.397z"/>
<path style="opacity:0.1;enable-background:new    ;" d="M154.645,393.397V256.21c0-3.068,2.51-5.577,5.577-5.577h-21.333
	c-3.068,0-5.577,2.509-5.577,5.577v137.187c0,3.068,2.51,5.577,5.577,5.577h21.333C157.155,398.973,154.645,396.465,154.645,393.397
	z"/>
<path style="fill:#FF8163;" d="M207.673,367.062c-1.4,0-2.744-0.555-3.734-1.545l-36.43-36.446
	c-5.15-5.146-7.986-11.992-7.986-19.271c0-7.279,2.836-14.125,7.986-19.272c5.15-5.148,11.998-7.983,19.283-7.983
	c7.283,0,14.131,2.835,19.28,7.983l1.602,1.6l1.6-1.6c5.151-5.148,11.996-7.983,19.281-7.983c7.284,0,14.132,2.835,19.283,7.983
	c5.148,5.148,7.986,11.993,7.986,19.272c0,7.279-2.838,14.126-7.986,19.272l-36.43,36.445
	C210.417,366.507,209.074,367.062,207.673,367.062z"/>
<path d="M311.209,381.716c4.329,0,7.837-3.509,7.837-7.837v-23.422c0-4.328-3.508-7.837-7.837-7.837s-7.837,3.509-7.837,7.837
	v23.422C303.373,378.207,306.88,381.716,311.209,381.716z"/>
<path d="M332.401,381.716c4.329,0,7.837-3.509,7.837-7.837v-23.422c0-4.328-3.508-7.837-7.837-7.837s-7.837,3.509-7.837,7.837
	v23.422C324.564,378.207,328.073,381.716,332.401,381.716z"/>
<path d="M353.591,381.716c4.329,0,7.837-3.509,7.837-7.837v-23.422c0-4.328-3.508-7.837-7.837-7.837s-7.837,3.509-7.837,7.837
	v23.422C345.755,378.207,349.263,381.716,353.591,381.716z"/>
<path d="M374.784,381.716c4.329,0,7.837-3.509,7.837-7.837v-23.422c0-4.328-3.508-7.837-7.837-7.837
	c-4.329,0-7.837,3.509-7.837,7.837v23.422C366.947,378.207,370.455,381.716,374.784,381.716z"/>
<path d="M395.976,381.716c4.329,0,7.837-3.509,7.837-7.837v-23.422c0-4.328-3.508-7.837-7.837-7.837s-7.837,3.509-7.837,7.837
	v23.422C388.139,378.207,391.647,381.716,395.976,381.716z"/>
<path d="M417.166,381.716c4.329,0,7.837-3.509,7.837-7.837v-23.422c0-4.328-3.508-7.837-7.837-7.837
	c-4.329,0-7.837,3.509-7.837,7.837v23.422C409.329,378.207,412.838,381.716,417.166,381.716z"/>
<path d="M161.97,284.984c-6.631,6.628-10.283,15.44-10.283,24.815c0,9.377,3.652,18.19,10.281,24.812L198.4,371.06
	c2.476,2.475,5.771,3.839,9.275,3.839s6.797-1.364,9.277-3.841l36.428-36.443c6.631-6.629,10.282-15.441,10.282-24.814
	c0-9.372-3.651-18.184-10.283-24.815c-6.63-6.627-15.446-10.277-24.823-10.277c-7.621,0-14.872,2.412-20.881,6.875
	c-6.008-4.463-13.26-6.875-20.882-6.875C177.414,274.708,168.598,278.358,161.97,284.984z M202.134,297.672
	c3.061,3.057,8.02,3.056,11.08-0.003l1.599-1.599c3.671-3.669,8.551-5.688,13.741-5.688c5.192,0,10.073,2.021,13.741,5.687
	c3.67,3.67,5.691,8.546,5.691,13.731c0,5.186-2.021,10.062-5.692,13.732l-34.622,34.635l-34.626-34.64
	c-3.668-3.664-5.688-8.54-5.688-13.728c0-5.187,2.021-10.062,5.689-13.73c3.67-3.668,8.55-5.688,13.741-5.688
	s10.071,2.02,13.741,5.689L202.134,297.672z"/>
<path d="M445.608,242.797H224.653c-4.328,0-7.837,3.509-7.837,7.837s3.509,7.837,7.837,7.837h45.259v132.667h-70.336
	c-4.328,0-7.837,3.509-7.837,7.837s3.509,7.837,7.837,7.837h246.033c7.396,0,13.413-6.018,13.413-13.413V256.21
	C459.022,248.814,453.004,242.797,445.608,242.797z M443.348,391.137H285.585V332.64h157.762v58.497H443.348z M443.348,316.967
	H285.585v-58.495h157.762v58.495H443.348z"/>
<path d="M169.273,391.137h-28.124V258.47h52.156c4.328,0,7.837-3.509,7.837-7.837s-3.509-7.837-7.837-7.837h-54.416
	c-7.397,0-13.413,6.018-13.413,13.413v137.187c0,7.396,6.018,13.413,13.413,13.413h30.385c4.328,0,7.837-3.509,7.837-7.837
	S173.601,391.137,169.273,391.137z"/>
<path d="M310.094,283.565h107.073c4.329,0,7.837-3.509,7.837-7.837c0-4.328-3.508-7.837-7.837-7.837H310.094
	c-4.328,0-7.837,3.509-7.837,7.837C302.258,280.057,305.765,283.565,310.094,283.565z"/>
<path d="M393.745,291.313h-60.229c-4.328,0-7.837,3.509-7.837,7.837s3.509,7.837,7.837,7.837h60.229
	c4.329,0,7.837-3.509,7.837-7.837S398.074,291.313,393.745,291.313z"/>
<path d="M344.669,130.287H237.597c-4.328,0-7.837,3.509-7.837,7.837c0,4.328,3.509,7.837,7.837,7.837H344.67
	c4.329,0,7.837-3.509,7.837-7.837C352.507,133.796,348.998,130.287,344.669,130.287z"/>
<path d="M321.247,153.71h-60.228c-4.328,0-7.837,3.509-7.837,7.837c0,4.328,3.509,7.837,7.837,7.837h60.228
	c4.329,0,7.837-3.509,7.837-7.837C329.083,157.218,325.576,153.71,321.247,153.71z"/>
<path d="M496.968,250.814c-7.123-1.518-12.294-7.927-12.294-15.238c0-10.471-8.519-18.991-18.991-18.991h-26.181v-84.804
	c0-8.906-6.323-16.717-15.032-18.573c-7.124-1.519-12.295-7.927-12.295-15.238c0-10.471-8.518-18.99-18.99-18.99h-43.144
	c-4.329,0-7.837,3.509-7.837,7.837s3.508,7.837,7.837,7.837h43.146c1.829,0,3.317,1.488,3.317,3.317
	c0,14.661,10.388,27.516,24.701,30.567c1.521,0.324,2.626,1.689,2.626,3.243v10.775h-10.009c-4.329,0-7.837,3.509-7.837,7.837
	c0,4.328,3.508,7.837,7.837,7.837h10.009v8.863h-10.009c-4.329,0-7.837,3.509-7.837,7.837s3.508,7.837,7.837,7.837h10.009v8.864
	h-10.009c-4.329,0-7.837,3.509-7.837,7.837c0,4.328,3.508,7.837,7.837,7.837h10.009v9.282h-37.305v-97.981
	c0-7.396-6.018-13.413-13.414-13.413H66.392c-7.396,0-13.413,6.018-13.413,13.413v137.188c0,7.396,6.018,13.413,13.413,13.413h6.113
	c0,0.062-0.008,0.12-0.008,0.182v10.356h-26.18c-1.829,0-3.317-1.488-3.317-3.318c0-14.661-10.387-27.516-24.701-30.566
	c-1.52-0.324-2.625-1.688-2.625-3.243v-10.774h10.009c4.328,0,7.837-3.509,7.837-7.837c0-4.328-3.509-7.837-7.837-7.837H15.673
	v-8.864h10.009c4.328,0,7.837-3.509,7.837-7.837c0-4.328-3.509-7.837-7.837-7.837H15.673v-8.864h10.009
	c4.328,0,7.837-3.509,7.837-7.837s-3.509-7.837-7.837-7.837H15.673v-8.863h10.009c4.328,0,7.837-3.509,7.837-7.837
	c0-4.328-3.509-7.837-7.837-7.837H15.673v-10.775c0-1.556,1.103-2.919,2.625-3.243c14.313-3.051,24.7-15.906,24.7-30.567
	c0-1.829,1.488-3.317,3.317-3.317h272.379c4.329,0,7.837-3.509,7.837-7.837s-3.508-7.837-7.837-7.837H46.316
	c-10.471,0-18.99,8.519-18.99,18.99c0,7.311-5.17,13.718-12.294,15.238C6.322,115.064,0,122.876,0,131.781v110.833
	c0,8.906,6.322,16.717,15.031,18.572c7.124,1.519,12.294,7.927,12.294,15.238c0,10.471,8.519,18.991,18.99,18.991h26.181v84.804
	c0,8.906,6.322,16.717,15.031,18.572c7.124,1.519,12.295,7.928,12.295,15.238c0,10.471,8.519,18.99,18.99,18.99h346.871
	c10.472,0,18.991-8.519,18.991-18.99c0-7.311,5.17-13.718,12.293-15.238c8.71-1.856,15.033-9.666,15.033-18.573V269.386
	C512,260.482,505.678,252.67,496.968,250.814z M213.089,120.865h157.762v58.497H213.089V120.865z M213.089,195.035h157.762v21.55
	h-18.345v-3.734c0-4.328-3.508-7.837-7.837-7.837c-4.329,0-7.837,3.509-7.837,7.837v3.734h-5.518v-3.734
	c0-4.328-3.508-7.837-7.837-7.837s-7.837,3.509-7.837,7.837v3.734h-5.517v-3.734c0-4.328-3.509-7.837-7.837-7.837
	c-4.329,0-7.837,3.509-7.837,7.837v3.734h-5.518v-3.734c0-4.328-3.508-7.837-7.837-7.837s-7.837,3.509-7.837,7.837v3.734h-5.517
	v-3.734c0-4.328-3.508-7.837-7.837-7.837c-4.328,0-7.837,3.509-7.837,7.837v3.734h-5.518v-3.734c0-4.328-3.509-7.837-7.837-7.837
	c-4.328,0-7.837,3.509-7.837,7.837v3.734h-17.787V195.035z M81.087,253.532H68.652V120.865h128.763v95.72h-36.102l19.569-19.576
	c6.631-6.629,10.282-15.441,10.282-24.814c0-9.374-3.652-18.185-10.283-24.815c-6.631-6.628-15.447-10.278-24.823-10.278
	c-7.621,0-14.873,2.413-20.882,6.875c-6.008-4.463-13.26-6.875-20.882-6.875c-9.376,0-18.192,3.65-24.822,10.278
	c-6.631,6.627-10.283,15.439-10.283,24.815c0,9.376,3.652,18.189,10.28,24.811l21.356,21.365
	c-6.486,3.025-11.002,9.589-11.002,17.205c0,7.311-5.171,13.718-12.294,15.238C85.179,251.315,83.013,252.26,81.087,253.532z
	 M139.152,216.585h-7.951l-30.651-30.663c-3.669-3.665-5.688-8.54-5.688-13.727c0-5.187,2.021-10.063,5.688-13.73
	c3.671-3.67,8.551-5.689,13.743-5.689s10.071,2.021,13.744,5.692l1.601,1.599c3.059,3.056,8.018,3.055,11.077-0.002l1.6-1.599
	c3.673-3.67,8.552-5.691,13.743-5.691c5.191,0,10.072,2.021,13.741,5.689c3.669,3.668,5.689,8.544,5.689,13.73
	c0,5.185-2.021,10.061-5.692,13.731L139.152,216.585z M496.327,280.16h-10.009c-4.329,0-7.837,3.509-7.837,7.837
	s3.508,7.837,7.837,7.837h10.009v8.864h-10.009c-4.329,0-7.837,3.509-7.837,7.837s3.508,7.837,7.837,7.837h10.009v8.864h-10.009
	c-4.329,0-7.837,3.509-7.837,7.837c0,4.328,3.508,7.837,7.837,7.837h10.009v8.863h-10.009c-4.329,0-7.837,3.509-7.837,7.837
	c0,4.328,3.508,7.837,7.837,7.837h10.009v10.774c0,1.555-1.104,2.919-2.626,3.243c-14.312,3.051-24.7,15.906-24.7,30.566
	c0,1.829-1.488,3.317-3.318,3.317h-346.87c-1.83,0-3.317-1.488-3.317-3.317c0-14.661-10.388-27.515-24.701-30.566
	c-1.521-0.324-2.625-1.689-2.625-3.243v-10.773H98.18c4.328,0,7.837-3.509,7.837-7.837s-3.509-7.837-7.837-7.837H88.171v-8.863
	H98.18c4.328,0,7.837-3.509,7.837-7.837s-3.509-7.837-7.837-7.837H88.171v-8.864H98.18c4.328,0,7.837-3.509,7.837-7.837
	s-3.509-7.837-7.837-7.837H88.171v-8.864H98.18c4.328,0,7.837-3.509,7.837-7.837c0-4.328-3.509-7.837-7.837-7.837H88.171v-10.775
	c0-1.556,1.103-2.919,2.625-3.243c14.313-3.05,24.701-15.905,24.701-30.566c0-1.829,1.488-3.318,3.317-3.318h346.871
	c1.83,0,3.318,1.488,3.318,3.318c0,14.661,10.387,27.516,24.7,30.566c1.521,0.324,2.626,1.689,2.626,3.243v10.774H496.327z"/>
<g>
</g>
<g>
</g>
<g>
</g>
<g>
</g>
<g>
</g>
<g>
</g>
<g>
</g>
<g>
</g>
<g>
</g>
<g>
</g>
<g>
</g>
<g>
</g>
<g>
</g>
<g>
</g>
<g>
</g>
</svg>
