<?xml version="1.0" encoding="iso-8859-1"?>
<!-- Generator: Adobe Illustrator 19.0.0, SVG Export Plug-In . SVG Version: 6.00 Build 0)  -->
<svg version="1.1" id="Layer_1" xmlns="http://www.w3.org/2000/svg" xmlns:xlink="http://www.w3.org/1999/xlink" x="0px" y="0px"
	 viewBox="0 0 488.369 488.369" style="enable-background:new 0 0 488.369 488.369;" xml:space="preserve">
<path style="fill:#F76A00;" d="M312.572,133.285c-10.185,10.153-26.663,10.153-36.864,0c-10.185-10.185-10.185-26.695,0-36.864
	c10.185-10.185,108.016-91.506,118.201-81.353C404.11,25.253,322.741,123.101,312.572,133.285z"/>
<path style="fill:#F44B00;" d="M393.909,15.069c10.201,10.185-71.168,108.032-81.337,118.217c-10.185,10.153-26.663,10.153-36.864,0
	"/>
<path style="fill:#8C5834;" d="M400.754,138.335c0,2.985-2.418,5.419-5.419,5.419l0,0c-2.985,0-5.419-2.434-5.419-5.419V16.408
	c0-3.001,2.434-5.419,5.419-5.419l0,0c3.001,0,5.419,2.418,5.419,5.419V138.335z"/>
<path id="SVGCleanerId_0" style="fill:#91ADB5;" d="M398.895,224.02v-29.507c0-1.953-1.599-3.537-3.56-3.537
	c-1.961,0-3.537,1.583-3.537,3.537v32.863c0,1.953,1.575,3.552,3.537,3.552c0.236,0,0.457-0.032,0.654-0.079
	c7.633,0.354,13.706,6.632,13.706,14.32c0,7.908-6.443,14.368-14.36,14.368c-7.901,0-14.344-6.459-14.344-14.368h-7.105
	c0,11.831,9.633,21.465,21.457,21.465c11.839,0,21.473-9.633,21.473-21.465C416.8,234.543,409.033,225.745,398.895,224.02z"/>
<g>
	<path id="SVGCleanerId_0_1_" style="fill:#91ADB5;" d="M398.895,224.02v-29.507c0-1.953-1.599-3.537-3.56-3.537
		c-1.961,0-3.537,1.583-3.537,3.537v32.863c0,1.953,1.575,3.552,3.537,3.552c0.236,0,0.457-0.032,0.654-0.079
		c7.633,0.354,13.706,6.632,13.706,14.32c0,7.908-6.443,14.368-14.36,14.368c-7.901,0-14.344-6.459-14.344-14.368h-7.105
		c0,11.831,9.633,21.465,21.457,21.465c11.839,0,21.473-9.633,21.473-21.465C416.8,234.543,409.033,225.745,398.895,224.02z"/>
</g>
<g>
	<path style="fill:#A8C6CC;" d="M395.327,223.626c0.236,0,0.457-0.032,0.654-0.063c1.016,0.031,1.985,0.181,2.907,0.417v-7.231
		v-22.229c0-1.953-1.599-3.537-3.56-3.537c-1.961,0-3.537,1.583-3.537,3.537v25.568C391.79,222.027,393.366,223.626,395.327,223.626
		z"/>
	<path style="fill:#A8C6CC;" d="M416.461,241.499c-1.52-8.735-8.342-15.644-17.014-17.337c5.923,1.772,10.248,7.247,10.248,13.722
		c0,1.26-0.165,2.473-0.48,3.647c0.307,1.15,0.48,2.387,0.48,3.647c0,6.506-4.356,12.012-10.295,13.769
		C408.119,257.252,414.988,250.266,416.461,241.499z"/>
	<path style="fill:#A8C6CC;" d="M380.983,245.177h-5.797c2.552,7.003,8.633,12.335,16.108,13.769
		C385.339,257.189,380.983,251.683,380.983,245.177z"/>
</g>
<path style="fill:#608387;" d="M408.797,199.838c0,1.323-1.055,2.371-2.363,2.371h-22.189c-1.308,0-2.371-1.048-2.371-2.371v-7.971
	c0-1.323,1.063-2.371,2.371-2.371h22.189c1.308,0,2.363,1.048,2.363,2.371V199.838z"/>
<path style="fill:#86AAB2;" d="M435.57,156.672l-17.967-31.09c-0.89-1.552-2.521-2.489-4.317-2.489h-35.887
	c-1.804,0-3.45,0.937-4.324,2.489l-17.967,31.09c-0.882,1.536-0.882,3.434,0,4.986l17.967,31.09
	c0.874,1.552,2.513,2.489,4.324,2.489h35.887c1.796,0,3.426-0.937,4.317-2.489l17.967-31.09
	C436.445,160.098,436.445,158.208,435.57,156.672z"/>
<path style="fill:#71989E;" d="M417.603,125.574c-0.89-1.552-2.521-2.489-4.317-2.489h-35.887c-1.804,0-3.45,0.937-4.324,2.489
	l-8.956,15.51l52.681,52.689c0.307-0.307,0.583-0.662,0.803-1.032l17.967-31.09c0.874-1.552,0.874-3.45,0-4.986L417.603,125.574z"/>
<path style="fill:#FFA522;" d="M323.245,290.989c0,15.061-12.201,10.311-27.294,10.311l0,0c-15.053,0-27.278,4.758-27.278-10.311
	V108.835c0-15.076,12.225-27.294,27.278-27.294l0,0c15.092,0,27.294,12.217,27.294,27.294V290.989z"/>
<path style="fill:#FFBB24;" d="M268.674,290.989V108.835c0-15.076,12.225-27.294,27.278-27.294l0,0
	c15.092,0,27.294,12.217,27.294,27.294"/>
<path style="fill:#F76A00;" d="M307.035,113.27c0,6.089-4.955,11.043-11.075,11.043c-6.089,0-11.036-4.955-11.036-11.043
	c0-6.12,4.947-11.075,11.036-11.075C302.08,102.195,307.035,107.15,307.035,113.27z"/>
<path style="fill:#F98E00;" d="M307.035,113.27c0,6.089-4.955,11.043-11.075,11.043c-6.089,0-11.036-4.955-11.036-11.043
	c0-6.12,4.947-6.664,11.036-6.664C302.08,106.606,307.035,107.15,307.035,113.27z"/>
<path style="fill:#F44B00;" d="M329.862,304.931c0,0.843-0.677,1.536-1.536,1.536h-64.709c-0.851,0-1.544-0.693-1.544-1.536v-13.139
	c0-0.843,0.693-1.536,1.544-1.536h64.709c0.859,0,1.536,0.693,1.536,1.536V304.931z"/>
<path style="fill:#F76A00;" d="M328.326,290.257h-64.709c-0.851,0-1.544,0.693-1.544,1.536v5.388c0,0.859,0.693,1.552,1.544,1.552
	h64.709c0.859,0,1.536-0.693,1.536-1.552v-5.388C329.862,290.95,329.185,290.257,328.326,290.257z"/>
<path style="fill:#86AAB2;" d="M406.433,15.84c0,7.341-5.971,13.28-13.28,13.28c-7.349,0-13.288-5.939-13.288-13.28
	c0-7.326,5.939-13.265,13.288-13.265C400.463,2.576,406.433,8.515,406.433,15.84z"/>
<path style="fill:#71989E;" d="M393.153,2.576c7.31,0,13.28,5.939,13.28,13.265c0,7.341-5.971,13.28-13.28,13.28"/>
<g>
	<path style="fill:#F98E00;" d="M304.459,153.206c0,1.418-1.166,2.568-2.599,2.568h-11.8c-1.426,0-2.568-1.15-2.568-2.568l0,0
		c0-1.434,1.15-2.584,2.568-2.584h11.8C303.293,150.623,304.459,151.78,304.459,153.206L304.459,153.206z"/>
	<path style="fill:#F98E00;" d="M304.459,163.517c0,1.434-1.166,2.599-2.599,2.599h-11.8c-1.426,0-2.568-1.166-2.568-2.599l0,0
		c0-1.418,1.15-2.568,2.568-2.568h11.8C303.293,160.949,304.459,162.099,304.459,163.517L304.459,163.517z"/>
	<path style="fill:#F98E00;" d="M304.459,173.836c0,1.434-1.166,2.584-2.599,2.584h-11.8c-1.426,0-2.568-1.15-2.568-2.584l0,0
		c0-1.434,1.15-2.568,2.568-2.568h11.8C303.293,171.268,304.459,172.41,304.459,173.836L304.459,173.836z"/>
	<path style="fill:#F98E00;" d="M304.459,184.178c0,1.418-1.166,2.568-2.599,2.568h-11.8c-1.426,0-2.568-1.15-2.568-2.568l0,0
		c0-1.434,1.15-2.599,2.568-2.599h11.8C303.293,181.579,304.459,182.745,304.459,184.178L304.459,184.178z"/>
</g>
<path style="fill:#FFC41F;" d="M463.659,266.87H246.808v-88.789c0-15.092-12.256-27.325-27.325-27.325H91.987
	c-15.076,0-27.317,12.233-27.317,27.325L4.356,380.7c0,15.092,12.217,27.309,27.325,27.309h138.508h49.302h244.177
	c6.735,0,12.186-5.443,12.186-12.17V279.056C475.845,272.313,470.402,266.87,463.659,266.87z"/>
<path style="fill:#FFB000;" d="M17.888,335.163L4.348,380.7c0,15.092,12.217,27.309,27.325,27.309h138.508h49.302h244.177
	c6.735,0,12.186-5.443,12.186-12.17v-60.676H17.888z"/>
<g>
	<path style="fill:#528099;" d="M246.808,266.87v-88.789c0-0.26-0.071-0.488-0.071-0.756h-27.254
		c-15.1,0-19.732,12.233-19.732,27.325v34.911c0,15.076,12.241,27.309,27.325,27.309L246.808,266.87L246.808,266.87z"/>
	<path style="fill:#528099;" d="M151.182,177.333H64.74c0,0.26-0.071,0.488-0.071,0.756l-26.293,88.332
		c1.41,0.228,2.82,0.449,4.301,0.449h108.505c15.076,0,27.325-12.233,27.325-27.309V204.65
		C178.507,189.558,166.258,177.333,151.182,177.333z"/>
</g>
<ellipse style="fill:#C1E5F4;" cx="46.836" cy="342.394" rx="7.207" ry="25.419"/>
<path style="fill:#D9F5FF;" d="M46.828,367.805c-3.97,0-7.2-11.382-7.2-25.419c0-14.045,3.23-25.435,7.2-25.435"/>
<g>
	<path style="fill:#1D5777;" d="M106.48,266.87l70.585-70.585c-2.536-7.83-8.428-14.108-16.069-17.061L73.35,266.87H106.48z"/>
	<path style="fill:#1D5777;" d="M123.431,266.87h27.75c15.076,0,27.325-12.233,27.325-27.309v-27.75L123.431,266.87z"/>
	<path style="fill:#1D5777;" d="M92.058,177.333H64.74c0,0.26-0.071,0.488-0.071,0.756l-11.303,37.904L92.058,177.333z"/>
	<path style="fill:#1D5777;" d="M246.808,178.081c0-0.26-0.071-0.488-0.071-0.756h-4.167l-42.819,42.819v19.417
		c0,10.894,6.443,20.228,15.667,24.615L246.8,232.81v-54.729H246.808z"/>
	<path style="fill:#1D5777;" d="M488.369,418.918c0,5.616-4.553,10.169-10.185,10.169H10.177C4.529,429.087,0,424.535,0,418.918
		v-35.044c0-5.632,4.529-10.185,10.177-10.185h468.007c5.632,0,10.185,4.553,10.185,10.185V418.918z"/>
</g>
<path style="fill:#1E759B;" d="M478.184,373.681H10.177C4.529,373.681,0,378.234,0,383.866v7.719
	c0,5.616,4.529,10.185,10.177,10.185h468.007c5.632,0,10.185-4.569,10.185-10.185v-7.719
	C488.369,378.242,483.816,373.681,478.184,373.681z"/>
<circle style="fill:#FFC41F;" cx="98.934" cy="435.287" r="34.343"/>
<path style="fill:#FFA522;" d="M98.958,400.912c18.96,0,34.343,15.384,34.343,34.367c0,18.968-15.384,34.336-34.343,34.336"/>
<path style="fill:#1A3D5B;" d="M98.958,485.793c-27.853,0-50.515-22.662-50.515-50.507c0-27.861,22.662-50.523,50.515-50.523
	s50.515,22.662,50.515,50.523C149.48,463.132,126.818,485.793,98.958,485.793z M98.958,417.083c-10.019,0-18.18,8.168-18.18,18.204
	c0,10.012,8.153,18.172,18.18,18.172s18.196-8.153,18.196-18.172C117.153,425.251,108.985,417.083,98.958,417.083z"/>
<circle style="fill:#FFC41F;" cx="395.634" cy="435.271" r="34.351"/>
<path style="fill:#FFA522;" d="M371.342,410.978c13.414-13.399,35.186-13.399,48.585,0c13.414,13.414,13.399,35.186,0,48.585"/>
<path style="fill:#1A3D5B;" d="M431.372,470.993c-19.708,19.708-51.751,19.708-71.459,0c-19.692-19.692-19.692-51.72,0-71.428
	c19.708-19.708,51.751-19.708,71.459,0C451.048,419.273,451.048,451.3,431.372,470.993z M382.787,422.408
	c-7.105,7.089-7.105,18.629,0,25.726c7.089,7.089,18.613,7.089,25.71,0c7.097-7.089,7.097-18.629,0-25.726
	C401.4,415.334,389.876,415.334,382.787,422.408z"/>
<g>
</g>
<g>
</g>
<g>
</g>
<g>
</g>
<g>
</g>
<g>
</g>
<g>
</g>
<g>
</g>
<g>
</g>
<g>
</g>
<g>
</g>
<g>
</g>
<g>
</g>
<g>
</g>
<g>
</g>
</svg>
