<?xml version="1.0" encoding="iso-8859-1"?>
<!-- Generator: Adobe Illustrator 19.0.0, SVG Export Plug-In . SVG Version: 6.00 Build 0)  -->
<svg version="1.1" id="Layer_1" xmlns="http://www.w3.org/2000/svg" xmlns:xlink="http://www.w3.org/1999/xlink" x="0px" y="0px"
	 viewBox="0 0 473.931 473.931" style="enable-background:new 0 0 473.931 473.931;" xml:space="preserve">
<circle style="fill:#4ABC96;" cx="236.966" cy="236.966" r="236.966"/>
<path style="fill:#DFDFDF;" d="M397.835,204.169l-24.509-24.509l-0.041-36.916c-0.565-11.723-5.86-23.135-14.398-31.158
	c-8.4-8.108-20.303-12.771-31.734-12.718h-34.66l-26.129-26.076c-8.688-7.888-20.501-12.217-32.213-11.854
	c-11.671,0.206-23.382,5.321-31.431,13.444l-24.516,24.512l-36.912,0.037c-11.723,0.565-23.135,5.86-31.158,14.398
	c-8.108,8.46-12.767,20.157-12.718,31.876v34.518l-26.073,26.129c-7.888,8.688-12.221,20.501-11.858,32.209
	c0.21,11.674,5.325,23.386,13.448,31.435l24.509,24.527l0.041,36.901c0.565,11.723,5.86,23.135,14.398,31.161
	c8.464,8.108,20.161,12.771,31.88,12.718l36.22,0.011c8.808,7.861,17.71,15.652,26.739,23.491
	c8.494,6.806,19.349,10.065,29.762,9.369c10.425-0.606,20.475-5.104,27.7-12.46c7.199-7.199,14.533-14.264,21.975-21.216
	c14.327-0.745,28.639-1.691,43.139-2.717c10.825-1.194,20.8-6.567,27.674-14.421c6.941-7.802,10.866-18.088,10.776-28.4
	c0-9.803,0.183-19.603,0.505-29.403l31.176-31.244c7.891-8.688,12.221-20.501,11.858-32.213
	C411.07,223.933,405.955,212.221,397.835,204.169z"/>
<path style="fill:#49A0AE;" d="M381.143,210.328l-23.955-23.951v-33.87c0-20.703-16.778-37.485-37.477-37.485h-33.874L261.89,91.074
	c-14.645-14.642-38.375-14.642-53.013,0l-23.947,23.947h-33.874c-20.703,0-37.485,16.778-37.485,37.485v33.87l-23.955,23.951
	c-14.63,14.642-14.63,38.368,0,53.01l23.955,23.951v33.874c0,20.696,16.778,37.481,37.485,37.481h33.874l23.947,23.951
	c14.638,14.634,38.368,14.638,53.013,0l23.947-23.951h33.874c20.696,0,37.477-16.782,37.477-37.481v-33.874l23.955-23.951
	C395.781,248.696,395.773,224.966,381.143,210.328z"/>
<g>
	<path style="fill:#F6EBD3;" d="M132.731,208.85l13.953,41.309l13.987-41.601c0.73-2.185,1.28-3.704,1.643-4.561
		c0.359-0.857,0.965-1.624,1.804-2.309s1.987-1.029,3.442-1.029c1.066,0,2.054,0.266,2.967,0.797
		c0.906,0.535,1.624,1.242,2.14,2.125c0.52,0.876,0.775,1.77,0.775,2.668c0,0.614-0.079,1.28-0.247,1.994
		c-0.168,0.715-0.382,1.414-0.629,2.099c-0.254,0.688-0.505,1.396-0.76,2.125l-14.915,40.254c-0.535,1.542-1.066,3.005-1.601,4.393
		c-0.535,1.388-1.149,2.608-1.848,3.656c-0.703,1.051-1.631,1.916-2.791,2.586c-1.16,0.67-2.586,1.01-4.269,1.01
		c-1.684,0-3.098-0.329-4.262-0.988c-1.164-0.659-2.107-1.527-2.821-2.608c-0.707-1.074-1.336-2.301-1.863-3.674
		c-0.535-1.369-1.066-2.829-1.601-4.37l-14.668-39.917c-0.247-0.73-0.513-1.448-0.775-2.144c-0.269-0.7-0.49-1.459-0.674-2.268
		c-0.183-0.808-0.269-1.497-0.269-2.062c0-1.426,0.569-2.728,1.717-3.906c1.149-1.179,2.593-1.766,4.333-1.766
		c2.125,0,3.633,0.651,4.516,1.949C130.898,203.918,131.804,205.995,132.731,208.85z"/>
	<path style="fill:#F6EBD3;" d="M206.639,200.659c6.387,0,11.869,1.295,16.449,3.888c4.584,2.589,8.045,6.275,10.398,11.049
		c2.354,4.778,3.528,10.383,3.528,16.83c0,4.763-0.644,9.092-1.931,12.988c-1.295,3.891-3.222,7.266-5.803,10.125
		c-2.574,2.859-5.744,5.044-9.493,6.556c-3.757,1.512-8.052,2.268-12.898,2.268c-4.823,0-9.134-0.775-12.943-2.331
		c-3.817-1.557-6.993-3.749-9.545-6.578c-2.552-2.829-4.471-6.234-5.774-10.211c-1.31-3.978-1.957-8.281-1.957-12.902
		c0-4.733,0.681-9.078,2.039-13.025c1.358-3.948,3.326-7.311,5.904-10.084c2.578-2.773,5.714-4.898,9.414-6.365
		C197.73,201.4,201.935,200.659,206.639,200.659z M224.378,232.345c0-4.513-0.73-8.419-2.185-11.727
		c-1.463-3.304-3.536-5.803-6.241-7.498s-5.811-2.544-9.309-2.544c-2.492,0-4.793,0.468-6.915,1.411
		c-2.11,0.935-3.933,2.301-5.459,4.093s-2.731,4.086-3.618,6.87c-0.883,2.791-1.325,5.919-1.325,9.396
		c0,3.506,0.438,6.668,1.325,9.497s2.125,5.175,3.742,7.038c1.609,1.863,3.457,3.259,5.545,4.18c2.084,0.928,4.378,1.388,6.87,1.388
		c3.195,0,6.133-0.797,8.808-2.398c2.675-1.594,4.801-4.06,6.387-7.397C223.581,241.321,224.378,237.216,224.378,232.345z"/>
	<path style="fill:#F6EBD3;" d="M282.271,212.004h-13.613v44.751c0,2.578-0.576,4.49-1.725,5.736
		c-1.149,1.25-2.63,1.871-4.449,1.871c-1.848,0-3.36-0.629-4.524-1.893c-1.164-1.257-1.74-3.166-1.74-5.714v-44.751h-13.616
		c-2.133,0-3.712-0.471-4.752-1.407c-1.036-0.939-1.557-2.178-1.557-3.719c0-1.598,0.543-2.859,1.624-3.783
		c1.074-0.924,2.638-1.384,4.685-1.384h39.67c2.155,0,3.757,0.475,4.808,1.426c1.051,0.954,1.579,2.2,1.579,3.742
		s-0.535,2.78-1.601,3.719C285.998,211.533,284.4,212.004,282.271,212.004z"/>
	<path style="fill:#F6EBD3;" d="M334.495,211.331h-28.108v15.128h25.885c1.901,0,3.326,0.427,4.262,1.283
		c0.943,0.857,1.411,1.979,1.411,3.383c0,1.399-0.46,2.544-1.388,3.42c-0.92,0.883-2.354,1.325-4.284,1.325h-25.885v17.523h29.077
		c1.957,0,3.435,0.456,4.43,1.366c0.995,0.913,1.489,2.122,1.489,3.637c0,1.459-0.498,2.642-1.489,3.547
		c-0.995,0.913-2.47,1.366-4.43,1.366h-33.915c-2.72,0-4.67-0.599-5.86-1.804c-1.19-1.205-1.785-3.151-1.785-5.841v-46.308
		c0-1.792,0.262-3.252,0.797-4.393c0.535-1.134,1.366-1.957,2.5-2.477c1.134-0.52,2.586-0.775,4.348-0.775h32.946
		c1.987,0,3.472,0.438,4.438,1.325s1.448,2.039,1.448,3.465c0,1.459-0.483,2.63-1.448,3.51
		C337.967,210.889,336.485,211.331,334.495,211.331z"/>
</g>
<g>
</g>
<g>
</g>
<g>
</g>
<g>
</g>
<g>
</g>
<g>
</g>
<g>
</g>
<g>
</g>
<g>
</g>
<g>
</g>
<g>
</g>
<g>
</g>
<g>
</g>
<g>
</g>
<g>
</g>
</svg>
