<?xml version="1.0" encoding="utf-8"?>
<!-- Generator: Adobe Illustrator 28.1.0, SVG Export Plug-In . SVG Version: 6.00 Build 0)  -->
<svg version="1.1" id="Layer_1" xmlns="http://www.w3.org/2000/svg" xmlns:xlink="http://www.w3.org/1999/xlink" x="0px" y="0px"
	 width="50px" height="20px" viewBox="0 0 50 20" style="enable-background:new 0 0 50 20;" xml:space="preserve">
<style type="text/css">
	.st0{opacity:0.1;enable-background:new    ;}
	.st1{opacity:0.1;}
	.st2{opacity:3.000000e-02;enable-background:new    ;}
	.st3{opacity:3.000000e-02;}
	.st4{enable-background:new    ;}
</style>
<g id="Layer_1_00000031907621463089728710000013884002335252416186_">
</g>
<g id="Layer_3">
	<path class="st0" d="M9.1,6.3c0-0.1,0-0.2-0.1-0.2c0-0.2-0.1-0.3-0.2-0.4c0-0.1-0.1-0.2-0.2-0.3C8.5,5.3,8.5,5.3,8.4,5.2
		C8.3,5.2,8.1,5.1,8,5C7.7,4.9,7.4,4.8,7,4.8c-0.2,0-0.4,0-0.5,0.1c-0.1,0-0.2,0-0.3,0.1C6.1,5,5.9,5.1,5.8,5.2
		C5.6,5.3,5.4,5.5,5.3,5.7c-0.1,0.2-0.1,0.4,0,0.7c0.1,0.3,0.2,0.7,0.3,1c0.1,0.2,0.2,0.4,0.5,0.5c0.1,0,0.2,0.1,0.3,0.2
		C6.6,8.2,6.8,8.2,7,8.2c0.3,0,0.5,0,0.8,0C8.1,8.1,8.4,8,8.6,7.8c0.4-0.3,0.6-0.7,0.6-1C9.2,6.6,9.2,6.5,9.1,6.3z"/>
	<g class="st1">
		<path d="M4.5,11.1c-0.3,0.1-0.5,0.2-0.7,0.4c-0.8,0.9-0.5,2.4,0.3,3.2c0.3,0.3,0.7,0.5,1,0.7c0.4,0.2,0.7,0.3,1.1,0.3
			c0.3,0,0.7-0.2,0.9-0.4C7.5,15,7.7,14.4,7.5,14c-0.2-0.4-0.6-0.6-0.9-0.9c-0.5-0.6-0.5-1.5-1.2-1.9C5.2,11.1,4.8,11,4.5,11.1z"/>
		<path d="M6.3,12.6C6.3,12.7,6.3,12.7,6.3,12.6L6.3,12.6z"/>
	</g>
	<path class="st0" d="M35.1,16.2c-0.7,0.2-2.3,0.3-3,0.3c-2.1,0.1-1.4,0.4-3.5,0c-3.1-0.5-4.1-0.4-7.2-0.1c-2.6,0.3-2.6-0.1-5.5-0.1
		c-1,0-3.8-0.3-4.8-0.3c-1.1,0-3.7,1.2-5,1C5,16.9,2.6,16.5,2,15.5c-0.8-1.4-0.6-4.7-1-6.3c-0.3-1.3-0.4-2.7,0-4S1.5,0,4.3,0
		s-4-0.5-4.4,0s0,2.2,0,2.8c0,5.7,0,11.5,0,17.2c16.7,0,33.3,0,50,0c0-5.5,0.8-20.6,0.8-20.6S40.2,0.1,39.6,0.1
		c10.9-1.2,10.8,14.1,6.8,15c-2.3,0.5-3.1-1.7-4.2-1.4c-1.4,0.4-1.5,1.5-2.7,2.1C39.1,15.9,35.4,16.1,35.1,16.2z"/>
	<path class="st0" d="M4.5,8.1C4.4,8,4.3,7.9,4.1,7.8H4C3.9,7.7,3.8,7.6,3.7,7.6s-0.2,0-0.4,0C3.2,7.7,3.1,7.7,3,7.8
		C2.9,7.9,2.9,7.9,2.8,8c0,0.1-0.1,0.1-0.1,0.2c0,0.2,0,0.3,0,0.5c0,0.1,0.1,0.1,0.1,0.2C2.9,9.1,3,9.2,3.1,9.3h0.1
		c0.1,0.1,0.2,0.1,0.3,0.1s0.2,0,0.4,0c0.1,0,0.2-0.1,0.3-0.2c0.1,0,0.2-0.1,0.3-0.2c0-0.1,0.1-0.1,0.1-0.2c0-0.2,0-0.3,0-0.5
		C4.5,8.2,4.5,8.2,4.5,8.1z"/>
	<path class="st0" d="M9.2,11.6c0-0.1-0.1-0.2-0.2-0.3l-0.1-0.1l0,0v-0.1c0-0.1-0.1-0.1-0.2-0.2c-0.1-0.1-0.1-0.1-0.2-0.1
		c-0.1,0-0.1,0-0.2,0c-0.1,0-0.2,0-0.3,0.1L7.9,11c-0.1,0.1-0.1,0.2-0.2,0.3l0,0c0,0.1,0,0.1,0,0.2l0,0c0,0.1,0,0.1,0,0.2
		c0,0.1,0.1,0.1,0.1,0.2l0,0c0,0.1,0.1,0.1,0.1,0.2l0,0c0.1,0,0.1,0.1,0.2,0.1s0.1,0.1,0.2,0.1l0,0c0.1,0,0.1,0,0.2,0l0,0
		c0.1,0,0.2,0,0.3-0.1c0.1,0,0.2-0.1,0.2-0.1C9.1,12,9.1,12,9.1,11.9C9.1,11.8,9.2,11.7,9.2,11.6C9.2,11.7,9.2,11.6,9.2,11.6z"/>
	<path class="st0" d="M37.9,12.3c-0.9,0-0.9,1.3,0,1.3C38.8,13.6,38.8,12.3,37.9,12.3z"/>
	<path class="st0" d="M38,3.6c-1.3,0-1.3,2,0,2S39.3,3.6,38,3.6z"/>
	<path class="st0" d="M43.6,8.2c0,0.3-0.1,0.6-0.1,0.9c-0.1,0.5-0.1,1,0.2,1.5c0.3,0.4,0.7,0.8,1.2,0.8c0.7,0,1.3-0.5,1.5-1.1
		s0.2-1.3,0-2c-0.3-1-1.7-3.6-3-2.2c-0.4,0.4-0.4,1-0.1,1.5c0.1,0.1,0.2,0.2,0.2,0.3C43.6,8,43.6,8.1,43.6,8.2z"/>
	<path class="st0" d="M42.1,3.4c-1.2-1.2-3.1-3.2-4.6-4c0,0.1-1.4-0.7-1.4-0.7S32.6-3.6,32.4-6c0-0.5,2.9-3.1,2.5-2.9
		c-3.2,1.6-6.2,3.4-9.2,5.3c0.1,0.1,0.2,0.2,0.3,0.3c0.9,1,1.5,2.1,2.1,3.3c0.5-0.2,1-0.3,1.5,0c0.3,0.2,0.6,0.4,0.9,0.7
		c0.4,0.1,0.8,0.1,1.2,0.2C31.8,1,31.9,1,32,1.1c0.8-0.1,1.6-0.1,1.9,0c0.9,0.2,2.3,0,3.2,0.4c1.6,0.7,3.3,1.6,4.5,2.7
		C42.3,4.8,42.8,4.1,42.1,3.4z"/>
</g>
<path class="st2" d="M5.4,6.6c0.1-0.2,0.3-0.3,0.4-0.4C5.9,6.1,6.1,6,6.2,6c0.1-0.1,0.2-0.1,0.3-0.1C6.6,5.8,6.8,5.8,7,5.8
	c0.4,0,0.7,0.1,1,0.2c0.1,0.1,0.3,0.2,0.4,0.2c0.1,0.1,0.1,0.1,0.2,0.2c0.1,0.1,0.2,0.2,0.2,0.3C8.9,6.8,9,6.9,9,7.1
	c0.1,0,0.1,0,0.1,0.1c0.1-0.1,0.1-0.3,0.1-0.4c0-0.2,0-0.3-0.1-0.5c0-0.1,0-0.2-0.1-0.2c0-0.2-0.1-0.3-0.2-0.4
	c0-0.1-0.1-0.2-0.2-0.3C8.5,5.3,8.5,5.3,8.4,5.2C8.3,5.2,8.1,5.1,8,5C7.7,4.9,7.4,4.8,7,4.8c-0.2,0-0.4,0-0.5,0.1
	c-0.1,0-0.2,0-0.3,0.1C6.1,5,5.9,5.1,5.8,5.2C5.6,5.3,5.4,5.5,5.3,5.7c-0.1,0.2-0.1,0.4,0,0.7C5.3,6.5,5.3,6.5,5.4,6.6z"/>
<path class="st3" d="M3.8,12.5c0.2-0.2,0.4-0.3,0.7-0.4c0.3-0.1,0.7,0,0.9,0.1c0.7,0.4,0.7,1.3,1.2,1.9c0.3,0.3,0.6,0.5,0.8,0.8
	c0.2-0.3,0.2-0.6,0.1-0.9c-0.2-0.4-0.6-0.6-0.9-0.9c-0.5-0.6-0.5-1.5-1.2-1.9c-0.2-0.1-0.6-0.2-0.9-0.1c-0.3,0.1-0.5,0.2-0.7,0.4
	c-0.4,0.5-0.5,1.2-0.4,1.8C3.5,13,3.6,12.7,3.8,12.5z"/>
<g class="st3">
	<path class="st4" d="M39.6,0.1c0.1,0,0.5,0,1.2-0.1C40.4,0,40,0.1,39.6,0.1z"/>
	<path class="st4" d="M2,15.5c-0.8-1.4-0.6-4.7-1-6.3C0.9,8.7,0.8,8.1,0.8,7.6c-0.1,0.9,0,1.8,0.2,2.6c0.4,1.6,0.2,4.9,1,6.3
		c0.6,1,3,1.4,4.1,1.5c1.3,0.2,3.9-1,5-1c1,0,3.8,0.3,4.8,0.3c2.9,0,2.9,0.4,5.5,0.1c3.1-0.3,4.1-0.4,7.2,0.1c2.1,0.4,1.4,0.1,3.5,0
		c0.7,0,2.3-0.1,3-0.3c0.3-0.1,4-0.3,4.4-0.4c1.2-0.6,1.3-1.7,2.7-2.1c1.1-0.3,1.9,1.9,4.2,1.4C48,15.7,49,13,48.9,10
		c-0.1,2.6-1,4.8-2.5,5.1c-2.3,0.5-3.1-1.7-4.2-1.4c-1.4,0.4-1.5,1.5-2.7,2.1c-0.4,0.1-4.1,0.3-4.4,0.4c-0.7,0.2-2.3,0.3-3,0.3
		c-2.1,0.1-1.4,0.4-3.5,0c-3.1-0.5-4.1-0.4-7.2-0.1c-2.6,0.3-2.6-0.1-5.5-0.1c-1,0-3.8-0.3-4.8-0.3c-1.1,0-3.7,1.2-5,1
		C5,16.9,2.6,16.5,2,15.5z"/>
</g>
<path class="st2" d="M4.5,8.1C4.4,8,4.3,7.9,4.1,7.8H4C3.9,7.7,3.8,7.6,3.7,7.6c-0.1,0-0.2,0-0.4,0C3.2,7.7,3.1,7.7,3,7.8
	C2.9,7.9,2.9,7.9,2.8,8c0,0.1-0.1,0.1-0.1,0.2c0,0.2,0,0.3,0,0.5c0,0.1,0.1,0.1,0.1,0.2c0,0,0,0,0,0.1C2.9,8.9,2.9,8.9,3,8.8
	c0.1-0.1,0.2-0.1,0.3-0.2c0.2,0,0.3,0,0.4,0c0.1,0,0.2,0.1,0.3,0.2h0.1C4.3,8.9,4.4,9,4.4,9c0,0,0,0,0.1,0c0-0.1,0.1-0.1,0.1-0.2
	c0-0.2,0-0.3,0-0.5C4.5,8.2,4.5,8.2,4.5,8.1z"/>
<path class="st2" d="M7.9,12C7.9,12,7.9,12,7.9,12L8,11.9c0.1-0.1,0.2-0.1,0.3-0.1c0.1,0,0.1,0,0.2,0s0.1,0,0.2,0.1
	C8.8,12,8.9,12,8.9,12.1v0.1C9,12.1,9,12.1,9,12.1C9.1,12,9.1,12,9.1,11.9c0-0.1,0.1-0.2,0.1-0.3c0-0.1-0.1-0.2-0.2-0.3l-0.1-0.1
	v-0.1c0-0.1-0.1-0.1-0.2-0.2c-0.1-0.1-0.1-0.1-0.2-0.1s-0.1,0-0.2,0c-0.1,0-0.2,0-0.3,0.1L7.9,11c-0.1,0.1-0.1,0.2-0.2,0.3
	c0,0.1,0,0.1,0,0.2s0,0.1,0,0.2c0,0.1,0.1,0.1,0.1,0.2C7.8,12,7.8,12,7.9,12z"/>
<path class="st2" d="M37.5,13.4c0.1-0.1,0.2-0.1,0.4-0.1c0.2,0,0.3,0.1,0.4,0.1c0.4-0.3,0.3-1.1-0.4-1.1S37,13.1,37.5,13.4z"/>
<path class="st2" d="M38,4.6c0.4,0,0.7,0.2,0.8,0.5c0.3-0.6,0-1.5-0.8-1.5s-1.1,0.9-0.8,1.5C37.3,4.8,37.6,4.6,38,4.6z"/>
<g class="st3">
	<path class="st4" d="M43.4,7.1c1.3-1.4,2.7,1.2,3,2.2c0.1,0.2,0.1,0.4,0.1,0.5c0.1-0.5,0-1-0.1-1.5c-0.3-1-1.7-3.6-3-2.2
		c-0.3,0.3-0.4,0.8-0.2,1.3C43.3,7.3,43.3,7.2,43.4,7.1z"/>
	<path class="st4" d="M43.5,8.9c0,0.1,0,0.1,0,0.2c-0.1,0.3-0.1,0.7,0,1c0-0.3,0.1-0.6,0.1-0.9C43.6,9.1,43.6,9,43.5,8.9z"/>
</g>
<g class="st3">
	<path class="st4" d="M32.6-5.3c-0.1,0.1-0.2,0.2-0.2,0.3c0.2,2.4,3.7,4.7,3.7,4.7s1.4,0.8,1.4,0.7c1.5,0.8,3.4,2.8,4.6,4
		c0,0,0,0,0,0c0.4,0,0.5-0.5,0-1c-1.2-1.2-3.1-3.2-4.6-4c0,0.1-1.4-0.7-1.4-0.7S33.2-3.2,32.6-5.3z"/>
	<path class="st4" d="M26.3-3c2.2-1.4,4.5-2.7,6.8-4c0.8-0.9,2.1-2.1,1.8-2c-3.2,1.6-6.2,3.4-9.2,5.3c0.1,0.1,0.2,0.2,0.3,0.3
		C26.1-3.2,26.2-3.1,26.3-3z"/>
</g>
</svg>
