<?xml version="1.0" encoding="utf-8"?>
<!-- Generator: Adobe Illustrator 28.1.0, SVG Export Plug-In . SVG Version: 6.00 Build 0)  -->
<svg version="1.1" id="Layer_1" xmlns="http://www.w3.org/2000/svg" xmlns:xlink="http://www.w3.org/1999/xlink" x="0px" y="0px"
	 width="50px" height="20px" viewBox="0 0 50 20" style="enable-background:new 0 0 50 20;" xml:space="preserve">
<style type="text/css">
	.st0{opacity:0.1;enable-background:new    ;}
	.st1{opacity:0.1;}
	.st2{opacity:3.000000e-02;enable-background:new    ;}
	.st3{opacity:3.000000e-02;}
	.st4{enable-background:new    ;}
</style>
<g id="Layer_1_00000047039602276561939600000016139760295543396246_">
</g>
<g id="Layer_3">
	<path class="st0" d="M46.7,8.1c0-0.1,0-0.2-0.1-0.2c-0.1-0.1-0.1-0.3-0.2-0.4c-0.1-0.1-0.2-0.2-0.3-0.3c0,0-0.1-0.1-0.1-0.1
		C45.9,7,45.8,7,45.6,6.9c-0.3-0.1-0.6-0.2-1-0.2c-0.2,0-0.4,0-0.5,0.1c-0.1,0-0.3,0.1-0.4,0.1c-0.1,0-0.2,0.1-0.3,0.2
		c-0.3,0.2-0.4,0.4-0.5,0.6s-0.1,0.4-0.1,0.6c0.1,0.3,0.2,0.7,0.3,1c0.1,0.2,0.2,0.4,0.5,0.5c0.1,0.1,0.2,0.1,0.4,0.2
		c0.2,0.1,0.4,0.1,0.6,0.1c0.3,0,0.5,0,0.8,0c0.3-0.1,0.6-0.2,0.8-0.3c0.4-0.3,0.6-0.7,0.6-1C46.8,8.5,46.8,8.3,46.7,8.1z"/>
	<g class="st1">
		<path d="M7.3,7.6C7.1,7.4,6.8,7.3,6.6,7.3C5.3,7,4.3,8.1,4,9.2C3.9,9.6,3.9,10,3.9,10.4s0.1,0.8,0.4,1.1c0.2,0.3,0.5,0.5,0.8,0.6
			c0.5,0.1,1,0,1.3-0.4c0.2-0.4,0.2-0.8,0.3-1.2c0.2-0.7,1-1.3,1-2C7.7,8.2,7.6,7.9,7.3,7.6z"/>
		<path d="M7,9.9C6.9,10,6.9,10,7,9.9L7,9.9z"/>
	</g>
	<path class="st0" d="M37.7,15.9c-0.7,0.2-1.3,0.2-2,0.3c-2.1,0.1-4.3,0-6.4-0.4c-3.1-0.5-6.2-0.1-9.3,0.2c-2.6,0.3-5.8,0.8-8.3,0.1
		c-0.9-0.3-1.7-0.9-2.7-0.9c-1.2-0.1-2.4,0.9-3.6,0.7c-1.1-0.1-2-1.1-2.6-2.1C2,12.4,1.4,10.8,1,9.2c-0.3-1.3-0.4-2.7,0-4
		S2.2,2.7,3.3,2c1.1-0.6,2.3-0.8,3.6-0.9c4-0.4,7.9-0.7,11.9-1.1C16.4-1.5,12.3-1.7,8-0.7C6.2-0.4,3.3-0.5,1.4-0.5
		c-0.5,0-1.2,0-1.6,0.4c-0.4,0.5,0,2.2,0,2.8c0,5.7-0.2,12-0.2,17.7c16.7,0,34.5,0.5,51.2,0.5c0-5.5-0.2-21.6-0.2-21.6
		s-0.8,0.1-1.4,0.1c-0.4,4.2,0.1,9.9-2.4,13.2c-0.3,0.4-3.5,1.1-4.5,1.4c-1.4,0.4-2.4,0.8-3.6,1.5C38.4,15.7,38.1,15.9,37.7,15.9z"
		/>
	<path class="st0" d="M10.3,4.3C10.2,4.1,10,4,9.8,3.8c0,0-0.1,0-0.1-0.1c-0.2,0-0.3-0.1-0.5-0.1s-0.3,0-0.5,0S8.4,3.7,8.3,3.8
		C8.1,4,8,4.1,7.9,4.2c0,0.1-0.1,0.2-0.1,0.3C7.7,4.8,7.7,5,7.8,5.3c0,0.1,0.1,0.2,0.1,0.3C8,5.8,8.2,5.9,8.4,6c0,0,0.1,0,0.1,0.1
		C8.7,6.2,8.8,6.3,9,6.3s0.3,0,0.5,0C9.7,6.2,9.8,6.1,10,6c0.1-0.1,0.3-0.2,0.3-0.4c0-0.1,0.1-0.2,0.1-0.3c0.1-0.2,0.1-0.5,0-0.7
		C10.4,4.5,10.4,4.4,10.3,4.3z"/>
	<path class="st0" d="M4.6,5.4c0-0.1-0.1-0.2-0.2-0.3L4.3,5l0,0V4.9c0-0.1-0.1-0.1-0.2-0.2C4,4.6,3.9,4.6,3.8,4.6
		c-0.1,0-0.1,0-0.2,0c-0.1,0-0.2,0-0.3,0.1L3.2,4.8C3.1,4.8,3,4.9,3,5l0,0c0,0.1,0,0.1,0,0.2l0,0c0,0.1,0,0.1,0,0.2s0.1,0.1,0.1,0.2
		l0,0c0,0.1,0.1,0.1,0.1,0.2l0,0c0.1,0,0.1,0.1,0.2,0.1C3.5,5.9,3.5,6,3.6,6l0,0c0.1,0,0.1,0,0.2,0l0,0C3.9,6,4,6,4.1,5.9
		c0.1,0,0.2-0.1,0.2-0.1c0.2,0.2,0.2,0.1,0.2,0S4.6,5.6,4.6,5.4L4.6,5.4z"/>
	<path class="st0" d="M11.3,12.9c-0.9,0-0.9,1.3,0,1.3C12.2,14.3,12.2,12.9,11.3,12.9z"/>
	<path class="st0" d="M46.1,2.7c-1.3,0-1.3,2,0,2C47.4,4.7,47.4,2.7,46.1,2.7z"/>
	<path class="st0" d="M41.7,6.4c0.2-0.2,0.4-0.3,0.6-0.5c0.4-0.3,0.7-0.6,0.8-1.1c0.1-0.4,0-0.9-0.3-1.3c-0.4-0.4-1.1-0.5-1.7-0.2
		c-0.5,0.3-0.9,0.7-1.2,1.3c-0.4,0.8-1,3.3,0.6,3.2c0.5,0,0.9-0.4,1-0.9c0-0.1,0-0.2,0-0.4C41.6,6.5,41.6,6.5,41.7,6.4z"/>
</g>
<path class="st2" d="M43.4,8.1c0.1-0.1,0.2-0.2,0.3-0.2c0.1,0,0.3-0.1,0.4-0.1c0.1-0.1,0.3-0.1,0.5-0.1c0.4,0,0.7,0.1,1,0.2
	C45.8,8,45.9,8,46,8.1l0.1,0.1c0.1,0.1,0.2,0.2,0.3,0.3c0.1,0.1,0.1,0.3,0.2,0.4c0.1,0,0.1,0.1,0.1,0.2c0,0,0,0,0,0.1
	c0.1-0.1,0.1-0.2,0.1-0.4c0-0.3,0-0.5-0.1-0.7c0-0.1,0-0.2-0.1-0.2c-0.1-0.1-0.1-0.3-0.2-0.4c-0.1-0.1-0.2-0.2-0.3-0.3L46,7.1
	C45.9,7,45.8,7,45.6,6.9c-0.3-0.1-0.6-0.2-1-0.2c-0.2,0-0.4,0-0.5,0.1c-0.1,0-0.3,0.1-0.4,0.1c-0.1,0-0.2,0.1-0.3,0.2
	c-0.3,0.2-0.4,0.4-0.5,0.6c-0.1,0.2-0.1,0.4-0.1,0.6c0,0.1,0.1,0.2,0.1,0.4C43,8.5,43.1,8.3,43.4,8.1z"/>
<path class="st3" d="M4,10.2C4.3,9.1,5.3,8,6.6,8.3c0.2,0,0.5,0.1,0.7,0.3C7.4,8.7,7.5,8.9,7.6,9c0.1-0.2,0.1-0.3,0.1-0.5
	c0-0.3-0.1-0.6-0.4-0.9C7.1,7.4,6.8,7.3,6.6,7.3C5.3,7,4.3,8.1,4,9.2C3.9,9.6,3.9,10,3.9,10.4c0,0.1,0,0.2,0,0.3
	C3.9,10.5,4,10.4,4,10.2z"/>
<g class="st3">
	<path class="st4" d="M11.7,16.1c-0.9-0.3-1.7-0.9-2.7-0.9c-1.2-0.1-2.4,0.9-3.6,0.7c-1.1-0.1-2-1.1-2.6-2.1C2,12.4,1.4,10.8,1,9.2
		C0.9,8.7,0.8,8.1,0.8,7.6c-0.1,0.9,0,1.8,0.2,2.6c0.4,1.6,1,3.2,1.8,4.6c0.6,1,1.5,2,2.6,2.1c1.2,0.2,2.4-0.8,3.6-0.7
		c1,0,1.8,0.6,2.7,0.9c2.5,0.7,5.7,0.2,8.3-0.1c3.1-0.3,6.2-0.7,9.3-0.2c2.1,0.4,4.3,0.5,6.4,0.4c0.7-0.1,1.3-0.1,2-0.3
		c0.4,0,0.7-0.2,1-0.4c1.2-0.7,2.2-1.1,3.6-1.5c1-0.3,4.2-1,4.5-1.4c2.5-3.3,2.4-13.2,2.4-13.2v-1c0,0,0.1,9.9-2.4,13.2
		c-0.3,0.4-3.5,1.1-4.5,1.4c-1.4,0.4-2.4,0.8-3.6,1.5c-0.3,0.2-0.6,0.4-1,0.4c-0.7,0.2-1.3,0.2-2,0.3c-2.1,0.1-4.3,0-6.4-0.4
		c-3.1-0.5-6.2-0.1-9.3,0.2C17.4,16.3,14.2,16.8,11.7,16.1z"/>
	<path class="st4" d="M-0.2,3.6c0,5.5-0.2,11.4-0.2,16.8c0,0,0,0,0,0C-0.3,15-0.2,9.1-0.2,3.6C-0.2,3.7-0.2,3.7-0.2,3.6z"/>
</g>
<path class="st2" d="M7.8,5.4c0-0.1,0.1-0.1,0.1-0.2C8,5.1,8.1,5,8.3,4.8c0.1-0.1,0.2-0.2,0.4-0.2s0.3,0,0.5,0s0.3,0.1,0.5,0.1
	c0,0.1,0.1,0.1,0.1,0.1C10,5,10.2,5.1,10.3,5.3c0,0,0,0.1,0.1,0.1c0,0,0-0.1,0-0.1c0.1-0.2,0.1-0.5,0-0.7c0-0.1,0-0.2-0.1-0.3
	C10.2,4.1,10,4,9.8,3.8c0,0-0.1,0-0.1-0.1c-0.2,0-0.3-0.1-0.5-0.1s-0.3,0-0.5,0S8.4,3.7,8.3,3.8C8.1,4,8,4.1,7.9,4.2
	c0,0.1-0.1,0.2-0.1,0.3C7.7,4.8,7.7,5,7.8,5.4C7.8,5.3,7.8,5.4,7.8,5.4z"/>
<path class="st2" d="M4.4,5.1L4.3,5V4.9c0-0.1-0.1-0.1-0.2-0.2C4,4.6,3.9,4.6,3.8,4.6c-0.1,0-0.1,0-0.2,0c-0.1,0-0.2,0-0.3,0.1
	L3.2,4.8C3.1,4.8,3,4.9,3,5s0,0.1,0,0.2c0,0.1,0,0.1,0,0.2c0,0.1,0.1,0.1,0.1,0.2c0,0.1,0.1,0.1,0.1,0.2l0.1-0.1
	c0.1-0.1,0.2-0.1,0.3-0.1c0.1,0,0.1,0,0.2,0c0.1,0,0.2,0,0.3,0.1c0.1,0.1,0.1,0.1,0.2,0.1c0,0,0,0,0,0c0.2,0.2,0.2,0.1,0.2,0
	c0-0.1,0.1-0.2,0.1-0.3V5.4C4.6,5.3,4.5,5.2,4.4,5.1z"/>
<path class="st2" d="M10.9,14c0.1-0.1,0.2-0.1,0.4-0.1c0.2,0,0.3,0.1,0.4,0.2c0.4-0.3,0.3-1.2-0.4-1.2C10.6,12.9,10.4,13.7,10.9,14z
	"/>
<path class="st2" d="M46.1,3.7c0.4,0,0.7,0.2,0.8,0.5c0.3-0.6,0-1.5-0.8-1.5S45,3.6,45.3,4.2C45.4,3.9,45.7,3.7,46.1,3.7z"/>
<path class="st2" d="M39.9,5.6c0.3-0.6,0.7-1,1.2-1.3c0.6-0.3,1.3-0.2,1.7,0.2C42.9,4.6,43,4.8,43,5c0-0.1,0-0.1,0.1-0.2
	c0.1-0.4,0-0.9-0.3-1.3c-0.4-0.4-1.1-0.5-1.7-0.2c-0.5,0.3-0.9,0.7-1.2,1.3c-0.2,0.5-0.6,1.6-0.4,2.4C39.6,6.4,39.8,5.9,39.9,5.6z"
	/>
</svg>
