<?xml version="1.0" encoding="utf-8"?>
<!-- Generator: Adobe Illustrator 28.1.0, SVG Export Plug-In . SVG Version: 6.00 Build 0)  -->
<svg version="1.1" id="Layer_1" xmlns="http://www.w3.org/2000/svg" xmlns:xlink="http://www.w3.org/1999/xlink" x="0px" y="0px"
	 width="20px" height="20px" viewBox="0 0 20 20" style="enable-background:new 0 0 20 20;" xml:space="preserve">
<style type="text/css">
	.st0{display:none;}
	.st1{display:inline;fill:#909BEE;}
	.st2{opacity:0.1;enable-background:new    ;}
	.st3{opacity:0.1;}
	.st4{opacity:3.000000e-02;enable-background:new    ;}
	.st5{opacity:3.000000e-02;}
	.st6{enable-background:new    ;}
</style>
<g id="Layer_1_00000004533207639502911610000010823398578599944094_">
</g>
<g id="Layer_2_00000150801979297834484470000011180365499571828369_" class="st0">
	<rect class="st1" width="20" height="20"/>
</g>
<path class="st2" d="M15.4,4.8L15.4,4.8c0-0.2-0.1-0.3-0.1-0.3c0-0.1-0.1-0.1-0.2-0.2L15,4.2c-0.1,0-0.2-0.1-0.2-0.1
	C14.5,4,14.3,4,14.1,4c-0.1,0-0.2,0-0.3,0s-0.2,0-0.2,0.1c-0.1,0-0.1,0.1-0.2,0.1c-0.2,0.1-0.2,0.2-0.3,0.3C13,4.6,13,4.8,13,4.9
	c0,0.2,0.1,0.4,0.2,0.6c0.1,0.1,0.1,0.2,0.3,0.3c0.1,0,0.1,0.1,0.2,0.1C13.9,6,14,6,14.1,6c0.2,0,0.3,0,0.5,0s0.3-0.1,0.5-0.2
	c0.2-0.2,0.4-0.4,0.4-0.6C15.4,5,15.4,4.9,15.4,4.8z"/>
<g class="st3">
	<path d="M4.7,5.5C4.5,5.3,4.2,5.2,3.8,5.3c-0.4,0.1-0.7,0.5-1,0.9c0,0.1-0.1,0.3-0.2,0.5c0,0.1-0.1,0.1-0.1,0.2l0,0L2.4,7
		C2.3,7.1,2.2,7.3,2.2,7.5c-0.1,0.2-0.1,0.4,0,0.6c0.1,0.3,0.3,0.6,0.5,0.7C3,9,3.3,9.1,3.6,9C4,8.9,4.1,8.6,4.2,8.2
		c0-0.1,0-0.1,0-0.2c0-0.1,0-0.3,0.1-0.4V7.5l0,0c0-0.1,0.1-0.1,0.1-0.2c0,0,0-0.1,0.1-0.1l0,0l0,0C4.6,7.1,4.6,7.1,4.7,7
		C4.8,6.9,4.9,6.7,5,6.4C5,6.1,5,5.8,4.7,5.5z"/>
	<path d="M4.5,7.3C4.4,7.3,4.4,7.3,4.5,7.3L4.5,7.3z"/>
</g>
<path class="st2" d="M18.9,0c0,0.3,0,0.7,0.1,1c0,1.7,0.1,3.3,0,5c-0.1,1.2-0.3,2.5-0.4,3.7c0,0.4,0,0.9-0.1,1.3
	c0,0.3-0.3,0.4-0.6,0.4c-0.3,0-0.5-0.2-0.8-0.4s-0.5-0.3-0.8-0.5c-0.5-0.3-1.1-0.6-1.7-0.8c-0.4-0.2-0.8-0.3-1.2-0.4
	c-0.2,0-0.4,0-0.6,0h-0.1c-0.1-0.1-0.2-0.2-0.2-0.3c-0.4-0.7-0.7-1.6-1.7-1.7c-0.6-0.1-0.8,0.9-0.2,1c0.8,0.1,0.9,1.3,1.4,1.8
	c0.3,0.3,0.5,0.3,0.9,0.3c0.4-0.1,0.7,0.1,1.1,0.2c0.7,0.3,1.3,0.6,1.9,0.9c0.3,0.2,0.6,0.3,0.8,0.6c0.3,0.3,0.3,0.6,0.3,1
	s0,0.9-0.4,1.2c-0.3,0.4-0.8,0.6-1.3,0.8c-1.2,0.5-2.3,1-3.5,1.4c-1.1,0.4-2.2,0.5-3.3,0.6c-0.6,0-1.2-0.1-1.8-0.2
	C5,16.9,3.3,16.4,2,15c-0.6-0.7-2-4-2-7v12h20V0H18.9z"/>
<path class="st2" d="M4.9,14.6c0-0.1-0.1-0.2-0.2-0.3s-0.3-0.1-0.4-0.1l0,0l0,0l0,0l0,0c0-0.1-0.1-0.1-0.1-0.2
	c-0.1-0.2-0.3-0.4-0.6-0.4c-0.2,0-0.4,0.2-0.5,0.4c0,0.1,0,0.2,0,0.4c0,0.1,0,0.1,0.1,0.2c0,0,0,0.1,0.1,0.1c0,0.1,0.1,0.1,0.1,0.2
	C3.4,15,3.5,15,3.5,15s0.1,0.1,0.2,0.1c0,0,0,0,0.1,0l0.1,0.1c0.1,0.1,0.2,0.1,0.4,0.1s0.3,0,0.5,0c0.1,0,0.2-0.1,0.3-0.2
	C4.9,14.9,4.9,14.7,4.9,14.6z"/>
<path class="st2" d="M5.5,12.8c0-0.1-0.1-0.1-0.2-0.2c0,0,0,0-0.1,0S5.1,12.5,5,12.5s-0.1,0-0.2,0s-0.1,0-0.2,0.1
	c-0.1,0-0.1,0.1-0.1,0.1s0,0.1-0.1,0.1c0,0.1,0,0.2,0,0.3c0,0,0,0.1,0.1,0.1c0,0.1,0.1,0.1,0.2,0.2c0,0,0,0,0.1,0s0.1,0.1,0.2,0.1
	s0.1,0,0.2,0s0.1,0,0.2-0.1c0.1,0,0.1-0.1,0.1-0.1s0-0.1,0.1-0.1c0-0.1,0-0.2,0-0.3C5.5,12.8,5.5,12.8,5.5,12.8z"/>
<path class="st2" d="M4.3,11.3c0-0.1-0.1-0.2-0.1-0.2L4.1,11l0,0v-0.1c0-0.1-0.1-0.1-0.1-0.1s-0.1-0.1-0.2-0.1H3.7
	c-0.1,0-0.2,0-0.3,0.1l-0.1,0.1C3.2,11,3.2,11,3.2,11.1l0,0c0,0.1,0,0.1,0,0.2l0,0c0,0.1,0,0.1,0,0.2c0,0.1,0,0.1,0.1,0.2l0,0
	l0.1,0.1l0,0l0.1,0.1c0,0,0.1,0,0.1,0.1l0,0c0.1,0,0.1,0,0.2,0l0,0c0.1,0,0.1,0,0.2,0s0.1-0.1,0.2-0.1c0,0,0.1-0.1,0.1-0.2
	c0-0.1,0-0.1,0-0.2C4.3,11.4,4.3,11.3,4.3,11.3z"/>
<path class="st2" d="M7.5,9.7c-0.6,0-0.6,1,0,1S8.1,9.7,7.5,9.7z"/>
<path class="st2" d="M18.1,1.5c0-0.1-0.1-0.1-0.1-0.2c0,0,0,0-0.1-0.1c-0.1,0-0.1-0.1-0.2-0.1S17.6,1,17.5,1s-0.2-0.1-0.3-0.1l0,0
	l0,0l0,0l0,0l0,0c0,0-0.1-0.1-0.2-0.1s-0.1,0-0.2,0s-0.1,0-0.2,0.1s-0.2,0.2-0.2,0.3s0,0.3,0.1,0.4s0.2,0.2,0.3,0.3
	c0,0,0.1,0.1,0.2,0.1s0.2,0,0.2,0.1l0,0c0,0.1,0.1,0.1,0.1,0.1s0.1,0.1,0.2,0.1s0.1,0,0.2,0s0.1,0,0.2-0.1s0.2-0.2,0.2-0.3V1.8
	C18.2,1.7,18.1,1.6,18.1,1.5z"/>
<path class="st2" d="M17.3,3.7c-0.6,0-0.6,1,0,1C18,4.7,18,3.7,17.3,3.7z"/>
<path class="st4" d="M13.4,5.2c0.1,0,0.1-0.1,0.2-0.1C13.6,5,13.7,5,13.8,5c0.1,0,0.2,0,0.3,0c0.2,0,0.4,0,0.7,0.1
	c0,0,0.1,0.1,0.2,0.1l0.1,0.1c0.1,0.1,0.2,0.1,0.2,0.2c0,0,0,0,0,0c0.1-0.1,0.2-0.2,0.2-0.3c-0.1-0.2-0.1-0.3-0.1-0.4
	c0-0.2-0.1-0.3-0.1-0.3c0-0.1-0.1-0.1-0.2-0.2L15,4.2c-0.1,0-0.2-0.1-0.2-0.1C14.5,4,14.3,4,14.1,4c-0.1,0-0.2,0-0.3,0
	c-0.1,0-0.2,0-0.2,0.1c-0.1,0-0.1,0.1-0.2,0.1c-0.2,0.1-0.2,0.2-0.3,0.3C13,4.6,13,4.8,13,4.9c0,0.2,0.1,0.3,0.2,0.5
	C13.2,5.3,13.3,5.3,13.4,5.2z"/>
<path class="st5" d="M2.3,8.2c0-0.1,0.1-0.2,0.1-0.2l0.1-0.1c0-0.1,0.1-0.1,0.1-0.2c0.1-0.2,0.2-0.4,0.2-0.5c0.3-0.4,0.6-0.8,1-0.9
	c0.4-0.1,0.7,0,0.9,0.2c0.1,0.1,0.1,0.1,0.2,0.2C4.9,6.6,5,6.5,5,6.4c0-0.3,0-0.6-0.3-0.9C4.5,5.3,4.2,5.2,3.8,5.3
	c-0.4,0.1-0.7,0.5-1,0.9c0,0.1-0.1,0.3-0.2,0.5c0,0.1-0.1,0.1-0.1,0.2L2.4,7C2.3,7.1,2.2,7.3,2.2,7.5c-0.1,0.2-0.1,0.4,0,0.6
	C2.2,8.1,2.2,8.2,2.3,8.2z"/>
<g class="st5">
	<path class="st6" d="M10.6,8.3C10.6,8.3,10.6,8.3,10.6,8.3c0.1,0,0.1,0,0.2,0c1,0.1,1.3,1,1.7,1.7c0,0.1,0.1,0.2,0.2,0.3h0.1
		c0.2,0,0.4,0,0.6,0c0.4,0.1,0.8,0.2,1.2,0.4c0.6,0.2,1.2,0.5,1.7,0.8c0.3,0.2,0.5,0.3,0.8,0.5c0.3,0.2,0.5,0.4,0.8,0.4
		c0.3,0,0.6-0.1,0.6-0.4c0.1-0.4,0.1-0.9,0.1-1.3C18.7,9.5,18.9,8.2,19,7c0-0.7,0-1.4,0-2.2c0,0.4,0,0.8,0,1.2
		c-0.1,1.2-0.3,2.5-0.4,3.7c0,0.4,0,0.9-0.1,1.3c0,0.3-0.3,0.4-0.6,0.4c-0.3,0-0.5-0.2-0.8-0.4c-0.3-0.2-0.5-0.3-0.8-0.5
		c-0.5-0.3-1.1-0.6-1.7-0.8c-0.4-0.2-0.8-0.3-1.2-0.4c-0.2,0-0.4,0-0.6,0h-0.1c-0.1-0.1-0.2-0.2-0.2-0.3c-0.4-0.7-0.7-1.6-1.7-1.7
		C10.2,7.2,10,8.2,10.6,8.3z"/>
	<path class="st6" d="M6.7,17.9c0.6,0.1,1.2,0.2,1.8,0.2c1.1-0.1,2.2-0.2,3.3-0.6c1.2-0.4,2.3-0.9,3.5-1.4c0.5-0.2,1-0.4,1.3-0.8
		C17,15,17,14.5,17,14.1c0-0.2,0-0.3,0-0.5c0,0.3-0.1,0.5-0.4,0.7c-0.3,0.4-0.8,0.6-1.3,0.8c-1.2,0.5-2.3,1-3.5,1.4
		c-1.1,0.4-2.2,0.5-3.3,0.6c-0.6,0-1.2-0.1-1.8-0.2C5,16.9,3.3,16.4,2,15c-0.6-0.7-2-4-2-7v1c0,3,1.4,6.3,2,7
		C3.3,17.4,5,17.9,6.7,17.9z"/>
</g>
<path class="st4" d="M3.3,14.7C3.3,14.7,3.3,14.7,3.3,14.7c0.1-0.1,0.2-0.1,0.3-0.1c0.3,0,0.5,0.2,0.6,0.4c0,0.1,0.1,0.1,0.1,0.2
	c0.1,0,0.3,0,0.4,0.1c0,0,0.1,0,0.1,0c0.1,0,0.2-0.1,0.3-0.2c-0.2-0.2-0.2-0.4-0.2-0.5c0-0.1-0.1-0.2-0.2-0.3
	c-0.1-0.1-0.3-0.1-0.4-0.1c0-0.1-0.1-0.1-0.1-0.2c-0.1-0.2-0.3-0.4-0.6-0.4c-0.2,0-0.4,0.2-0.5,0.4c0,0.1,0,0.2,0,0.4
	c0,0.1,0,0.1,0.1,0.2C3.2,14.6,3.2,14.7,3.3,14.7z"/>
<path class="st4" d="M5.5,12.8c0-0.1-0.1-0.1-0.2-0.2c0,0,0,0-0.1,0c-0.1,0-0.1-0.1-0.2-0.1s-0.1,0-0.2,0c-0.1,0-0.1,0-0.2,0.1
	c-0.1,0-0.1,0.1-0.1,0.1s0,0.1-0.1,0.1c0,0.1,0,0.2,0,0.3c0,0,0,0.1,0.1,0.1c0,0.1,0.1,0.1,0.2,0.2c0,0,0,0,0.1,0
	c0.1,0,0.1,0.1,0.2,0.1s0.1,0,0.2,0c0.1,0,0.1,0,0.2-0.1c0.1,0,0.1-0.1,0.1-0.1s0-0.1,0.1-0.1c0-0.1,0-0.2,0-0.3
	C5.5,12.8,5.5,12.8,5.5,12.8z"/>
<path class="st4" d="M4.2,11.1L4.1,11v-0.1c0-0.1-0.1-0.1-0.1-0.1s-0.1-0.1-0.2-0.1H3.7c-0.1,0-0.2,0-0.3,0.1l-0.1,0.1
	C3.2,11,3.2,11,3.2,11.1c0,0.1,0,0.1,0,0.2c0,0.1,0,0.1,0,0.2s0,0.1,0.1,0.2l0.1,0.1c0.1-0.1,0.2-0.1,0.3-0.1h0.1
	c0.1,0,0.2,0.1,0.2,0.1s0.1,0,0.1,0.1v0c0,0,0.1,0,0.1,0c0,0,0.1-0.1,0.1-0.2c0-0.1,0-0.1,0-0.2s0-0.2,0-0.2
	C4.3,11.2,4.2,11.1,4.2,11.1z"/>
<path class="st4" d="M7.5,10.7c0.6,0,0.6-1,0-1S6.9,10.7,7.5,10.7z"/>
<path class="st4" d="M16.7,1.8C16.7,1.8,16.8,1.8,16.7,1.8c0.2,0,0.2,0,0.3,0s0.2,0.1,0.2,0.1c0.1,0,0.2,0.1,0.3,0.1
	s0.1,0.1,0.2,0.1c0.1,0,0.1,0.1,0.2,0.1C18,2.1,18.1,2,18.1,1.9V1.8c0.1-0.1,0-0.2,0-0.3S18,1.4,18,1.3c0,0,0,0-0.1-0.1
	c-0.1,0-0.1-0.1-0.2-0.1c-0.1,0-0.1-0.1-0.2-0.1s-0.2-0.1-0.3-0.1c0,0-0.1-0.1-0.2-0.1s-0.1,0-0.2,0c-0.1,0-0.1,0-0.2,0.1
	c-0.1,0.1-0.2,0.2-0.2,0.3c0,0.1,0,0.3,0.1,0.4C16.6,1.7,16.6,1.7,16.7,1.8z"/>
<path class="st4" d="M17.3,4.7c0.7,0,0.7-1,0-1C16.7,3.7,16.7,4.7,17.3,4.7z"/>
</svg>
