<?xml version="1.0" encoding="utf-8"?>
<!-- Generator: Adobe Illustrator 28.1.0, SVG Export Plug-In . SVG Version: 6.00 Build 0)  -->
<svg version="1.1" id="Layer_1" xmlns="http://www.w3.org/2000/svg" xmlns:xlink="http://www.w3.org/1999/xlink" x="0px" y="0px"
	 width="20px" height="20px" viewBox="0 0 20 20" style="enable-background:new 0 0 20 20;" xml:space="preserve">
<style type="text/css">
	.st0{display:none;}
	.st1{display:inline;fill:#909BEE;}
	.st2{opacity:0.1;enable-background:new    ;}
	.st3{opacity:0.1;}
	.st4{opacity:3.000000e-02;enable-background:new    ;}
	.st5{opacity:3.000000e-02;}
	.st6{enable-background:new    ;}
</style>
<g id="Layer_1_00000035527866146345868570000007078386215922995090_">
</g>
<g id="Layer_2_00000047758317523501746430000000070385004199199416_" class="st0">
	<rect class="st1" width="20" height="20"/>
</g>
<path class="st2" d="M5.4,4.8L5.4,4.8c0-0.2-0.1-0.3-0.1-0.3c0-0.1-0.1-0.1-0.2-0.2L5,4.2c-0.1,0-0.2-0.1-0.2-0.1C4.5,4,4.3,4,4.1,4
	C4,4,3.9,4,3.8,4C3.7,4,3.6,4,3.6,4.1c-0.1,0-0.1,0.1-0.2,0.1C3.2,4.3,3.2,4.4,3.1,4.5C3,4.6,3,4.8,3,4.9c0,0.2,0.1,0.4,0.2,0.6
	c0.1,0.1,0.1,0.2,0.3,0.3c0.1,0,0.1,0.1,0.2,0.1C3.9,6,4,6,4.1,6c0.2,0,0.3,0,0.5,0s0.3-0.1,0.5-0.2c0.2-0.2,0.4-0.4,0.4-0.6
	C5.4,5,5.4,4.9,5.4,4.8z"/>
<g class="st3">
	<path d="M15.2,11c0.3,0.2,0.7,0.1,0.9,0c0.4-0.3,0.5-0.7,0.6-1.2c0-0.2,0.1-0.4,0.1-0.5s0-0.2,0.1-0.2l0,0c0,0,0-0.1,0.1-0.1
		c0-0.3,0-0.5,0-0.7s0-0.4-0.1-0.5c-0.1-0.3-0.4-0.5-0.7-0.5c-0.3-0.1-0.7-0.1-0.9,0.1C15,7.6,14.9,7.9,15,8.3c0,0.1,0,0.1,0,0.2
		c0,0.1,0,0.3,0,0.4V9l0,0c0,0.1,0,0.1,0,0.2v0.1l0,0l0,0c0,0.1-0.1,0.1-0.1,0.2c-0.1,0.2-0.2,0.5-0.1,0.7
		C14.8,10.5,14.9,10.8,15.2,11z"/>
	<path d="M14.9,9.2C15,9.2,15,9.2,14.9,9.2L14.9,9.2z"/>
</g>
<path class="st2" d="M13.3,12.3c-0.1,0-0.3,0.1-0.3,0.2c-0.1,0.1-0.1,0.2-0.1,0.4l0,0l0,0l0,0l0,0c-0.1,0-0.2,0-0.2,0.1
	c-0.4,0-0.7,0.2-0.7,0.4c-0.1,0.2,0.1,0.5,0.3,0.6c0.1,0.1,0.2,0.1,0.3,0.1s0.1,0,0.2,0h0.1c0.1,0,0.1-0.1,0.2-0.1
	c0.1,0,0.1,0,0.2-0.1c0.1,0,0.1-0.1,0.1-0.1s0,0,0-0.1c0,0,0.1,0,0.1-0.1c0.1-0.1,0.2-0.2,0.2-0.3c0.1-0.2,0.1-0.3,0.1-0.5
	c0-0.1-0.1-0.3-0.2-0.3C13.6,12.3,13.4,12.3,13.3,12.3z"/>
<path class="st2" d="M6.5,2.8c0-0.1-0.1-0.1-0.2-0.2c0,0,0,0-0.1,0S6.1,2.5,6,2.5s-0.1,0-0.2,0s-0.1,0-0.2,0.1
	c-0.1,0-0.1,0.1-0.1,0.1s0,0.1-0.1,0.1c0,0.1,0,0.2,0,0.3c0,0,0,0.1,0.1,0.1c0,0.1,0.1,0.1,0.2,0.2c0,0,0,0,0.1,0S5.9,3.5,6,3.5
	s0.1,0,0.2,0s0.1,0,0.2-0.1c0.1,0,0.1-0.1,0.1-0.1s0-0.1,0.1-0.1c0-0.1,0-0.2,0-0.3C6.5,2.8,6.5,2.8,6.5,2.8z"/>
<path class="st2" d="M3.3,10.4c0-0.1-0.1-0.2-0.1-0.2l-0.1-0.1l0,0V10C3.1,9.9,3,9.9,3,9.9S2.9,9.8,2.8,9.8H2.7
	c-0.1,0-0.2,0-0.3,0.1L2.3,10c-0.1,0.1-0.1,0.1-0.1,0.2l0,0c0,0.1,0,0.1,0,0.2l0,0c0,0.1,0,0.1,0,0.2c0,0.1,0,0.1,0.1,0.2l0,0
	l0.1,0.1l0,0L2.5,11c0,0,0.1,0,0.1,0.1l0,0c0.1,0,0.1,0,0.2,0l0,0c0.1,0,0.1,0,0.2,0S3.1,11,3.2,11c0,0,0.1-0.1,0.1-0.2
	c0-0.1,0-0.1,0-0.2C3.3,10.5,3.3,10.4,3.3,10.4z"/>
<path class="st2" d="M7.5,3.7c-0.6,0-0.6,1,0,1S8.1,3.7,7.5,3.7z"/>
<path class="st2" d="M7.1,14.5c0-0.1-0.1-0.1-0.1-0.2c0,0,0,0-0.1-0.1c-0.1,0-0.1-0.1-0.2-0.1S6.6,14,6.5,14s-0.2-0.1-0.3-0.1l0,0
	l0,0l0,0l0,0l0,0c0,0-0.1-0.1-0.2-0.1s-0.1,0-0.2,0s-0.1,0-0.2,0.1s-0.2,0.2-0.2,0.3s0,0.3,0.1,0.4c0.1,0.1,0.2,0.2,0.3,0.3
	C5.9,14.9,6,15,6.1,15s0.2,0,0.2,0.1l0,0c0,0.1,0.1,0.1,0.1,0.1s0.1,0.1,0.2,0.1s0.1,0,0.2,0s0.1,0,0.2-0.1s0.2-0.2,0.2-0.3v-0.1
	C7.2,14.7,7.1,14.6,7.1,14.5z"/>
<path class="st2" d="M13.3,1.7c-0.6,0-0.6,1,0,1C14,2.7,14,1.7,13.3,1.7z"/>
<path class="st2" d="M19.4-0.3C18-0.3,16.9,0,15.5,0c0.7,0.4,1,1.2,1.2,1.9c0.2,0.8,0.2,1.5,0.4,2.3c0.3,1.2,1.1,2.1,1.4,3.3
	c0.8,2.3-0.1,4.8-1.1,7.1c-0.2,0.4-0.4,0.9-0.7,1.2c-0.7,0.7-1.8,0.7-2.8,0.9c-1.1,0.2-2.3,0.2-3.4,0.3c-1.1,0.1-2.1,0.1-3.2,0
	c-2-0.1-4.1-0.8-5.5-2.3c-0.1-0.1-0.2-0.3-0.1-0.5c0-0.1,0.1-0.1,0.2-0.1c0.6-0.3,1.3-0.5,2-0.6c0.3,0,0.5-0.1,0.7-0.2
	c0.2-0.1,0.3-0.5,0.2-0.7c-0.1-0.2-0.4-0.2-0.6-0.2c-0.6,0.1-1.2,0.4-1.8,0.5s-1.4,0-1.7-0.5c-0.1-0.2-0.2-0.5-0.2-0.7
	C0.4,10.9,0.2,10,0.1,9.2C-0.1,9.8,0,10.4,0,11c0,3-0.2,6.4-0.2,9.4c6.7,0,13.6-0.4,20.3-0.4c0-6.6,0.1-13.7,0.1-20.3
	C20-0.3,19.5-0.3,19.4-0.3z"/>
<path class="st4" d="M3.4,5.2c0.1,0,0.1-0.1,0.2-0.1C3.6,5,3.7,5,3.8,5C3.9,5,4,5,4.1,5c0.2,0,0.4,0,0.7,0.1c0,0,0.1,0.1,0.2,0.1
	l0.1,0.1c0.1,0.1,0.2,0.1,0.2,0.2c0,0,0,0,0,0c0.1-0.1,0.2-0.2,0.2-0.3C5.4,5,5.4,4.9,5.4,4.8c0-0.2-0.1-0.3-0.1-0.3
	c0-0.1-0.1-0.1-0.2-0.2L5,4.2c-0.1,0-0.2-0.1-0.2-0.1C4.5,4,4.3,4,4.1,4C4,4,3.9,4,3.8,4C3.7,4,3.6,4,3.6,4.1
	c-0.1,0-0.1,0.1-0.2,0.1C3.2,4.3,3.2,4.4,3.1,4.5C3,4.6,3,4.8,3,4.9c0,0.2,0.1,0.3,0.2,0.5C3.2,5.3,3.3,5.3,3.4,5.2z"/>
<g class="st5">
	<path d="M14.9,10.6C14.9,10.5,14.9,10.5,14.9,10.6c0-0.2,0.1-0.2,0.1-0.3v-0.1c0-0.1,0-0.1,0-0.2V9.9c0-0.1,0-0.3,0-0.4
		s0-0.1,0-0.2c0,0.1-0.1,0.1-0.1,0.2c-0.1,0.2-0.2,0.5-0.1,0.7C14.8,10.3,14.8,10.5,14.9,10.6z"/>
	<path d="M16.9,7.8c-0.1-0.3-0.4-0.5-0.7-0.5c-0.3-0.1-0.7-0.1-0.9,0.1C15,7.6,14.9,7.9,15,8.3c0,0.1,0,0.1,0,0.2c0,0.1,0,0.2,0,0.3
		c0-0.1,0.2-0.3,0.3-0.4c0.2-0.2,0.6-0.2,0.9-0.1c0.3,0,0.6,0.2,0.7,0.5c0,0,0.1,0.1,0.1,0.2c0,0,0,0,0,0c0-0.3,0-0.5,0-0.7
		S17,7.9,16.9,7.8z"/>
</g>
<path class="st4" d="M12.3,14C12.3,14,12.4,14,12.3,14c0.2,0,0.3,0,0.4,0c0-0.1,0.1-0.1,0.2-0.1c0-0.2,0-0.3,0.1-0.4
	c0-0.1,0.2-0.2,0.3-0.2c0.1,0,0.3,0,0.3,0.2c0.1-0.1,0.1-0.1,0.1-0.2c0.1-0.2,0.1-0.3,0.1-0.5c0-0.1-0.1-0.3-0.2-0.3
	c0-0.2-0.2-0.2-0.3-0.2c-0.1,0-0.3,0.1-0.3,0.2c-0.1,0.1-0.1,0.2-0.1,0.4c-0.1,0-0.2,0-0.2,0.1c-0.4,0-0.7,0.2-0.7,0.4
	C11.9,13.6,12.1,13.9,12.3,14z"/>
<path class="st4" d="M6.5,2.8c0-0.1-0.1-0.1-0.2-0.2c0,0,0,0-0.1,0C6.1,2.6,6.1,2.5,6,2.5s-0.1,0-0.2,0c-0.1,0-0.1,0-0.2,0.1
	c-0.1,0-0.1,0.1-0.1,0.1s0,0.1-0.1,0.1c0,0.1,0,0.2,0,0.3c0,0,0,0.1,0.1,0.1c0,0.1,0.1,0.1,0.2,0.2c0,0,0,0,0.1,0
	c0.1,0,0.1,0.1,0.2,0.1s0.1,0,0.2,0c0.1,0,0.1,0,0.2-0.1c0.1,0,0.1-0.1,0.1-0.1s0-0.1,0.1-0.1c0-0.1,0-0.2,0-0.3
	C6.5,2.8,6.5,2.8,6.5,2.8z"/>
<path class="st4" d="M3.2,10.2l-0.1-0.1V10C3.1,9.9,3,9.9,3,9.9S2.9,9.8,2.8,9.8H2.7c-0.1,0-0.2,0-0.3,0.1L2.3,10
	c-0.1,0.1-0.1,0.1-0.1,0.2c0,0.1,0,0.1,0,0.2c0,0.1,0,0.1,0,0.2c0,0.1,0,0.1,0.1,0.2l0.1,0.1c0.1-0.1,0.2-0.1,0.3-0.1h0.1
	c0.1,0,0.2,0.1,0.2,0.1s0.1,0,0.1,0.1v0c0,0,0.1,0,0.1,0c0,0,0.1-0.1,0.1-0.2c0-0.1,0-0.1,0-0.2c0-0.1,0-0.2,0-0.2
	C3.3,10.3,3.2,10.2,3.2,10.2z"/>
<path class="st4" d="M7.5,4.7c0.6,0,0.6-1,0-1S6.9,4.7,7.5,4.7z"/>
<path class="st4" d="M7.1,14.5c0-0.1-0.1-0.1-0.1-0.2c0,0,0,0-0.1-0.1c-0.1,0-0.1-0.1-0.2-0.1c-0.1,0-0.1-0.1-0.2-0.1
	s-0.2-0.1-0.3-0.1c0,0-0.1-0.1-0.2-0.1s-0.1,0-0.2,0c-0.1,0-0.1,0-0.2,0.1c-0.1,0.1-0.2,0.2-0.2,0.3c0,0.1,0,0.3,0.1,0.4
	c0.1,0.1,0.1,0.1,0.2,0.2c0,0,0,0,0.1,0c0.1,0,0.1,0,0.2,0s0.2,0.1,0.2,0.1c0.1,0,0.2,0.1,0.3,0.1s0.1,0.1,0.2,0.1
	c0.1,0,0.1,0.1,0.2,0.1c0,0,0,0,0,0c0,0,0,0,0.1,0c0.1-0.1,0.2-0.2,0.2-0.3v-0.1C7.2,14.7,7.1,14.6,7.1,14.5z"/>
<path class="st4" d="M13.3,2.7c0.7,0,0.7-1,0-1C12.7,1.7,12.7,2.7,13.3,2.7z"/>
<g class="st5">
	<path class="st6" d="M1.9,15.1c-0.1,0-0.2,0-0.2,0.1c-0.1,0.2,0,0.4,0.1,0.5c1.4,1.5,3.5,2.2,5.5,2.3c1.1,0.1,2.1,0.1,3.2,0
		s2.3-0.1,3.4-0.3c1-0.2,2.1-0.2,2.8-0.9c0.3-0.3,0.5-0.8,0.7-1.2c0.8-1.8,1.5-3.8,1.4-5.7c-0.1,1.6-0.7,3.2-1.4,4.7
		c-0.2,0.4-0.4,0.9-0.7,1.2c-0.7,0.7-1.8,0.7-2.8,0.9c-1.1,0.2-2.3,0.2-3.4,0.3s-2.1,0.1-3.2,0c-1.9-0.1-3.8-0.7-5.2-2
		C2.1,15,2,15.1,1.9,15.1z"/>
	<path class="st6" d="M0,12c0-0.1,0-0.2,0-0.3c0,2.8-0.1,6-0.1,8.7c0,0,0,0,0,0C-0.1,17.7,0,14.7,0,12z"/>
	<path class="st6" d="M0.1,10.2c0.1,0.8,0.3,1.7,0.4,2.5c0,0.2,0.1,0.5,0.2,0.7C1,13.9,1.8,14,2.4,13.9c0,0,0,0,0,0
		c0.3-0.1,0.7-0.2,1.1-0.3c0.2-0.1,0.5-0.1,0.7-0.2c0.1,0,0.1,0,0.2,0c0.1,0,0.2-0.1,0.2-0.1c0.2-0.1,0.3-0.5,0.2-0.7
		c-0.1-0.2-0.4-0.2-0.6-0.2c-0.6,0.1-1.2,0.4-1.8,0.5c-0.6,0.1-1.4,0-1.7-0.5c-0.1-0.2-0.2-0.5-0.2-0.7C0.4,10.9,0.2,10,0.1,9.2
		c-0.2,0.5-0.1,1-0.1,1.6C0,10.6,0,10.4,0.1,10.2z"/>
</g>
</svg>
