<?xml version="1.0" encoding="utf-8"?>
<!-- Generator: Adobe Illustrator 28.1.0, SVG Export Plug-In . SVG Version: 6.00 Build 0)  -->
<svg version="1.1" id="Layer_1" xmlns="http://www.w3.org/2000/svg" xmlns:xlink="http://www.w3.org/1999/xlink" x="0px" y="0px"
	 width="80px" height="20px" viewBox="0 0 80 20" style="enable-background:new 0 0 80 20;" xml:space="preserve">
<style type="text/css">
	.st0{opacity:0.1;enable-background:new    ;}
	.st1{opacity:0.1;}
	.st2{opacity:3.000000e-02;}
	.st3{enable-background:new    ;}
	.st4{opacity:3.000000e-02;enable-background:new    ;}
</style>
<g id="Layer_1_00000034775336340526084240000005364180859607245463_">
</g>
<path class="st0" d="M72.3,13.4c0-0.1,0-0.2-0.1-0.2c-0.1-0.1-0.1-0.3-0.2-0.4c-0.1-0.1-0.2-0.2-0.3-0.3c-0.1-0.1-0.1-0.1-0.2-0.2
	c-0.1-0.1-0.2-0.1-0.4-0.2c-0.3-0.1-0.6-0.2-1-0.2c-0.2,0-0.4,0-0.5,0.1c-0.1,0-0.3,0.1-0.4,0.1s-0.2,0.1-0.3,0.2
	c-0.3,0.2-0.4,0.4-0.5,0.6c-0.1,0.2-0.1,0.4-0.1,0.6c0.1,0.3,0.2,0.7,0.3,1c0.1,0.2,0.2,0.4,0.5,0.5c0.1,0.1,0.2,0.1,0.4,0.2
	c0.2,0.1,0.4,0.1,0.6,0.1c0.3,0,0.5,0,0.8,0c0.3-0.1,0.6-0.2,0.8-0.3c0.4-0.3,0.6-0.7,0.6-1C72.4,13.7,72.3,13.6,72.3,13.4z"/>
<g class="st1">
	<path d="M6.3,3C6,2.8,5.8,2.7,5.5,2.6C4.3,2.4,3.2,3.4,2.9,4.5c-0.1,0.4-0.1,0.9,0,1.3c0,0.4,0.1,0.8,0.4,1.1
		C3.4,7.2,3.7,7.4,4,7.5c0.5,0.1,1,0,1.3-0.4c0.2-0.4,0.2-0.8,0.3-1.2c0.2-0.7,1-1.3,1-2C6.6,3.5,6.5,3.2,6.3,3z"/>
	<path d="M5.9,5.3C5.9,5.3,5.9,5.4,5.9,5.3L5.9,5.3z"/>
</g>
<path class="st0" d="M59.7-0.2c4,0.4,9.4,1.1,13.4,1.5c1.4,0.1,3,0.3,4.1,1.2c2.2,1.7,1.9,5,1.4,7.7c-0.1,0.4-0.2,0.9-0.6,1.1
	c-0.2,0.1-0.4,0-0.6,0c-1.5-0.4-2.9-1.1-4.2-2c-1.1-0.8-2.5-2-3.7-1.3c1.6,1.3,3.3,2.5,4.9,3.8c0.5,0.4,1.1,0.9,1.2,1.6
	c0.2,1-0.8,1.8-1.6,2.4c-1.7,1.1-3.7,2.2-5.6,1.6c-0.6-0.2-1.1-0.5-1.6-0.7c-1.4-0.5-2.9-0.3-4.3,0c-8.7,1.3-17.2-0.4-26.2,1
	c-2.2,0.3-4.4,0.3-6.6,0c-3-0.4-6-0.8-9.1-0.8c-3.8,0-7.6,0.9-11.5,0.7c-2.5-0.1-5-0.1-6.8-2c-0.9-0.9-1.4-2-1.7-3.2
	c-0.2-0.6-0.3-1.2-0.3-1.9c0-0.3,0-1.7-0.3-1.7c-0.1,1,0.1,11.6,0,11.6c26.7,0,53.3,0,80,0c0-6.7,0.1-15.2,0.1-21.9
	C73.7-1.7,66-0.2,59.7-0.2z"/>
<path class="st0" d="M5.7,14.4c-0.1-0.2-0.2-0.4-0.5-0.5c-0.1,0-0.3,0-0.4-0.1s-0.1-0.1-0.2-0.2c-0.1-0.2-0.3-0.4-0.6-0.5
	s-0.6,0-0.8,0.2S3,13.8,3.1,14.1C3.3,14.6,4,15,4.5,15.2c0.3,0.1,0.7,0.1,1-0.1c0.1,0,0.1-0.1,0.2-0.2c0-0.1,0-0.2,0-0.3
	C5.8,14.6,5.8,14.5,5.7,14.4z"/>
<path class="st0" d="M67.1,10.3c-0.1-0.1-0.2-0.2-0.3-0.3c-0.4-0.3-0.8-0.6-1.3-0.8C65.4,9,65.2,9,64.9,9c-1.1,0.1,0.4,1.6,0.7,1.8
	c0.3,0.2,0.6,0.3,0.9,0.3C66.9,11,67.2,10.6,67.1,10.3L67.1,10.3z"/>
<path class="st0" d="M6.5,12C6.5,12,6.5,11.9,6.5,12c-0.3-0.4-0.9-0.4-1.1-0.1c-0.6,0.7,0.5,1.7,1.1,0.9C6.6,12.6,6.7,12.3,6.5,12z"
	/>
<path class="st0" d="M19.3,13.5C19,13.1,18.4,12.9,18,13c-1.5,0.5-0.6,2.9,0.9,2.2c0.5-0.3,0.8-1,0.6-1.5
	C19.4,13.6,19.4,13.6,19.3,13.5z"/>
<path class="st0" d="M4.9,10c0-0.2-0.1-0.3-0.2-0.4C4.5,9.4,4.4,9.3,4.3,9.2C3.9,9.1,3.5,9.4,3.4,9.7c-0.1,0.6,0.5,1.2,1.1,0.9
	C4.7,10.5,4.8,10.3,4.9,10C4.9,10.1,4.9,10,4.9,10z"/>
<path class="st0" d="M9.2,7.9c-0.9,0-0.9,1.3,0,1.3C10,9.2,10,7.9,9.2,7.9z"/>
<path class="st0" d="M62.7,2.6L62.7,2.6c-0.5,0-0.9,0.1-1.2,0.3c-1.3,0.8,0.1,1.9,1.1,1.9c0.4,0,0.8-0.1,1.1-0.3
	c0.3-0.2,0.5-0.6,0.5-1c0-0.3-0.3-0.6-0.6-0.8C63.4,2.6,63,2.6,62.7,2.6z"/>
<path class="st0" d="M74.7,4.3c-0.2-0.3-0.5-0.6-0.8-0.7c-0.4-0.2-0.7-0.4-1.2-0.5C72.4,3,72.1,2.9,71.8,3c-0.8,0.3-0.5,1.4,0,1.8
	c0.3,0.3,0.7,0.4,1.1,0.6c0.3,0.2,0.6,0.4,0.9,0.4c0.6,0,1.1-0.5,1-1C74.8,4.6,74.7,4.4,74.7,4.3z"/>
<path class="st0" d="M76.3,6.6c-1.3,0-1.3,2,0,2C77.6,8.7,77.6,6.6,76.3,6.6z"/>
<path class="st0" d="M22.8,13c-0.3-1.3-1.3-2.3-2.4-3S18.1,8.8,17,8.1c-1-0.7-1.9-1.7-2.6-2.8c2.4-0.7,5-1.1,7.5-1.1
	c-1.1-0.7-2.4-1-3.6-0.8c-1,0.2-2.9,0.2-3.8,0.3c-1.3,0.1-1.6,0-2.7-0.8S10,1,9.4-0.1C9.2-0.4,8.9-0.8,8.6-0.8
	C8.3-0.8,8-0.6,7.7-0.5c-0.5,0.1-1-0.3-1.5-0.7C5.3-1.9-1.2,0.2-2.3-0.1C-2.1,1.7,2.2,0,6.6,1.7C8.2,3,10,4,11.6,5.2
	c0.4,0.3,0.9,0.7,1.1,1.2S13,7.5,12.8,8c-0.3,0.4-0.7,0.6-1.1,0.9c-0.8,0.7-1.2,1.8-0.9,2.9c0.9-1.5,2.3-2.8,4-3.4
	c0,0,0.8,0.6,1.8,0.9c1,0.3,2.7,1.2,3.6,1.6C21.2,11.4,21.8,12.5,22.8,13z"/>
<g class="st2">
	<path class="st3" d="M11.7,9.9c0.4-0.3,0.8-0.5,1.1-0.9c0.1-0.4,0.1-0.8,0-1.2c0,0.1,0,0.1,0,0.2c-0.3,0.4-0.7,0.6-1.1,0.9
		c-0.7,0.6-1.1,1.6-0.9,2.6C10.9,10.9,11.2,10.3,11.7,9.9z"/>
	<path class="st3" d="M-0.8,0.8c2.3-0.4,6.3-1.5,7-1c0.5,0.4,1,0.8,1.5,0.7C8,0.4,8.3,0.2,8.6,0.2c0.3,0,0.6,0.4,0.8,0.7
		c0.6,1.1,1.3,2.2,2.4,3c1.1,0.8,1.4,0.9,2.7,0.8c0.9-0.1,2.8-0.1,3.8-0.3c0.3-0.1,0.7-0.1,1,0c0.9-0.1,1.7-0.2,2.6-0.2
		c-1.1-0.7-2.4-1-3.6-0.8c-1,0.2-2.9,0.2-3.8,0.3c-1.3,0.1-1.6,0-2.7-0.8C10.7,2.1,10,1,9.4-0.1C9.2-0.4,8.9-0.8,8.6-0.8
		C8.3-0.8,8-0.6,7.7-0.5c-0.5,0.1-1-0.3-1.5-0.7C5.3-1.9-1.2,0.2-2.3-0.1C-2.2,0.5-1.7,0.7-0.8,0.8z"/>
	<path class="st3" d="M20.4,10c-1.1-0.7-2.3-1.2-3.4-1.9c-0.7-0.5-1.4-1.2-2-2c-0.2,0.1-0.4,0.1-0.6,0.2C15.1,7.4,16,8.4,17,9.1
		c1.1,0.7,2.3,1.2,3.4,1.9c0.6,0.4,1.2,0.9,1.7,1.5c0.2,0.2,0.5,0.4,0.7,0.5C22.5,11.7,21.5,10.7,20.4,10z"/>
</g>
<g class="st4">
	<path class="st3" d="M80.1-0.5c0-0.3,0-0.7,0-1C73.7-1.7,66-0.2,59.7-0.2c1.8,0.2,3.9,0.4,6,0.7C70.5,0,75.6-0.6,80.1-0.5z"/>
	<path class="st3" d="M0,19.6c0,0.5,0,0.8,0,0.8c0,0,0,0,0,0C0,20.2,0,19.9,0,19.6z"/>
	<path class="st3" d="M78,11.3c-0.2,0.1-0.4,0-0.6,0c-1.5-0.4-2.9-1.1-4.2-2c-1.1-0.8-2.5-2-3.7-1.3c0.3,0.3,0.7,0.5,1.1,0.8
		c0.9,0.1,1.9,0.9,2.6,1.5c1.3,0.9,2.7,1.6,4.2,2c0.2,0,0.4,0.1,0.6,0c0.4-0.2,0.5-0.7,0.6-1.1c0.2-1.2,0.4-2.5,0.3-3.8
		c0,0.9-0.2,1.9-0.3,2.8C78.5,10.6,78.4,11.1,78,11.3z"/>
	<path class="st3" d="M0,9.8c0.3,0,0.3,1.4,0.3,1.7c0,0.7,0.1,1.3,0.3,1.9c0.3,1.2,0.8,2.3,1.7,3.2c1.8,1.9,4.3,1.9,6.8,2
		c3.9,0.2,7.7-0.7,11.5-0.7c3.1,0,6.1,0.4,9.1,0.8c2.2,0.3,4.4,0.3,6.6,0c9-1.4,17.5,0.3,26.2-1c1.4-0.3,2.9-0.5,4.3,0
		c0.5,0.2,1,0.5,1.6,0.7c1.9,0.6,3.9-0.5,5.6-1.6c0.8-0.6,1.8-1.4,1.6-2.4c0-0.1-0.1-0.2-0.1-0.2c-0.3,0.7-0.9,1.2-1.5,1.6
		c-1.7,1.1-3.7,2.2-5.6,1.6c-0.6-0.2-1.1-0.5-1.6-0.7c-1.4-0.5-2.9-0.3-4.3,0c-8.7,1.3-17.2-0.4-26.2,1c-2.2,0.3-4.4,0.3-6.6,0
		c-3-0.4-6-0.8-9.1-0.8c-3.8,0-7.6,0.9-11.5,0.7c-2.5-0.1-5-0.1-6.8-2c-0.9-0.9-1.4-2-1.7-3.2c-0.2-0.6-0.3-1.2-0.3-1.9
		c0-0.3,0-1.7-0.3-1.7c0,0.3,0,1.1,0,2.3C0,10.4,0,10,0,9.8z"/>
</g>
<path class="st4" d="M2.9,5.5c0.3-1.1,1.4-2.1,2.6-1.9C5.8,3.7,6,3.8,6.3,4c0.1,0.1,0.2,0.2,0.2,0.3C6.6,4.2,6.6,4,6.6,3.9
	c0-0.4-0.1-0.7-0.3-0.9C6,2.8,5.8,2.7,5.5,2.6C4.3,2.4,3.2,3.4,2.9,4.5c-0.1,0.4-0.1,0.8,0,1.2C2.9,5.6,2.9,5.5,2.9,5.5z"/>
<path class="st4" d="M18,14c0.4-0.1,1,0.1,1.3,0.5c0.1,0.1,0.1,0.1,0.1,0.1c0.1-0.3,0.2-0.6,0.1-0.9c-0.1-0.1-0.1-0.1-0.2-0.2
	C19,13.1,18.4,12.9,18,13c-0.8,0.3-0.9,1-0.7,1.6C17.5,14.3,17.7,14.1,18,14z"/>
<path class="st4" d="M3.2,14.3C3.4,14.1,3.7,14,4,14.1c0.3,0.1,0.5,0.3,0.6,0.5c0.1,0.1,0.1,0.1,0.2,0.2c0.1,0.1,0.3,0.1,0.4,0.1
	c0.1,0,0.2,0.1,0.3,0.2c0.1,0,0.1-0.1,0.2-0.2c0-0.1,0-0.2,0-0.3c0.1,0,0.1-0.1,0-0.2c-0.1-0.2-0.2-0.4-0.5-0.5
	c-0.1,0-0.3,0-0.4-0.1c-0.1-0.1-0.1-0.1-0.2-0.2c-0.1-0.2-0.3-0.4-0.6-0.5c-0.3-0.1-0.6,0-0.8,0.2S3,13.8,3.1,14.1
	C3.1,14.2,3.2,14.2,3.2,14.3z"/>
<path class="st4" d="M6.4,12.9c0,0,0.1-0.1,0.1-0.1c0.1-0.2,0.2-0.5,0-0.8c-0.3-0.4-0.9-0.4-1.1-0.1c-0.3,0.3-0.2,0.7,0.1,1
	C5.7,12.6,6.1,12.6,6.4,12.9z"/>
<path class="st4" d="M4.7,9.6C4.5,9.4,4.4,9.3,4.3,9.2C3.9,9.1,3.5,9.4,3.4,9.7c0,0.3,0.1,0.5,0.2,0.7c0.2-0.2,0.4-0.3,0.7-0.2
	c0.1,0.1,0.2,0.2,0.3,0.3c0.1-0.1,0.2-0.2,0.3-0.4V10C4.9,9.8,4.8,9.7,4.7,9.6z"/>
<path class="st4" d="M8.8,9C8.9,9,9,8.9,9.2,8.9C9.4,8.9,9.5,9,9.6,9C10,8.7,9.8,7.9,9.2,7.9C8.5,7.9,8.3,8.7,8.8,9z"/>
<path class="st4" d="M68.9,13.3c0.1-0.1,0.2-0.2,0.3-0.2s0.3-0.1,0.4-0.1c0.1-0.1,0.3-0.1,0.5-0.1c0.4,0,0.7,0.1,1,0.2
	c0.2,0.1,0.3,0.1,0.4,0.2c0.1,0.1,0.1,0.1,0.2,0.2s0.2,0.2,0.3,0.3c0.1,0.1,0.1,0.3,0.2,0.4c0,0,0,0,0.1,0c0-0.1,0-0.2,0-0.2
	c0.1-0.3,0-0.4,0-0.6c0-0.1,0-0.2-0.1-0.2c-0.1-0.1-0.1-0.3-0.2-0.4c-0.1-0.1-0.2-0.2-0.3-0.3s-0.1-0.1-0.2-0.2
	c-0.1-0.1-0.2-0.1-0.4-0.2c-0.3-0.1-0.6-0.2-1-0.2c-0.2,0-0.4,0-0.5,0.1c-0.1,0-0.3,0.1-0.4,0.1s-0.2,0.1-0.3,0.2
	c-0.3,0.2-0.4,0.4-0.5,0.6c-0.1,0.2-0.1,0.4-0.1,0.6c0,0.1,0.1,0.2,0.1,0.4C68.5,13.7,68.6,13.5,68.9,13.3z"/>
<path class="st4" d="M64.9,10c0.3,0,0.5,0,0.6,0.2c0.5,0.2,0.9,0.5,1.3,0.8c0.3-0.2,0.4-0.5,0.3-0.7c-0.1-0.1-0.2-0.2-0.3-0.3
	c-0.4-0.3-0.8-0.6-1.3-0.8C65.4,9,65.2,9,64.9,9C64.3,9.1,64.5,9.6,64.9,10C64.9,10,64.9,10,64.9,10z"/>
<path class="st4" d="M61.5,3.9c0.3-0.2,0.7-0.3,1.2-0.3c0.3,0,0.7,0,0.9,0.1C63.8,3.8,63.9,4,64,4.1c0.1-0.2,0.2-0.4,0.2-0.6
	c0-0.3-0.3-0.6-0.6-0.8c-0.2-0.1-0.6-0.1-0.9-0.1c-0.5,0-0.9,0.1-1.2,0.3c-0.7,0.4-0.6,0.9-0.3,1.3C61.3,4.1,61.4,4,61.5,3.9z"/>
<path class="st4" d="M71.8,4c0.3-0.1,0.6,0,0.9,0.1c0.5,0.1,0.8,0.3,1.2,0.5c0.3,0.1,0.6,0.4,0.8,0.7c0.1-0.2,0.1-0.3,0.1-0.5
	c0-0.2-0.1-0.4-0.1-0.5c-0.2-0.3-0.5-0.6-0.8-0.7c-0.4-0.2-0.7-0.4-1.2-0.5C72.4,3,72.1,2.9,71.8,3c-0.6,0.2-0.6,0.8-0.4,1.3
	C71.5,4.2,71.6,4.1,71.8,4z"/>
<path class="st4" d="M76.3,7.6c0.4,0,0.7,0.2,0.8,0.5c0.3-0.6,0-1.5-0.8-1.5c-0.9,0-1.1,0.9-0.8,1.5C75.6,7.8,75.9,7.6,76.3,7.6z"/>
</svg>
