<?xml version="1.0" encoding="UTF-8"?>
<svg id="Layer_1" data-name="Layer 1" xmlns="http://www.w3.org/2000/svg" width="94" height="60" version="1.1" viewBox="0 0 94 60">
  <defs>
    <style>
      .cls-1, .cls-2 {
        opacity: .1;
      }

      .cls-1, .cls-3, .cls-4 {
        fill: #000;
        isolation: isolate;
        stroke-width: 0px;
      }

      .cls-4 {
        opacity: .1;
      }
    </style>
  </defs>
  <path class="cls-4" d="M82.2,40.3c0-.2,0-.4-.2-.4-.2-.2-.2-.6-.4-.8-.2-.2-.4-.4-.6-.6q-.2-.2-.4-.4c-.2-.2-.4-.2-.8-.4-.6-.2-1.1-.4-1.9-.4s-.8,0-.9.2c-.2,0-.6.2-.8.2s-.4.2-.6.4c-.6.4-.8.8-.9,1.1-.2.4-.2.8-.2,1.1.2.6.4,1.3.6,1.9.2.4.4.8.9.9.2.2.4.2.8.4.4.2.8.2,1.1.2h1.5c.6-.2,1.1-.4,1.5-.6.8-.6,1.1-1.3,1.1-1.9.2-.6,0-.8,0-1.1Z"/>
  <path class="cls-4" d="M70.1-.6c4.7,1.2,11,3.2,15.7,4.4,1.6.3,3.5.9,4.8,3.5,2.6,5,2.2,14.7,1.6,22.7-.1,1.2-.2,2.6-.7,3.2-.2.3-.5,0-.7,0-1.8-1.2-3.4-3.2-4.9-5.9-1.3-2.4-2.9-5.9-4.3-3.8,1.9,3.8,3.9,7.4,5.8,11.2.6,1.2,1.3,2.6,1.4,4.7.2,2.9-.9,5.3-1.9,7.1-2,3.2-4.3,6.5-6.6,4.7-.7-.6-1.3-1.5-1.9-2.1-1.6-1.5-3.4-.9-5,0-10.2,3.8-20.2-1.2-30.8,2.9-2.6.9-5.2.9-7.8,0-3.5-1.2-7-2.4-10.7-2.4s-8.9,2.6-13.5,2.1c-2.9-.3-5.9-.3-8-5.9-1.1-2.6-1.6-5.9-2-9.4-.2-1.8-.4-3.5-.4-5.6s0-5-.4-5c-.1,2.9.1,34.2,0,34.2h93.9c0-19.7.1-44.7.1-64.5-7.5-.6-16.6,3.8-24,3.8Z"/>
  <path class="cls-4" d="M75.5,30.5c-.2-.2-.4-.4-.6-.6-.8-.6-1.5-1.1-2.4-1.5-.2-.4-.6-.4-1.1-.4-2.1.2.8,3,1.3,3.4.6.4,1.1.6,1.7.6.8-.2,1.3-.9,1.1-1.5h0Z"/>
  <path class="cls-4" d="M71.5,17.2h0c-.9,0-1.7.2-2.3.6-2.4,1.5.2,3.6,2.1,3.6s1.5-.2,2.1-.6c.6-.4.9-1.1.9-1.9s-.6-1.1-1.1-1.5c-.4-.2-1.1-.2-1.7-.2Z"/>
  <path class="cls-4" d="M85.9,13c-.4-.6-.9-1.1-1.5-1.3-.8-.4-1.3-.8-2.3-.9-.6-.2-1.1-.4-1.7-.2-1.5.6-.9,2.6,0,3.4.6.6,1.3.8,2.1,1.1.6.4,1.1.8,1.7.8,1.1,0,2.1-.9,1.9-1.9,0-.4-.2-.8-.2-.9Z"/>
  <path class="cls-4" d="M88.1,19.2c-2.4,0-2.4,3.8,0,3.8,2.4.2,2.4-3.8,0-3.8Z"/>
  <path class="cls-4" d="M16.3,42.1c.1-.1.2-.2.4-.4,2.5-2.8,1.8-7.3-.7-9.9-1.2-1.2-2.9-2.1-4.5-1.8-1,.2-1.8.7-2.6,1.4-.8.7-1.6,1.6-2,2.6-.7,2,0,4.2,1.1,6,1.1,1.7,2.7,3.2,4.7,3.4,1.3.1,2.7-.4,3.6-1.3Z"/>
  <g class="cls-2">
    <path class="cls-3" d="M0,57.3c0,1.7,0,2.7,0,2.7h0c0-.7,0-1.7,0-2.7Z"/>
    <path class="cls-3" d="M91.6,33.2c-.2.3-.5,0-.7,0-1.8-1.2-3.4-3.2-4.9-5.9-1.3-2.4-2.9-5.9-4.3-3.8.2.5.5.9.7,1.4,1.2-.3,2.6,2.4,3.6,4.4,1.5,2.6,3.2,4.7,4.9,5.9.2,0,.5.3.7,0,.5-.6.6-2.1.7-3.2.3-3.4.5-7.1.4-10.7,0,2.9-.2,5.9-.4,8.7-.1,1.2-.2,2.6-.7,3.2Z"/>
    <path class="cls-3" d="M.4,32.9c0,2.1.1,3.8.4,5.6.4,3.5.9,6.8,2,9.4,2.1,5.6,5,5.6,8,5.9,4.6.6,9-2.1,13.5-2.1s7.2,1.2,10.7,2.4c2.6.9,5.2.9,7.8,0,10.6-4.1,20.6.9,30.8-2.9,1.6-.9,3.4-1.5,5,0,.6.6,1.2,1.5,1.9,2.1,2.2,1.8,4.6-1.5,6.6-4.7.9-1.8,2.1-4.1,1.9-7.1,0,0,0-.2,0-.3-.2,2.1-1.1,3.9-1.8,5.3-2,3.2-4.3,6.5-6.6,4.7-.7-.6-1.3-1.5-1.9-2.1-1.6-1.5-3.4-.9-5,0-10.2,3.8-20.2-1.2-30.8,2.9-2.6.9-5.2.9-7.8,0-3.5-1.2-7-2.4-10.7-2.4s-8.9,2.6-13.5,2.1c-2.9-.3-5.9-.3-8-5.9-1.1-2.6-1.6-5.9-2-9.4-.2-1.8-.4-3.5-.4-5.6"/>
  </g>
  <path class="cls-1" d="M75.8,40.2c.2-.2.4-.4.6-.4s.6-.2.8-.2c.2-.2.6-.2.9-.2.8,0,1.3.2,1.9.4.4.2.6.2.8.4q.2.2.4.4l.6.6c.2.2.2.6.4.8,0,0,0,0,0,0,0-.2.1-.4.1-.5.2-.6,0-.8,0-1.1s0-.4-.2-.4c-.2-.2-.2-.6-.4-.8l-.6-.6-.4-.4c-.2-.2-.4-.2-.8-.4-.6-.2-1.1-.4-1.9-.4s-.8,0-.9.2c-.2,0-.6.2-.8.2s-.4.2-.6.4c-.6.4-.8.8-.9,1.1-.2.4-.2.8-.2,1.1,0,.2.2.5.2.8.2-.3.4-.7.9-1Z"/>
  <path class="cls-1" d="M71.3,30c.6,0,.9,0,1.1.4.9.4,1.6.9,2.3,1.4.5-.3.9-.9.7-1.3-.2-.2-.4-.4-.6-.6-.8-.6-1.5-1.1-2.4-1.5-.2-.4-.6-.4-1.1-.4-1.2.1-.7,1.1,0,2,0,0,0,0,0,0Z"/>
  <path class="cls-1" d="M69.2,19.7c.6-.4,1.3-.6,2.3-.6s1.3,0,1.7.2c.3.2.6.4.8.7.2-.4.3-.8.3-1.2s-.6-1.1-1.1-1.5c-.4-.2-1.1-.2-1.7-.2-.9,0-1.7.2-2.3.6-1.3.8-1.2,1.7-.5,2.4.1-.1.3-.3.5-.4Z"/>
  <path class="cls-1" d="M80.5,12.6c.6-.2,1.1,0,1.7.2.9.2,1.5.6,2.3.9.5.2,1.1.7,1.5,1.3.2-.3.3-.7.2-1,0-.4-.2-.8-.2-.9-.4-.6-.9-1.1-1.5-1.3-.8-.4-1.3-.8-2.3-.9-.6-.2-1.1-.4-1.7-.2-1.1.4-1.1,1.6-.6,2.5.1-.2.3-.4.6-.5Z"/>
  <path class="cls-1" d="M88.1,21.2c.8,0,1.3.4,1.6.9.6-1.1,0-2.9-1.6-2.9s-2.2,1.8-1.6,2.9c.3-.5.8-.9,1.6-.9Z"/>
  <path class="cls-1" d="M6.9,36c.4-1,1.1-1.9,2-2.6.7-.6,1.6-1.2,2.6-1.4,1.7-.3,3.4.6,4.5,1.8,1.2,1.2,2,2.9,2.2,4.6.3-2.3-.5-4.9-2.2-6.6-1.2-1.2-2.9-2.1-4.5-1.8-1,.2-1.8.7-2.6,1.4-.8.7-1.6,1.6-2,2.6-.3.9-.4,1.8-.2,2.7,0-.2.1-.5.2-.7Z"/>
</svg>