<?xml version="1.0" encoding="UTF-8"?>
<svg id="Layer_1" data-name="Layer 1" xmlns="http://www.w3.org/2000/svg" width="94" height="60" version="1.1" viewBox="0 0 94 60">
  <defs>
    <style>
      .cls-1, .cls-2, .cls-3 {
        opacity: .1;
      }

      .cls-1, .cls-4, .cls-5 {
        isolation: isolate;
      }

      .cls-1, .cls-4, .cls-5, .cls-6, .cls-3 {
        fill: #000;
        stroke-width: 0px;
      }

      .cls-7, .cls-5 {
        opacity: .1;
      }
    </style>
  </defs>
  <path class="cls-5" d="M1.1,5.1s1.4,12.4,1.4,13.6c.2,8.4,1,9,1.5,15.1,0,2.3,0,4.7,1,6.9s2.3,3.2,4.3,4.3,2.7,2.5,5.2,2.4c1.7,0,3.4-.5,5.1-.2,3.9.5,6.4,4.2,9.6,6.4,3.1,2.2,7-.2,10.8,0s11.7-.5,15.5-1.1c4.2-.7,8.4-1.7,12.7-2s4.1,0,6.1.2,4.6,1.5,6.5.4c3-1.8,6.3-4.7,7.9-7.9s1.9-6.6,2.4-10c.9-6,1.4-12,1.9-18s.6-10.1,1.2-15.1c0,11.5.4,49.4.3,60.9H-1.6c-.1-19.8-.2-40.8-.2-60.8s0-.9.3-1.2c.3-.3.8-.3,1.2-.3"/>
  <g class="cls-7">
    <path class="cls-6" d="M14,6.5c-.5-.5-1.1-.7-1.8-.9-2.5-.5-5,1.8-5.7,4.3-.2.9-.2,1.8-.2,3s.2,1.8.9,2.5c.5.7,1.1,1.1,1.8,1.4,1.1.2,2.3,0,3-.9.5-.9.5-1.8.7-2.7.5-1.6,2.3-3,2.3-4.6s-.2-1.6-.9-2h-.1Z"/>
    <path class="cls-6" d="M13.3,11.7s-.2.2,0,0h0Z"/>
  </g>
  <path class="cls-5" d="M25.6,8c-.2-.5-.5-.7-.7-.9-.5-.2-.7-.2-1.1-.2h0c-.5-.2-.5-.5-.7-.7-.5-.7-.9-1.1-1.8-1.1s-1.4.5-1.6,1.1v1.1c0,.2.2.2.2.5l.2.2c.1.1.3.3.5.5,0,.2.2.2.2.5.1.1.3.2.5.2h.2l.2.2c.2.2.7.5,1.1.5h1.6c.5-.2.7-.5.9-.7.2-.5.2-.9.2-1.1h0Z"/>
  <path class="cls-5" d="M14.5,24.8c-.2-.5-.7-.9-1.1-1.1,0,0-.2,0-.2-.2-.5,0-.7-.2-1.1-.2h-1.1c-.5,0-.7.2-.9.5-.2.2-.7.5-.7.9s-.2.5-.2.7c-.2.5-.2,1.1,0,1.6,0,.2.2.5.2.7.2.5.7.9,1.1,1.1,0,0,.2,0,.2.2.5.2.7.2,1.1.5h1.1c.5,0,.7-.2.9-.5s.7-.5.7-.9.2-.5.2-.7c.2-.5.2-1.1,0-1.6,0-.5,0-.7-.2-.9h0Z"/>
  <path class="cls-5" d="M20,17.7c0-.2-.2-.5-.5-.7l-.2-.2h0v-.2c0-.2-.2-.2-.5-.5-.2,0-.5-.2-.7-.2h-.5c-.2,0-.5,0-.7.2l-.2.2c-.2.2-.2.5-.5.7h0v.5h0v.5c0,.2.2.2.2.5h0c0,.2.2.2.2.5h0c.2,0,.2.2.5.2s.2.2.5.2h.5c.2,0,.5,0,.7-.2.2,0,.5-.2.5-.2.1-.1.2-.3.2-.5s.2-.5.2-.7c.2.5.2.2.2,0h0Z"/>
  <path class="cls-5" d="M27.1,14.6c-2,0-2,3,0,3s2-3,0-3Z"/>
  <g class="cls-2">
    <path class="cls-4" d="M40,53.5c-3.8,0-7.7,2.3-10.8.1-3.2-2.2-5.7-5.9-9.6-6.4-1.7-.3-3.4.2-5.1.2-2.5,0-3.2-1.3-5.2-2.4s-3.4-2.1-4.3-4.3c-.9-2.2-1-4.6-1-6.9,0-1.3,0-2.5,0-3.5,0,1.5,0,3.2,0,5.5,0,2.3.1,4.7,1,6.9.9,2.2,2.3,3.2,4.3,4.3s2.7,2.5,5.2,2.4c1.7,0,3.4-.5,5.1-.2,3.9.5,6.4,4.2,9.6,6.4,3.1,2.2,7-.2,10.8-.1,3.8.1,11.7-.5,15.5-1.1,4.2-.7,8.4-1.7,12.7-2s4.1,0,6.1.2c2,.2,4.6,1.5,6.5.4,3-1.8,6.3-4.7,7.9-7.9,1.6-3.2,1.9-6.6,2.4-10,.9-6,1.4-12,1.9-18s.6-10.1,1.2-15.1c0,10,.3,39.9.3,55.2,0-14.4-.3-46.7-.3-57.2-.6,5-.7,9.1-1.2,15.1s-1,12-1.9,18c-.5,3.4-.8,6.8-2.4,10-1.6,3.2-4.9,6.1-7.9,7.9-1.9,1.1-4.5-.2-6.5-.4-2-.2-1.8-.5-6.1-.2s-8.5,1.3-12.7,2c-3.8.6-11.7,1.2-15.5,1.1Z"/>
    <path class="cls-4" d="M45.5.2s-.2,0-.4,0c.3,0,.4,0,.4,0h0Z"/>
  </g>
  <path class="cls-3" d="M6.5,11.9c.7-2.5,3.2-4.8,5.7-4.3.7.2,1.3.4,1.8.9h0c.4.3.6.6.7,1,.1-.3.2-.6.2-.9,0-.9-.2-1.6-.9-2h0c-.5-.6-1.1-.8-1.8-1-2.5-.5-5,1.8-5.7,4.3-.2.9-.2,1.8-.2,3s0,.3,0,.4c0-.5,0-1,.2-1.4Z"/>
  <path class="cls-1" d="M21.3,7.1c.9,0,1.3.4,1.8,1.1.2.2.2.5.7.7.4,0,.6,0,1.1.2,0,0,.2.2.3.2,0,0,0-.1.1-.1.2-.5.2-.9.2-1.1h0c-.2-.6-.5-.8-.7-1-.5-.2-.7-.2-1.1-.2-.5-.2-.5-.5-.7-.7-.5-.7-.9-1.1-1.8-1.1s-1.4.5-1.6,1.1v1.1c0,.2.2.2.2.5.3-.4.7-.7,1.4-.7Z"/>
  <path class="cls-1" d="M27.1,16.6c.5,0,.9.2,1.1.5.7-.9.3-2.5-1.1-2.5s-1.9,1.6-1.1,2.5c.2-.3.6-.5,1.1-.5Z"/>
  <path class="cls-1" d="M16.5,18.7c0-.1.1-.3.2-.4l.2-.2c.2-.2.5-.2.7-.2h.5c.2,0,.5.2.7.2.3.3.5.3.5.5v.2h0c0,0,.1-.2.1-.3s.2-.5.2-.7c.2.5.2.2.2,0h0c0-.3-.2-.6-.5-.8l-.2-.2v-.2c0-.2-.2-.2-.5-.5-.2,0-.5-.2-.7-.2h-.5c-.2,0-.5,0-.7.2l-.2.2c-.2.2-.2.5-.5.7v1c0,.2.2.2.2.5s0,.1,0,.2Z"/>
  <path class="cls-1" d="M9.3,27.2c0-.1.1-.3.1-.5,0-.4.5-.7.7-.9.2-.3.4-.5.9-.5h1.1c.4,0,.6.2,1.1.2,0,.2.2.2.2.2.4.2.9.6,1.1,1.1h0c.1.2.2.4.2.6,0,0,0,0,0,0,.2-.5.2-1.1,0-1.6,0-.5,0-.7-.2-.9h0c-.2-.6-.7-1-1.1-1.2,0,0-.2,0-.2-.2-.5,0-.7-.2-1.1-.2h-1.1c-.5,0-.7.2-.9.5-.2.2-.7.5-.7.9s-.2.5-.2.7c-.2.5-.2,1.1,0,1.6,0,0,0,.1,0,.2Z"/>
</svg>