<?xml version="1.0" encoding="UTF-8"?>
<svg id="Layer_1" data-name="Layer 1" xmlns="http://www.w3.org/2000/svg" width="94" height="60" version="1.1" viewBox="0 0 94 60">
  <defs>
    <style>
      .cls-1, .cls-2, .cls-3 {
        opacity: .1;
      }

      .cls-1, .cls-4, .cls-5 {
        isolation: isolate;
      }

      .cls-1, .cls-4, .cls-5, .cls-6, .cls-3 {
        fill: #000;
        stroke-width: 0px;
      }

      .cls-7, .cls-5 {
        opacity: .1;
      }
    </style>
  </defs>
  <path class="cls-5" d="M87.9,18.2c0-.2,0-.4-.2-.4-.2-.2-.2-.6-.4-.8-.2-.2-.4-.4-.6-.6l-.2-.2c-.2-.2-.4-.2-.8-.4-.6-.2-1.1-.4-1.9-.4s-.8,0-.9.2c-.2,0-.6.2-.8.2s-.4.2-.6.4c-.6.4-.8.8-.9,1.3s-.2.8-.2,1.3c.2.6.4,1.5.6,2.1.2.4.4.8.9,1.1.2.2.4.2.8.4.4.2.8.2,1.1.2h1.5c.6-.2,1.1-.4,1.5-.6.8-.6,1.1-1.5,1.1-2.1,0-.6,0-1.1-.2-1.5Z"/>
  <g class="cls-7">
    <path class="cls-6" d="M14.5,39.1c-.4-.4-.9-.5-1.3-.5-2.4-.5-4.3,1.5-4.9,3.5-.2.7-.2,1.5-.2,2.2s.2,1.5.8,2c.4.5.9.9,1.5,1.1.9.2,1.9,0,2.4-.7.4-.7.4-1.5.6-2.2.4-1.3,1.9-2.4,1.9-3.6,0-.5-.2-1.1-.8-1.6Z"/>
    <path class="cls-6" d="M13.9,43.3q-.2.2,0,0h0Z"/>
  </g>
  <path class="cls-5" d="M70.3,53.5c-.8.4-1.6.7-2.4.9-3.7,1-7.5.3-11.1-.5s-7.4-1.4-11.3-1.3-7.6,1.8-11.3,2.3-8.1.5-11.9-.8-1.1-.4-1.6-.6c-1.8-.8-3.6-1.9-5.5-1.6-1.9.4-3.6,2.2-5.5,1.9-1.5-.3-2.5-1.8-3.1-3.3C.5,37.7-.4,22.7,4.1,9.3c.6-1.7,1.2-3.4,2.6-4.6,1.6-1.4,3.7-1.7,5.7-2.1C19.9,1.4,27.3.3,34.8-.9c-3.3-4-9.4-4.5-14.5-3.6S10-1.7,4.8-2.3c-1.9-.2-4.4-.5-5.3,1.2C-.7-.5-.8.2-.8.9c0,22.3-.2,37.5-.2,59.8,32,.6,64,.2,96,.8-.1-24.5-.2-41-.4-65.5l-2.7.3c-.2,9.8-.4,19.7-1.1,29.5-.4,5.1-.9,10.2-2.4,15.1-.4,1.2-.9,2.5-1.8,3.4-1.2,1.1-3,1.5-4.6,2-4.4,1.6-7.7,5.3-11.9,7.3Z"/>
  <path class="cls-5" d="M20.3,29.5c-.2-.4-.6-.6-.9-1,0,0-.2,0-.2-.2-.4,0-.6-.2-.9-.2h-.9c-.4,0-.6.2-.8.4-.4.4-.6.6-.8.8,0,.2-.2.4-.2.6-.2.6-.2,1,0,1.6,0,.2.2.4.2.6.2.4.6.6.9.8,0,0,.2,0,.2.2.4.2.6.4.9.4h.9c.4-.2.6-.4.9-.6.2-.2.6-.4.6-.8s.2-.4.2-.6c.2-.4.2-1,0-1.4,0-.2,0-.4-.2-.6Z"/>
  <path class="cls-5" d="M9.6,24c0-.3-.2-.6-.4-.9l-.2-.3h0v-.3c0-.3-.2-.3-.4-.6s-.4-.3-.6-.3h-.4c-.2,0-.4,0-.6.3l-.2.3c-.2,0-.4.3-.4.6h0v.6h0v.6c0,.3.2.3.2.6h0c0,.3.2.3.2.6h0c.2,0,.2.3.4.3.2,0,.2.3.4.3h.4c.2,0,.4,0,.6-.3.2,0,.4-.3.4-.3.4.6.4.3.4,0s.2-.6.2-1.2h0Z"/>
  <path class="cls-5" d="M24.3,40.7c-3.1,0-3.1,4.6,0,4.6,3.1.4,3.1-4.6,0-4.6Z"/>
  <path class="cls-5" d="M86.9,5.9c-2.4,0-2.4,4.4,0,4.4s2.4-4.4,0-4.4Z"/>
  <path class="cls-5" d="M77.1,10.5c.4-.4.8-.5,1.1-.9.8-.5,1.3-1.1,1.5-1.9.2-.7,0-1.6-.6-2.3-.8-.7-2.1-.9-3.2-.4-.9.5-1.7,1.2-2.3,2.3-.8,1.4-1.9,5.8,1.1,5.6.9,0,1.7-.7,1.9-1.6v-.7q.2,0,.4-.2Z"/>
  <path class="cls-1" d="M81.7,18c.2-.2.4-.4.6-.4s.6-.2.8-.2c.2-.2.6-.2.9-.2.8,0,1.3.2,1.9.4.4.2.6.2.8.4l.2.2c.2.2.4.4.6.6.2.2.2.6.4.8.2,0,.2.2.2.4,0,0,0,.1,0,.2,0-.2.1-.5.1-.7,0-.6,0-1.1-.2-1.5,0-.2,0-.4-.2-.4-.2-.2-.2-.6-.4-.8-.2-.2-.4-.4-.6-.6l-.2-.2c-.2-.2-.4-.2-.8-.4-.6-.2-1.1-.4-1.9-.4s-.8,0-.9.2c-.2,0-.6.2-.8.2s-.4.2-.6.4c-.6.4-.8.8-.9,1.3-.2.4-.2.8-.2,1.3,0,.2.1.5.2.7.2-.4.4-.8.9-1.2Z"/>
  <path class="cls-3" d="M8.3,44c.6-2,2.4-4,4.9-3.5.4,0,.9.2,1.3.5.2.2.4.4.5.6.2-.3.3-.6.3-1,0-.5-.2-1.1-.8-1.6-.4-.4-.9-.5-1.3-.5-2.4-.5-4.3,1.5-4.9,3.5-.2.7-.2,1.5-.2,2.2s0,.4,0,.6c0-.3,0-.5.1-.8Z"/>
  <g class="cls-2">
    <path class="cls-4" d="M95,61.4s0,0,0,0"/>
    <path class="cls-4" d="M90.9,25.8c-.4,5.1-.9,10.2-2.4,15.1-.4,1.2-.9,2.5-1.8,3.4-1.2,1.1-3,1.5-4.6,2-4.4,1.6-7.7,5.3-11.9,7.3-.8.4-1.6.7-2.4.9-3.7,1-7.5.3-11.1-.5-3.8-.8-7.4-1.4-11.3-1.3-3.8.2-7.6,1.8-11.3,2.3-4,.5-8.1.5-11.9-.8-.5-.2-1.1-.4-1.6-.6-1.8-.8-3.6-1.9-5.5-1.6-1.9.4-3.6,2.2-5.5,1.9-1.5-.3-2.5-1.8-3.1-3.3-3.3-7.1-5.1-14.8-5.2-22.6-.1,8.5,1.6,16.9,5.2,24.6.7,1.4,1.6,3,3.1,3.3,1.9.3,3.6-1.5,5.5-1.9,1.9-.3,3.7.8,5.5,1.6.5.2,1,.4,1.6.6,3.8,1.3,7.9,1.4,11.9.8,3.8-.5,7.6-2.1,11.3-2.3,3.9-.2,7.5.4,11.3,1.3,3.6.8,7.4,1.6,11.1.5.9-.2,1.7-.6,2.4-.9,4.1-2,7.5-5.7,11.9-7.3,1.6-.6,3.3-.9,4.6-2,.9-.9,1.4-2.1,1.8-3.4,1.5-4.9,2-10,2.4-15.1"/>
  </g>
  <path class="cls-1" d="M15.7,31.7c0-.1.1-.3.1-.4.2-.2.4-.4.8-.8.2-.2.4-.4.8-.4h.9c.4,0,.6.2.9.2,0,.2.2.2.2.2.4.4.8.6.9,1,0,0,0,.1.1.2,0,0,0-.1,0-.2.2-.4.2-1,0-1.4,0-.2,0-.4-.2-.6-.2-.4-.6-.6-.9-1,0,0-.2,0-.2-.2-.4,0-.6-.2-.9-.2h-.9c-.4,0-.6.2-.8.4-.4.4-.6.6-.8.8,0,.2-.2.4-.2.6-.2.6-.2,1,0,1.6,0,0,0,.1,0,.2Z"/>
  <path class="cls-1" d="M7,24.1l.2-.3c.2-.3.4-.3.6-.3h.4c.2,0,.4,0,.6.3.2.3.4.3.4.6v.3l.2.3c0,.1.1.2.2.3,0,0,0,0,0-.1,0-.3.2-.6.2-1.2s-.2-.6-.4-.9l-.2-.3v-.3c0-.3-.2-.3-.4-.6-.2-.3-.4-.3-.6-.3h-.4c-.2,0-.4,0-.6.3l-.2.3c-.2,0-.4.3-.4.6v1.2c0,.2,0,.3.1.3,0-.1.2-.2.3-.2Z"/>
  <path class="cls-1" d="M24.3,42.7c1.1,0,1.8.6,2.1,1.4.6-1.4-.1-3.4-2.1-3.4s-2.7,1.9-2.1,3.3c.3-.7,1-1.3,2.1-1.3Z"/>
  <path class="cls-1" d="M86.9,7.9c.8,0,1.4.5,1.6,1.2.5-1.3,0-3.2-1.6-3.2s-2.1,1.9-1.6,3.2c.3-.7.8-1.2,1.6-1.2Z"/>
  <path class="cls-1" d="M73.7,9.4c.6-1.1,1.3-1.8,2.3-2.3,1.1-.5,2.4-.4,3.2.4.2.2.3.5.4.7,0-.1.1-.3.2-.4.2-.7,0-1.6-.6-2.3-.8-.7-2.1-.9-3.2-.4-.9.5-1.7,1.2-2.3,2.3-.5.9-1.1,2.9-.7,4.3.2-.9.5-1.8.7-2.3Z"/>
</svg>