<?xml version="1.0" encoding="utf-8"?>
<!-- Generator: Adobe Illustrator 28.1.0, SVG Export Plug-In . SVG Version: 6.00 Build 0)  -->
<svg version="1.1" xmlns="http://www.w3.org/2000/svg" xmlns:xlink="http://www.w3.org/1999/xlink" x="0px" y="0px" width="50px"
	 height="20px" viewBox="0 0 50 20" style="enable-background:new 0 0 50 20;" xml:space="preserve">
<style type="text/css">
	.st0{opacity:0.1;}
	.st1{opacity:3.000000e-02;}
</style>
<g id="Layer_1">
</g>
<g id="Layer_3">
	<path class="st0" d="M5.5,3.1c0-0.1,0-0.2-0.1-0.2C5.4,2.8,5.3,2.6,5.2,2.5C5.2,2.4,5.1,2.3,5,2.2C4.9,2.2,4.9,2.1,4.8,2.1
		C4.7,2,4.5,1.9,4.4,1.9c-0.3-0.1-0.6-0.2-1-0.2c-0.2,0-0.4,0-0.5,0.1c-0.1,0-0.3,0.1-0.4,0.1C2.5,1.9,2.3,1.9,2.2,2
		C2,2.2,1.8,2.4,1.7,2.6C1.6,2.8,1.6,3,1.7,3.2c0.1,0.3,0.2,0.7,0.3,1c0.1,0.2,0.2,0.4,0.5,0.5c0.1,0.1,0.2,0.1,0.4,0.2
		C3.1,5,3.2,5,3.5,5c0.3,0,0.5,0,0.8,0C4.5,4.9,4.8,4.8,5,4.7c0.4-0.3,0.6-0.7,0.6-1C5.6,3.5,5.6,3.3,5.5,3.1z"/>
	<g class="st0">
		<path d="M6.5,7.2c0.2,0.2,0.4,0.4,0.7,0.6c1.1,0.5,2.4-0.3,3-1.3c0.2-0.4,0.3-0.8,0.4-1.2c0-0.4,0-0.8-0.1-1.2
			C10.2,3.8,10,3.5,9.7,3.3c-0.4-0.3-1-0.3-1.4,0.1C8,3.7,7.9,4.2,7.7,4.5c-0.4,0.7-1.3,1-1.5,1.7C6.2,6.6,6.3,6.9,6.5,7.2z"/>
		<path d="M7.3,5.1C7.4,5,7.4,5,7.3,5.1L7.3,5.1z"/>
	</g>
	<path class="st0" d="M35.1,16.3c-0.6,0-1.1,0-1.7,0.1c-1.5,0.2-3,0.4-4.5,0.2c-2.3-0.3-4.6-1.5-6.9-1.4c-1.6,0.1-3,0.7-4.6,1
		c-1.9,0.4-3.9,0.2-5.8-0.1c-1.9-0.2-3.8-0.6-5.7-1c-0.9-0.2-1.8-0.4-2.6-1c-1.2-0.9-1.7-2.5-2-3.9C1.1,9.4,0.7,6.4-0.4,6.2
		c-0.3,2.2,0.1,4.6,0.2,6.8c0.1,2.3,0.1,4.7,0.2,7c16.6,0,33.3,0,49.9,0c0.2-6.9,0.5-13.7,0.9-20.6C47-0.3,43.3-0.1,39.6,0.1
		c2.7-0.6,5.5,1,7.1,3.2s2.1,5.1,2,7.9c0,1.6-0.2,3.3-0.8,4.7c-0.3,0.6-0.6,1.1-1.1,1.4c-0.5,0.3-1,0.3-1.6,0.3
		c-2.7,0.1-5.4,0.2-7.9-0.7c-0.6-0.2-1.2-0.5-1.8-0.6C35.3,16.3,35.2,16.3,35.1,16.3z"/>
	<path class="st0" d="M4.5,8.1C4.4,8,4.3,7.9,4.1,7.8c0,0-0.1,0-0.1,0C3.9,7.7,3.8,7.6,3.7,7.6c-0.1,0-0.2,0-0.4,0
		C3.2,7.7,3.1,7.7,3,7.8C2.9,7.9,2.9,7.9,2.8,8c0,0.1-0.1,0.1-0.1,0.2c0,0.2,0,0.3,0,0.5c0,0.1,0.1,0.1,0.1,0.2
		C2.9,9.1,3,9.2,3.1,9.3c0,0,0.1,0,0.1,0c0.1,0.1,0.2,0.1,0.3,0.1c0.1,0,0.2,0,0.4,0c0.1,0,0.2-0.1,0.3-0.2C4.3,9.2,4.4,9.1,4.5,9
		c0-0.1,0.1-0.1,0.1-0.2c0-0.2,0-0.3,0-0.5C4.5,8.2,4.5,8.2,4.5,8.1z"/>
	<path class="st0" d="M7.9,12.1c0-0.1-0.1-0.2-0.2-0.3c0,0-0.1-0.1-0.1-0.1c0,0,0,0,0,0c0,0,0-0.1,0-0.1c0-0.1-0.1-0.1-0.2-0.2
		c-0.1-0.1-0.1-0.1-0.2-0.1c-0.1,0-0.1,0-0.2,0c-0.1,0-0.2,0-0.3,0.1c0,0-0.1,0.1-0.1,0.1c-0.1,0.1-0.1,0.2-0.2,0.3c0,0,0,0,0,0
		c0,0.1,0,0.1,0,0.2c0,0,0,0,0,0c0,0.1,0,0.1,0,0.2c0,0.1,0.1,0.1,0.1,0.2c0,0,0,0,0,0c0,0.1,0.1,0.1,0.1,0.2c0,0,0,0,0,0
		c0.1,0,0.1,0.1,0.2,0.1c0.1,0,0.1,0.1,0.2,0.1c0,0,0,0,0,0c0.1,0,0.1,0,0.2,0c0,0,0,0,0,0c0.1,0,0.2,0,0.3-0.1
		c0.1,0,0.2-0.1,0.2-0.1c0.1-0.1,0.1-0.1,0.1-0.2c0-0.1,0.1-0.2,0.1-0.3C7.9,12.3,7.9,12.2,7.9,12.1z"/>
	<path class="st0" d="M36,11.3c-0.9,0-0.9,1.3,0,1.3C36.9,12.6,36.9,11.3,36,11.3z"/>
	<path class="st0" d="M39.7,8.1c-1.3,0-1.3,2,0,2C41,10.1,41,8.1,39.7,8.1z"/>
	<path class="st0" d="M42.4,10.9c-0.3,0.3-0.7,0.5-1.1,0.7c-0.6,0.4-1.1,1-1.3,1.7c-0.2,0.7-0.1,1.5,0.4,2c0.6,0.7,1.8,0.8,2.6,0.4
		c0.9-0.4,1.5-1.1,2-1.9c0.7-1.3,1.9-5.2-0.8-5.2c-0.8,0-1.5,0.6-1.6,1.3c0,0.2,0,0.4-0.1,0.6C42.5,10.7,42.5,10.8,42.4,10.9z"/>
	<path class="st1" d="M1.8,3.5C1.9,3.3,2,3.1,2.2,3c0.1-0.1,0.2-0.1,0.3-0.2c0.1,0,0.3-0.1,0.4-0.1c0.2,0,0.3-0.1,0.5-0.1
		c0.3,0,0.7,0.1,1,0.2C4.5,2.9,4.7,3,4.8,3.1c0.1,0,0.1,0.1,0.2,0.2c0.1,0.1,0.2,0.2,0.3,0.3c0.1,0.1,0.2,0.3,0.2,0.4
		c0,0.1,0,0.1,0.1,0.2c0.1-0.2,0.1-0.3,0.1-0.5c0-0.2,0-0.3-0.1-0.5c0-0.1,0-0.2-0.1-0.2C5.4,2.8,5.3,2.6,5.2,2.5
		C5.2,2.4,5.1,2.3,5,2.2C4.9,2.2,4.9,2.1,4.8,2.1C4.7,2,4.5,1.9,4.4,1.9c-0.3-0.1-0.6-0.2-1-0.2c-0.2,0-0.4,0-0.5,0.1
		c-0.1,0-0.3,0.1-0.4,0.1C2.5,1.9,2.3,1.9,2.2,2C2,2.2,1.8,2.4,1.7,2.6C1.6,2.8,1.6,3,1.7,3.2C1.7,3.3,1.7,3.4,1.8,3.5z"/>
	<path class="st1" d="M7.7,5.5C7.9,5.2,8,4.7,8.3,4.4c0.4-0.3,0.9-0.3,1.4-0.1c0.3,0.2,0.5,0.5,0.7,0.8c0,0.1,0,0.2,0.1,0.3
		c0,0,0-0.1,0-0.1c0-0.4,0-0.8-0.1-1.2C10.2,3.8,10,3.5,9.7,3.3c-0.4-0.3-1-0.3-1.4,0.1C8,3.7,7.9,4.2,7.7,4.5
		c-0.4,0.7-1.3,1-1.5,1.7C6.2,6.5,6.3,6.8,6.4,7C6.7,6.5,7.4,6.1,7.7,5.5z"/>
	<g class="st1">
		<path d="M-0.4,7.2c1.1,0.2,1.6,3.2,1.8,4.1c0.4,1.4,0.8,3,2,3.9c0.7,0.5,1.7,0.8,2.6,1c1.9,0.4,3.8,0.7,5.7,1
			c1.9,0.3,3.9,0.4,5.8,0.1c1.5-0.3,3-0.9,4.6-1c2.4-0.1,4.6,1.1,6.9,1.4c1.5,0.2,3,0,4.5-0.2c0.6-0.1,1.1-0.2,1.7-0.1
			c0.1,0,0.2,0,0.4,0c0.6,0.1,1.2,0.4,1.8,0.6c2.5,0.9,5.3,0.9,7.9,0.7c0.5,0,1.1-0.1,1.6-0.3c0.5-0.3,0.9-0.9,1.1-1.4
			c0.7-1.5,0.8-3.1,0.8-4.7c0-0.2,0-0.4,0-0.7c0,1.5-0.2,3-0.8,4.4c-0.3,0.6-0.6,1.1-1.1,1.4c-0.5,0.3-1,0.3-1.6,0.3
			c-2.7,0.1-5.4,0.2-7.9-0.7c-0.6-0.2-1.2-0.5-1.8-0.6c-0.1,0-0.2,0-0.4,0c-0.6,0-1.1,0-1.7,0.1c-1.5,0.2-3,0.4-4.5,0.2
			c-2.3-0.3-4.6-1.5-6.9-1.4c-1.6,0.1-3,0.7-4.6,1c-1.9,0.4-3.9,0.2-5.8-0.1c-1.9-0.2-3.8-0.6-5.7-1c-0.9-0.2-1.8-0.4-2.6-1
			c-1.2-0.9-1.7-2.5-2-3.9C1.1,9.4,0.7,6.4-0.4,6.2c-0.1,0.7-0.1,1.5-0.1,2.3C-0.5,8-0.5,7.6-0.4,7.2z"/>
	</g>
	<path class="st1" d="M2.8,8.9C2.8,9,2.8,9,2.8,8.9C2.9,8.9,3,8.8,3,8.8c0.1-0.1,0.2-0.1,0.3-0.2c0.1,0,0.2,0,0.4,0
		c0.1,0,0.2,0,0.3,0.1c0,0,0.1,0,0.1,0C4.3,8.8,4.3,8.9,4.4,9c0,0,0,0,0,0c0-0.1,0.1-0.1,0.1-0.2c0-0.2,0-0.3,0-0.5
		c0-0.1-0.1-0.1-0.1-0.2C4.4,8,4.3,7.9,4.1,7.8c0,0-0.1,0-0.1,0C3.9,7.7,3.8,7.6,3.7,7.6c-0.1,0-0.2,0-0.4,0C3.2,7.7,3.1,7.7,3,7.8
		C2.9,7.9,2.9,7.9,2.8,8c0,0.1-0.1,0.1-0.1,0.2c0,0.2,0,0.3,0,0.5C2.8,8.8,2.8,8.9,2.8,8.9z"/>
	<path class="st1" d="M6.4,12.3c0,0.1,0.1,0.1,0.1,0.2c0,0,0,0,0,0c0,0,0,0,0,0c0,0,0,0,0-0.1c0,0,0.1-0.1,0.1-0.1
		c0.1-0.1,0.2-0.1,0.3-0.1c0.1,0,0.1,0,0.2,0c0.1,0,0.2,0.1,0.2,0.1c0.1,0,0.1,0.1,0.2,0.2c0,0,0,0.1,0,0.1c0,0,0,0,0,0
		c0,0,0.1,0,0.1,0.1c0,0,0,0,0,0c0.1-0.1,0.1-0.1,0.1-0.2c0-0.1,0.1-0.2,0.1-0.3c0-0.1,0-0.1,0-0.2c0-0.1-0.1-0.2-0.2-0.3
		c0,0-0.1-0.1-0.1-0.1c0,0,0,0,0,0c0,0,0-0.1,0-0.1c0-0.1-0.1-0.1-0.2-0.2c-0.1-0.1-0.1-0.1-0.2-0.1c-0.1,0-0.1,0-0.2,0
		c-0.1,0-0.2,0-0.3,0.1c0,0-0.1,0.1-0.1,0.1c-0.1,0.1-0.1,0.2-0.2,0.3c0,0,0,0,0,0c0,0.1,0,0.1,0,0.2c0,0,0,0,0,0
		C6.3,12.1,6.3,12.2,6.4,12.3z"/>
	<path class="st1" d="M35.6,12.4c0.1-0.1,0.2-0.2,0.4-0.2c0.2,0,0.3,0.1,0.4,0.2c0.4-0.3,0.3-1.2-0.4-1.2
		C35.3,11.3,35.2,12.1,35.6,12.4z"/>
	<path class="st1" d="M39.7,9.1c0.4,0,0.7,0.2,0.8,0.5c0.3-0.6,0-1.5-0.8-1.5c-0.9,0-1.1,0.9-0.8,1.5C39.1,9.3,39.3,9.1,39.7,9.1z"
		/>
	<path class="st1" d="M40,14.3c0.2-0.7,0.7-1.3,1.3-1.7c0.4-0.2,0.8-0.4,1.1-0.7c0.1-0.1,0.2-0.2,0.2-0.3c0.1-0.2,0.1-0.4,0.1-0.6
		c0.1-0.7,0.8-1.3,1.6-1.3c1.1,0,1.5,0.6,1.7,1.5c0.1-1.3-0.2-2.5-1.7-2.5c-0.8,0-1.5,0.6-1.6,1.3c0,0.2,0,0.4-0.1,0.6
		c0,0.1-0.1,0.2-0.2,0.3c-0.3,0.3-0.7,0.5-1.1,0.7c-0.6,0.4-1.1,1-1.3,1.7c-0.1,0.4-0.1,0.8,0,1.1C40,14.4,40,14.4,40,14.3z"/>
</g>
</svg>
